<?xml version="1.0" encoding="UTF-8" standalone="no"?>
<svg xmlns:dc="http://purl.org/dc/elements/1.1/" xmlns:cc="http://creativecommons.org/ns#"
   xmlns:rdf="http://www.w3.org/1999/02/22-rdf-syntax-ns#" xmlns:svg="http://www.w3.org/2000/svg"
   xmlns="http://www.w3.org/2000/svg" xmlns:sodipodi="http://sodipodi.sourceforge.net/DTD/sodipodi-0.dtd"
   xmlns:inkscape="http://www.inkscape.org/namespaces/inkscape" version="1.1" id="svg10" width="270.66666"
   height="290.66666" viewBox="0 0 270.66666 290.66666" sodipodi:docname="e_logo_black.svg"
   inkscape:version="1.0.1 (3bc2e813f5, 2020-09-07)">
   <style>
      .mainPathOfLogo {
         fill: #ffffff;
         stroke: #ffffff;
         stroke-width: 1.33333;
      }

      @media (prefers-color-scheme: light) {
         .mainPathOfLogo {
            fill: #000000;
            stroke: #000000;
            stroke-width: 1.33333;
         }
      }
   </style>
   <metadata id="metadata16">
      <rdf:RDF>
         <cc:Work rdf:about="">
            <dc:format>image/svg+xml</dc:format>
            <dc:type rdf:resource="http://purl.org/dc/dcmitype/StillImage" />
            <dc:title></dc:title>
         </cc:Work>
      </rdf:RDF>
   </metadata>
   <defs id="defs14" />
   <sodipodi:namedview pagecolor="#ffffff" bordercolor="#666666" borderopacity="1" objecttolerance="10"
      gridtolerance="10" guidetolerance="10" inkscape:pageopacity="0" inkscape:pageshadow="2"
      inkscape:window-width="1920" inkscape:window-height="1017" id="namedview12" showgrid="false"
      inkscape:zoom="2.8451836" inkscape:cx="79.194141" inkscape:cy="132.93778" inkscape:window-x="1272"
      inkscape:window-y="-8" inkscape:window-maximized="1" inkscape:current-layer="g18" />
   <g inkscape:groupmode="layer" inkscape:label="Image" id="g18">
      <path class="mainPathOfLogo"
         d="m 53.999999,253.69109 c -5.853272,-1.46239 -6.17088,-7.21448 -0.807196,-14.61884 8.66909,-11.96734 8.140529,-5.92571 8.140529,-93.04887 0,-86.578347 0.291029,-83.113799 -7.829571,-93.206721 -4.316704,-5.36514 -5.374621,-11.079135 -2.570429,-13.883327 1.206164,-1.206164 19.889946,-1.6 75.904758,-1.6 79.39829,0 77.07162,-0.18673 79.01164,6.341227 1.63324,5.495723 7.4836,38.603906 7.4836,42.350994 0,5.261045 -2.111,7.307778 -7.53727,7.307778 -7.18764,0 -10.87369,-2.631826 -21.3746,-15.261387 -16.26002,-19.556132 -20.91845,-21.599755 -46.62988,-20.456247 -12.96754,0.576728 -14.22418,0.877339 -17.54641,4.197404 l -3.57851,3.576187 -0.39747,33.972022 -0.39747,33.97202 17.73081,-0.005 c 20.716,-0.006 23.94124,-1.24461 30.35455,-11.65885 6.48834,-10.53609 8.00846,-12.27672 11.48312,-13.1488 2.24549,-0.56358 4.18696,-0.0648 5.94685,1.52792 2.44696,2.21447 2.61295,4.2628 2.61295,32.24568 0,18.04794 -0.54659,30.90231 -1.38024,32.46002 -0.95768,1.78942 -2.7973,2.57901 -6.00875,2.57901 -4.26475,0 -5.09119,-0.72184 -10.51595,-9.18501 -8.63176,-13.46644 -8.66692,-13.48166 -31.14425,-13.48166 h -19.1225 L 116.24749,187 c 0.59864,46.17663 0.21263,45.66666 34.56589,45.66666 h 22.26798 l 5.12598,-4.13265 c 2.8193,-2.27296 8.1955,-8.45612 11.94712,-13.74035 9.27218,-13.06002 13.53559,-17.26042 19.26021,-18.97556 5.82456,-1.74509 10.15912,0.0195 11.30982,4.60428 0.83678,3.33402 -5.2923,42.15921 -7.54974,47.82441 -0.84176,2.11244 -3.09633,4.1622 -5.49964,5 -4.10396,1.43064 -148.061317,1.84684 -153.675111,0.4443 z"
         id="path24" />
   </g>
</svg>