<?xml version="1.0" standalone="no"?>
<!DOCTYPE svg PUBLIC "-//W3C//DTD SVG 1.1//EN" "http://www.w3.org/Graphics/SVG/1.1/DTD/svg11.dtd" >
<svg xmlns="http://www.w3.org/2000/svg" xmlns:xlink="http://www.w3.org/1999/xlink" version="1.1">
<metadata>
Created by FontForge 20201107 at Fri Jan 10 20:46:41 2025
 By 
Copyright 2022-2024 Helena Zhang
</metadata>
<defs>
<font id="DepartureMono-Regular" horiz-adv-x="1303" >
  <font-face 
    font-family="Departure Mono"
    font-weight="400"
    font-stretch="normal"
    units-per-em="2048"
    panose-1="2 0 0 9 0 0 0 0 0 0"
    ascent="1638"
    descent="-410"
    x-height="1117"
    cap-height="1489"
    bbox="0 -559 1303 2048"
    underline-thickness="111"
    underline-position="-259"
    unicode-range="U+0020-A78C"
  />
<missing-glyph 
d="M186 1676h931v-1862h-931v1862zM931 0v186h-186v373h186v372h-186v372h186v186h-559v-186h187v-372h-187v-372h187v-373h-187v-186h559zM559 931h186v-372h-186v372z" />
    <glyph glyph-name=".notdef" 
d="M186 1676h931v-1862h-931v1862zM931 0v186h-186v373h186v372h-186v372h186v186h-559v-186h187v-372h-187v-372h187v-373h-187v-186h559zM559 931h186v-372h-186v372z" />
    <glyph glyph-name=".null" horiz-adv-x="0" 
 />
    <glyph glyph-name="nonmarkingreturn" 
 />
    <glyph glyph-name="space" unicode=" " 
 />
    <glyph glyph-name="exclam" unicode="!" 
d="M559 1489h186v-1117h-186v1117zM559 186h186v-186h-186v186z" />
    <glyph glyph-name="quotedbl" unicode="&#x22;" 
d="M372 1489h187v-558h-187v558zM745 1489h186v-558h-186v558z" />
    <glyph glyph-name="numbersign" unicode="#" 
d="M186 372h-186v187h372v372h-186v186h373v372h186v-372h186v372h186v-372h186v-186h-372v-372h186v-187h-372v-372h-186v372h-187v-372h-186v372zM559 559h186v372h-186v-372z" />
    <glyph glyph-name="dollar" unicode="$" 
d="M186 1303h186v-372h-186v372zM372 931h187v372h-187v186h187v187h186v-187h186v-186h-186v-372h186v-186h-186v-559h186v-186h-186v-186h-186v186h-187v186h187v559h-187v186zM931 745h186v-559h-186v559zM186 372h186v-186h-186v186zM931 1303h186v-186h-186v186z" />
    <glyph glyph-name="percent" unicode="%" 
d="M186 1303h186v-186h-186v186zM559 1303h-187v186h187v-186zM559 1303h186v-186h-186v186zM931 186h-186v186h186v-186zM931 186h186v-186h-186v186zM931 559h186v-187h-186v187zM1117 372h186v-186h-186v186zM931 1117h186v-186h-186v186zM559 745h186v-186h-186v186z
M372 559h187v-187h-187v187zM1117 1489h186v-372h-186v372zM745 931h186v-186h-186v186zM186 372h186v-372h-186v372zM372 1117h187v-186h-187v186z" />
    <glyph glyph-name="ampersand" unicode="&#x26;" 
d="M372 931h-186v372h186v-372zM372 931h187v-186h-187v186zM372 186h-186v559h186v-559zM372 186h373v-186h-373v186zM372 1489h373v-186h-373v186zM1117 745v-186h-186v-373h-186v559h372zM745 1303h186v-186h-186v186zM1117 931h186v-186h-186v186z" />
    <glyph glyph-name="quotesingle" unicode="'" 
d="M559 1489h186v-558h-186v558z" />
    <glyph glyph-name="parenleft" unicode="(" 
d="M372 1303h187v-1117h-187v1117zM745 0h-186v186h186v-186zM745 0h186v-186h-186v186zM745 1676h186v-187h-186v187zM559 1489h186v-186h-186v186z" />
    <glyph glyph-name="parenright" unicode=")" 
d="M745 1303h186v-1117h-186v1117zM559 186h186v-186h-186v186zM372 0h187v-186h-187v186zM372 1676h187v-187h-187v187zM745 1303h-186v186h186v-186z" />
    <glyph glyph-name="asterisk" unicode="*" 
d="M559 1489h186v-372h186v-186h-186v-372h-186v372h-187v186h187v372zM372 1117h-186v186h186v-186zM186 931h186v-186h-186v186zM931 1303h186v-186h-186v186zM931 931h186v-186h-186v186z" />
    <glyph glyph-name="plus" unicode="+" 
d="M186 745h373v372h186v-372h372v-186h-372v-373h-186v373h-373v186z" />
    <glyph glyph-name="comma" unicode="," 
d="M559 372h186v-372h-186v372zM372 0h187v-186h-187v186z" />
    <glyph glyph-name="hyphen" unicode="-" 
d="M931 745v-186h-559v186h559z" />
    <glyph glyph-name="period" unicode="." 
d="M559 372h186v-372h-186v372z" />
    <glyph glyph-name="slash" unicode="/" 
d="M745 1303h186v-372h-186v372zM186 186h186v-372h-186v372zM372 559h187v-373h-187v373zM559 931h186v-372h-186v372zM931 1676h186v-373h-186v373z" />
    <glyph glyph-name="zero" unicode="0" 
d="M186 1303h186v-558h187v-186h-187v-373h-186v1117zM372 186h559v-186h-559v186zM372 1489h559v-186h-559v186zM931 1303h186v-1117h-186v745h-186v186h186v186zM559 931h186v-186h-186v186z" />
    <glyph glyph-name="one" unicode="1" 
d="M559 1117h-373v186h373v186h186v-1303h372v-186h-931v186h373v931z" />
    <glyph glyph-name="two" unicode="2" 
d="M186 372h186v-186h745v-186h-931v372zM931 1303h-559v186h559v-186zM931 1303h186v-372h-186v372zM372 559h187v-187h-187v187zM186 1303h186v-186h-186v186zM745 931h186v-186h-186v186zM559 745h186v-186h-186v186z" />
    <glyph glyph-name="three" unicode="3" 
d="M186 1303h186v-186h-186v186zM372 1489h559v-186h-559v186zM931 1303h186v-372h-186v372zM559 931h372v-186h-372v186zM931 745h186v-559h-186v559zM931 186v-186h-559v186h559zM372 186h-186v186h186v-186z" />
    <glyph glyph-name="four" unicode="4" 
d="M745 1489h372v-1489h-186v372h-745v559h186v-372h559v744h-186v186zM559 1303h186v-186h-186v186zM372 1117h187v-186h-187v186z" />
    <glyph glyph-name="five" unicode="5" 
d="M186 1489h931v-186h-745v-372h559v-186h-745v744zM931 745h186v-559h-186v559zM931 186v-186h-559v186h559zM372 186h-186v186h186v-186z" />
    <glyph glyph-name="six" unicode="6" 
d="M372 1489h559v-186h-559v186zM186 1303h186v-372h559v-186h-559v-559h-186v1117zM931 745h186v-559h-186v559zM372 186h559v-186h-559v186zM931 1303h186v-186h-186v186z" />
    <glyph glyph-name="seven" unicode="7" 
d="M372 559h187v-559h-187v559zM559 745h186v-186h-186v186zM745 931h186v-186h-186v186zM931 1303h-745v186h931v-558h-186v372z" />
    <glyph glyph-name="eight" unicode="8" 
d="M186 1303h186v-372h-186v372zM931 1303h-559v186h559v-186zM931 1303h186v-372h-186v372zM372 931h559v-186h-559v186zM931 745h186v-559h-186v559zM186 745h186v-559h-186v559zM931 186v-186h-559v186h559z" />
    <glyph glyph-name="nine" unicode="9" 
d="M931 186v-186h-559v186h559zM372 186h-186v186h186v-186zM931 745v558h186v-1117h-186v373h-559v186h559zM372 745h-186v558h186v-558zM372 1489h559v-186h-559v186z" />
    <glyph glyph-name="colon" unicode=":" 
d="M559 372h186v-372h-186v372zM559 1117h186v-372h-186v372z" />
    <glyph glyph-name="semicolon" unicode=";" 
d="M559 372h186v-372h-186v372zM372 0h187v-186h-187v186zM559 1117h186v-372h-186v372z" />
    <glyph glyph-name="less" unicode="&#x3c;" 
d="M186 745h186v-186h-186v186zM372 931h187v-186h-187v186zM372 559h187v-187h-187v187zM559 372h186v-186h-186v186zM559 1117h186v-186h-186v186zM745 1303h186v-186h-186v186zM745 186h186v-186h-186v186z" />
    <glyph glyph-name="equal" unicode="=" 
d="M1117 931v-186h-931v186h931zM1117 559v-187h-931v187h931z" />
    <glyph glyph-name="greater" unicode="&#x3e;" 
d="M559 1117h-187v186h187v-186zM559 1117h186v-186h-186v186zM745 931h186v-186h-186v186zM559 372h186v-186h-186v186zM745 559h186v-187h-186v187zM931 745h186v-186h-186v186zM372 186h187v-186h-187v186z" />
    <glyph glyph-name="question" unicode="?" 
d="M931 1303h-559v186h559v-186zM931 1303h186v-372h-186v372zM745 931h186v-186h-186v186zM559 745h186v-373h-186v373zM559 186h186v-186h-186v186zM186 1303h186v-186h-186v186z" />
    <glyph glyph-name="at" unicode="@" 
d="M372 1489h559v-186h-559v186zM559 745h-187v186h373v-745h-186v559zM186 745h186v-559h-186v559zM745 186h186v-186h-186v186zM931 1303h186v-1117h-186v1117zM372 186h187v-186h-187v186zM186 1303h186v-186h-186v186z" />
    <glyph glyph-name="A" unicode="A" 
d="M186 1117h186v-372h559v372h186v-1117h-186v559h-559v-559h-186v1117zM559 1489h186v-186h-186v186zM372 1303h187v-186h-187v186zM745 1303h186v-186h-186v186z" />
    <glyph glyph-name="B" unicode="B" 
d="M186 1489h745v-186h-559v-372h559v-186h-559v-559h559v-186h-745v1489zM931 745h186v-559h-186v559zM931 1303h186v-372h-186v372z" />
    <glyph glyph-name="C" unicode="C" 
d="M186 1303h186v-1117h-186v1117zM372 186h559v-186h-559v186zM931 372h186v-186h-186v186zM372 1489h559v-186h-559v186zM931 1303h186v-186h-186v186z" />
    <glyph glyph-name="D" unicode="D" 
d="M186 1489h745v-186h-559v-1117h559v-186h-745v1489zM931 1303h186v-1117h-186v1117z" />
    <glyph glyph-name="E" unicode="E" 
d="M186 1489h931v-186h-745v-372h559v-186h-559v-559h745v-186h-931v1489z" />
    <glyph glyph-name="F" unicode="F" 
d="M186 1489h931v-186h-745v-372h559v-186h-559v-745h-186v1489z" />
    <glyph glyph-name="G" unicode="G" 
d="M186 1303h186v-1117h-186v1117zM372 186h559v-186h-559v186zM931 559h-186v186h372v-559h-186v373zM372 1489h559v-186h-559v186zM931 1303h186v-186h-186v186z" />
    <glyph glyph-name="H" unicode="H" 
d="M186 1489h186v-558h559v558h186v-1489h-186v745h-559v-745h-186v1489z" />
    <glyph glyph-name="I" unicode="I" 
d="M559 186v1117h-373v186h931v-186h-372v-1117h372v-186h-931v186h373z" />
    <glyph glyph-name="J" unicode="J" 
d="M372 186h-186v186h186v-186zM372 186h559v-186h-559v186zM931 1303h-372v186h558v-1303h-186v1117z" />
    <glyph glyph-name="K" unicode="K" 
d="M186 1489h186v-558h187v186h186v-372h-373v-745h-186v1489zM931 1489h186v-186h-186v186zM745 1303h186v-186h-186v186zM931 372h-186v373h186v-373zM931 372h186v-372h-186v372z" />
    <glyph glyph-name="L" unicode="L" 
d="M186 1489h186v-1303h745v-186h-931v1489z" />
    <glyph glyph-name="M" unicode="M" 
d="M186 1489h186v-372h187v-186h-187v-931h-186v1489zM931 931h-186v186h186v372h186v-1489h-186v931zM559 931h186v-372h-186v372z" />
    <glyph glyph-name="N" unicode="N" 
d="M186 1489h186v-372h187v-186h-187v-931h-186v1489zM931 559h-186v186h186v744h186v-1489h-186v559zM745 745h-186v186h186v-186z" />
    <glyph glyph-name="O" unicode="O" 
d="M186 1303h186v-1117h-186v1117zM372 186h559v-186h-559v186zM931 1303h186v-1117h-186v1117zM372 1489h559v-186h-559v186z" />
    <glyph glyph-name="P" unicode="P" 
d="M186 1489h745v-186h-559v-558h559v-186h-559v-559h-186v1489zM931 1303h186v-558h-186v558z" />
    <glyph glyph-name="Q" unicode="Q" 
d="M186 1303h186v-1117h-186v1117zM372 186h559v-186h186v-186h-372v186h-373v186zM931 1303h186v-1117h-186v1117zM931 1303h-559v186h559v-186z" />
    <glyph glyph-name="R" unicode="R" 
d="M186 1489h745v-186h-559v-558h559v-373h-186v187h-373v-559h-186v1489zM931 1303h186v-558h-186v558zM931 372h186v-372h-186v372z" />
    <glyph glyph-name="S" unicode="S" 
d="M186 1303h186v-372h-186v372zM372 931h559v-186h-559v186zM931 186v-186h-559v186h559zM372 186h-186v186h186v-186zM931 745h186v-559h-186v559zM372 1489h559v-186h-559v186zM931 1303h186v-186h-186v186z" />
    <glyph glyph-name="T" unicode="T" 
d="M186 1489h931v-186h-372v-1303h-186v1303h-373v186z" />
    <glyph glyph-name="U" unicode="U" 
d="M186 1489h186v-1303h-186v1303zM372 186h559v-186h-559v186zM931 1489h186v-1303h-186v1303z" />
    <glyph glyph-name="V" unicode="V" 
d="M559 186h-187v373h187v-373zM559 186h186v-186h-186v186zM186 1489h186v-930h-186v930zM931 1489h186v-930h-186v930zM745 559h186v-373h-186v373z" />
    <glyph glyph-name="W" unicode="W" 
d="M186 1489h186v-930h-186v930zM372 559h187v-559h-187v559zM931 1489h186v-930h-186v930zM745 559h186v-559h-186v559zM559 931h186v-372h-186v372z" />
    <glyph glyph-name="X" unicode="X" 
d="M931 559h186v-559h-186v559zM186 559h186v-559h-186v559zM559 931h-187v186h187v-186zM559 931h186v-186h-186v186zM745 1117h186v-186h-186v186zM372 1117h-186v372h186v-372zM372 745h187v-186h-187v186zM931 1489h186v-372h-186v372zM745 745h186v-186h-186v186z" />
    <glyph glyph-name="Y" unicode="Y" 
d="M186 1489h186v-558h-186v558zM931 1489h186v-558h-186v558zM559 745h186v-745h-186v745zM372 931h187v-186h-187v186zM745 931h186v-186h-186v186z" />
    <glyph glyph-name="Z" unicode="Z" 
d="M372 186h745v-186h-931v559h186v-373zM745 1117h186v-186h-186v186zM372 745h187v-186h-187v186zM1117 1489v-372h-186v186h-745v186h931zM559 931h186v-186h-186v186z" />
    <glyph glyph-name="bracketleft" unicode="[" 
d="M372 1676h559v-187h-372v-1489h372v-186h-559v1862z" />
    <glyph glyph-name="backslash" unicode="\" 
d="M186 1676h186v-373h-186v373zM372 1303h187v-372h-187v372zM559 931h186v-372h-186v372zM745 559h186v-373h-186v373zM931 186h186v-372h-186v372z" />
    <glyph glyph-name="bracketright" unicode="]" 
d="M745 1489h-373v187h559v-1862h-559v186h373v1489z" />
    <glyph glyph-name="asciicircum" unicode="^" 
d="M372 1303h187v-186h-187v186zM559 1489h186v-186h-186v186zM745 1303h186v-186h-186v186z" />
    <glyph glyph-name="underscore" unicode="_" 
d="M186 186h931v-186h-931v186z" />
    <glyph glyph-name="grave" unicode="`" 
d="M372 1676h187v-187h-187v187zM559 1489h186v-186h-186v186z" />
    <glyph glyph-name="a" unicode="a" 
d="M186 559h186v-373h-186v373zM372 186h373v-186h-373v186zM745 372h186v187h-559v186h559v186h186v-931h-186v186h-186v186zM372 1117h559v-186h-559v186z" />
    <glyph glyph-name="b" unicode="b" 
d="M186 1489h186v-558h187v-186h-187v-373h187v-186h-187v-186h-186v1489zM559 186h372v-186h-372v186zM931 931h186v-745h-186v745zM559 1117h372v-186h-372v186z" />
    <glyph glyph-name="c" unicode="c" 
d="M372 1117h559v-186h-559v186zM186 931h186v-745h-186v745zM372 186h559v-186h-559v186zM931 931h186v-186h-186v186zM931 372h186v-186h-186v186z" />
    <glyph glyph-name="d" unicode="d" 
d="M931 1489h186v-1489h-186v186h-186v186h186v373h-186v186h186v558zM745 186v-186h-373v186h373zM372 186h-186v745h186v-745zM745 931h-373v186h373v-186z" />
    <glyph glyph-name="e" unicode="e" 
d="M372 1117h559v-186h-559v186zM186 931h186v-186h559v186h186v-372h-745v-373h-186v745zM372 186h559v-186h-559v186zM931 372h186v-186h-186v186z" />
    <glyph glyph-name="f" unicode="f" 
d="M372 931h-186v186h186v186h187v-186h558v-186h-558v-745h372v-186h-745v186h186v745zM559 1489h558v-186h-558v186z" />
    <glyph glyph-name="g" unicode="g" 
d="M372 1117h373v-186h-373v186zM186 931h186v-745h-186v745zM372 186h373v-186h-373v186zM372 -186h559v-186h-559v186zM745 372h186v373h-186v186h186v186h186v-1303h-186v372h-186v186z" />
    <glyph glyph-name="h" unicode="h" 
d="M186 1489h186v-558h187v-186h-187v-745h-186v1489zM931 931h186v-931h-186v931zM559 1117h372v-186h-372v186z" />
    <glyph glyph-name="i" unicode="i" 
d="M559 931h-373v186h559v-931h372v-186h-931v186h373v745zM559 1489h186v-186h-186v186z" />
    <glyph glyph-name="j" unicode="j" 
d="M745 1489h186v-186h-186v186zM745 931h-373v186h559v-1303h-186v1117zM745 -186v-186h-373v186h373zM372 -186h-186v186h186v-186z" />
    <glyph glyph-name="k" unicode="k" 
d="M186 1489h186v-930h187v186h186v-373h-373v-372h-186v1489zM931 1117h186v-186h-186v186zM745 931h186v-186h-186v186zM745 372h186v-186h-186v186zM931 186h186v-186h-186v186z" />
    <glyph glyph-name="l" unicode="l" 
d="M559 1303h-373v186h559v-1303h372v-186h-931v186h373v1117z" />
    <glyph glyph-name="m" unicode="m" 
d="M186 1117h373v-186h-187v-931h-186v1117zM559 931h186v-931h-186v931zM931 931h-186v186h186v-186zM931 931h186v-931h-186v931z" />
    <glyph glyph-name="n" unicode="n" 
d="M186 1117h186v-186h187v-186h-187v-745h-186v1117zM559 1117h372v-186h-372v186zM931 931h186v-931h-186v931z" />
    <glyph glyph-name="o" unicode="o" 
d="M372 1117h559v-186h-559v186zM931 931h186v-745h-186v745zM186 931h186v-745h-186v745zM372 186h559v-186h-559v186z" />
    <glyph glyph-name="p" unicode="p" 
d="M186 1117h186v-186h187v-186h-187v-373h187v-186h-187v-558h-186v1489zM559 1117h372v-186h-372v186zM931 931h186v-745h-186v745zM559 186h372v-186h-372v186z" />
    <glyph glyph-name="q" unicode="q" 
d="M372 1117h373v-186h-373v186zM745 931h186v186h186v-1489h-186v558h-186v186h186v373h-186v186zM186 931h186v-745h-186v745zM372 186h373v-186h-373v186z" />
    <glyph glyph-name="r" unicode="r" 
d="M559 1117v-186h186v-186h-186v-559h372v-186h-745v186h186v745h-186v186h373zM1117 1117v-186h-372v186h372z" />
    <glyph glyph-name="s" unicode="s" 
d="M931 186v-186h-559v186h559zM372 186h-186v186h186v-186zM931 1117v-186h-559v186h559zM186 931h186v-186h-186v186zM372 745h559v-186h-559v186zM931 559h186v-373h-186v373zM931 931h186v-186h-186v186z" />
    <glyph glyph-name="t" unicode="t" 
d="M372 1489h187v-372h558v-186h-558v-745h-187v745h-186v186h186v372zM559 186h372v-186h-372v186zM931 372h186v-186h-186v186z" />
    <glyph glyph-name="u" unicode="u" 
d="M186 1117h186v-931h-186v931zM372 186h373v-186h-373v186zM931 1117h186v-1117h-186v186h-186v186h186v745z" />
    <glyph glyph-name="v" unicode="v" 
d="M186 1117h186v-558h-186v558zM931 1117h186v-558h-186v558zM559 186h-187v373h187v-373zM559 186h186v-186h-186v186zM745 559h186v-373h-186v373z" />
    <glyph glyph-name="w" unicode="w" 
d="M186 1117h186v-931h-186v931zM931 1117h186v-1117h-372v186h186v931zM745 186h-186v931h186v-931zM372 186h187v-186h-187v186z" />
    <glyph glyph-name="x" unicode="x" 
d="M186 1117h186v-186h-186v186zM931 1117h186v-186h-186v186zM186 372h186v-372h-186v372zM745 931h186v-186h-186v186zM372 931h187v-186h-187v186zM559 745h186v-186h-186v186zM372 559h187v-187h-187v187zM745 559h186v-187h-186v187zM931 372h186v-372h-186v372z" />
    <glyph glyph-name="y" unicode="y" 
d="M186 1117h186v-558h-186v558zM931 1117h186v-558h-186v558zM559 186h186v-372h-186v372zM559 -186v-186h-373v186h373zM745 559h186v-373h-186v373zM372 559h187v-373h-187v373z" />
    <glyph glyph-name="z" unicode="z" 
d="M186 1117h931v-186h-186v-186h-186v186h-559v186zM559 745h186v-186h-186v186zM372 559h187v-187h-187v187zM186 372h186v-186h745v-186h-931v372z" />
    <glyph glyph-name="braceleft" unicode="{" 
d="M372 931v-186h-372v186h372zM372 1489h187v-558h-187v558zM372 745h187v-745h-187v745zM559 0h372v-186h-372v186zM559 1676h372v-187h-372v187z" />
    <glyph glyph-name="bar" unicode="|" 
d="M559 1676h186v-1862h-186v1862z" />
    <glyph glyph-name="braceright" unicode="}" 
d="M745 1489h186v-558h-186v558zM1303 931v-186h-372v186h372zM745 745h186v-745h-186v745zM745 0v-186h-373v186h373zM745 1676v-187h-373v187h373z" />
    <glyph glyph-name="asciitilde" unicode="~" 
d="M559 745h-187v186h187v-186zM559 745h186v-186h-186v186zM745 559h186v-187h-186v187zM931 745h186v-186h-186v186zM186 745h186v-186h-186v186z" />
    <glyph glyph-name="uni00A0" unicode="&#xa0;" 
 />
    <glyph glyph-name="exclamdown" unicode="&#xa1;" 
d="M559 1117h186v-186h-186v186zM559 745h186v-1117h-186v1117z" />
    <glyph glyph-name="cent" unicode="&#xa2;" 
d="M559 1117v186h186v-186h186v-186h-186v-559h186v-186h-186v-186h-186v186h-187v186h187v559h-187v186h187zM186 931h186v-559h-186v559zM931 559h186v-187h-186v187zM931 931h186v-186h-186v186z" />
    <glyph glyph-name="sterling" unicode="&#xa3;" 
d="M372 1303h187v-558h372v-186h-372v-373h558v-186h-931v186h186v373h-186v186h186v558zM559 1489h372v-186h-372v186zM931 1303h186v-186h-186v186z" />
    <glyph glyph-name="currency" unicode="&#xa4;" 
d="M372 931h-186v186h186v-186zM372 931h187v-186h-187v186zM186 745h186v-373h-186v373zM372 372h187v-186h-187v186zM186 186h186v-186h-186v186zM931 745h-186v186h186v-186zM931 745h186v-373h-186v373zM745 372h186v-186h-186v186zM745 931h-186v186h186v-186z
M931 1117h186v-186h-186v186zM559 186h186v-186h-186v186zM931 186h186v-186h-186v186z" />
    <glyph glyph-name="yen" unicode="&#xa5;" 
d="M559 745v186h186v-186h372v-186h-372v-187h372v-186h-372v-186h-186v186h-373v186h373v187h-373v186h373zM186 1489h186v-372h-186v372zM931 1489h186v-372h-186v372zM372 1117h187v-186h-187v186zM745 1117h186v-186h-186v186z" />
    <glyph glyph-name="brokenbar" unicode="&#xa6;" 
d="M559 1676h186v-745h-186v745zM559 559h186v-745h-186v745z" />
    <glyph glyph-name="section" unicode="&#xa7;" 
d="M372 1117h187v-186h372v-186h-559v186h-186v372h186v-186zM372 1489h559v-186h-559v186zM372 559h-186v186h186v-186zM372 559h559v-187h186v-372h-186v186h-186v186h-373v187zM931 0v-186h-559v186h559zM372 0h-186v186h186v-186zM931 1303h186v-186h-186v186zM931 745
h186v-186h-186v186z" />
    <glyph glyph-name="dieresis" unicode="&#xa8;" 
d="M372 1489h187v-186h-187v186zM745 1489h186v-186h-186v186z" />
    <glyph glyph-name="copyright" unicode="&#xa9;" 
d="M372 1117h187v-745h-187v745zM372 1862h559v-186h-559v186zM186 1676h186v-187h-186v187zM186 0h186v-186h-186v186zM931 -186v-186h-559v186h559zM745 559h186v-187h-186v187zM745 1117h-186v186h186v-186zM745 1117h186v-186h-186v186zM559 372h186v-186h-186v186z
M931 0h186v-186h-186v186zM931 1676h186v-187h-186v187z" />
    <glyph glyph-name="ordfeminine" unicode="&#xaa;" 
d="M372 1489h745v-930h-186v186h-186v186h186v372h-559v186zM186 1303h186v-558h-186v558zM372 745h373v-186h-373v186z" />
    <glyph glyph-name="guillemotleft" unicode="&#xab;" 
d="M0 745h186v-186h-186v186zM186 931h186v-186h-186v186zM372 1117h187v-186h-187v186zM186 559h186v-187h-186v187zM372 372h187v-186h-187v186zM559 745h186v-186h-186v186zM745 931h186v-186h-186v186zM745 559h186v-187h-186v187zM931 1117h186v-186h-186v186zM931 372
h186v-186h-186v186z" />
    <glyph glyph-name="logicalnot" unicode="&#xac;" 
d="M186 745h931v-559h-186v373h-745v186z" />
    <glyph glyph-name="uni00AD" unicode="&#xad;" 
d="M931 745v-186h-559v186h559z" />
    <glyph glyph-name="registered" unicode="&#xae;" 
d="M186 1676h186v-187h-186v187zM372 1862h559v-186h-559v186zM931 -186v-186h-559v186h559zM931 0h186v-186h-186v186zM372 -186h-186v186h186v-186zM372 1303h373v-186h-186v-372h186v-186h-186v-373h-187v1117zM745 1117h186v-372h-186v372zM745 559h186v-373h-186v373z
M931 1676h186v-187h-186v187z" />
    <glyph glyph-name="macron" unicode="&#xaf;" 
d="M372 1489h559v-186h-559v186z" />
    <glyph glyph-name="degree" unicode="&#xb0;" 
d="M559 1489h186v-186h-186v186zM372 1303h187v-186h-187v186zM559 1117h186v-186h-186v186zM745 1303h186v-186h-186v186z" />
    <glyph glyph-name="plusminus" unicode="&#xb1;" 
d="M186 186h931v-186h-931v186zM559 931v372h186v-372h372v-186h-372v-373h-186v373h-373v186h373z" />
    <glyph glyph-name="uni00B2" unicode="&#xb2;" 
d="M186 745h186v186h187v-186h558v-186h-931v186zM559 1117h186v-186h-186v186zM745 1303h186v-186h-186v186zM931 1489h-559v187h559v-187zM931 1489h186v-186h-186v186zM186 1489h186v-186h-186v186z" />
    <glyph glyph-name="uni00B3" unicode="&#xb3;" 
d="M186 931h186v-186h-186v186zM186 1489h186v-186h-186v186zM372 745h559v-186h-559v186zM372 1676h559v-187h-559v187zM931 1303v-186h-372v186h372zM931 1489h186v-186h-186v186zM931 1117h186v-372h-186v372z" />
    <glyph glyph-name="acute" unicode="&#xb4;" 
d="M745 1676h186v-187h-186v187zM559 1489h186v-186h-186v186z" />
    <glyph glyph-name="uni00B5" unicode="&#xb5;" 
d="M186 1117h186v-931h373v-186h-373v-372h-186v1489zM745 372h186v745h186v-1117h-186v186h-186v186z" />
    <glyph glyph-name="paragraph" unicode="&#xb6;" 
d="M1117 1489v-1489h-186v1303h-186v-744h-373v186h-186v558h186v186h745z" />
    <glyph glyph-name="periodcentered" unicode="&#xb7;" 
d="M559 931h186v-372h-186v372z" />
    <glyph glyph-name="cedilla" unicode="&#xb8;" 
d="M559 0h186v-186h-186v186zM745 -186h186v-186h-186v186zM559 -372h186v-187h-186v187z" />
    <glyph glyph-name="uni00B9" unicode="&#xb9;" 
d="M559 1676h186v-931h186v-186h-559v186h187v558h-187v186h187v187z" />
    <glyph glyph-name="ordmasculine" unicode="&#xba;" 
d="M372 1489h559v-186h-559v186zM186 1303h186v-558h-186v558zM372 745h559v-186h-559v186zM931 1303h186v-558h-186v558z" />
    <glyph glyph-name="guillemotright" unicode="&#xbb;" 
d="M372 931h-186v186h186v-186zM372 931h187v-186h-187v186zM559 745h186v-186h-186v186zM372 559h187v-187h-187v187zM745 372h186v-186h-186v186zM931 559h186v-187h-186v187zM1117 745h-186v186h186v-186zM1117 745h186v-186h-186v186zM931 931h-186v186h186v-186z
M186 372h186v-186h-186v186z" />
    <glyph glyph-name="onequarter" unicode="&#xbc;" 
d="M931 372h372v-931h-186v187h-558v372h186v-186h372v372h-186v186zM745 186h186v-186h-186v186zM186 1862h186v-745h187v-186h-559v186h186v372h-186v187h186v186zM0 559h372v-187h-372v187zM931 745v-186h-559v186h559zM931 931h372v-186h-372v186z" />
    <glyph glyph-name="onehalf" unicode="&#xbd;" 
d="M186 1862h186v-745h187v-186h-559v186h186v372h-186v187h186v186zM559 -372h186v186h186v-186h372v-187h-744v187zM931 0h186v-186h-186v186zM1117 186h-372v186h372v-186zM1117 186h186v-186h-186v186zM559 186h186v-186h-186v186zM0 559h372v-187h-372v187zM931 745
v-186h-559v186h559zM931 931h372v-186h-372v186z" />
    <glyph glyph-name="threequarters" unicode="&#xbe;" 
d="M0 559h372v-187h-372v187zM931 745v-186h-559v186h559zM931 931h372v-186h-372v186zM0 1303h186v-186h-186v186zM0 1676h186v-187h-186v187zM186 1117h373v-186h-373v186zM186 1862h373v-186h-373v186zM372 1489h187v-186h-187v186zM559 1676h186v-187h-186v187z
M559 1303h186v-186h-186v186zM931 372h372v-931h-186v187h-558v372h186v-186h372v372h-186v186zM745 186h186v-186h-186v186z" />
    <glyph glyph-name="questiondown" unicode="&#xbf;" 
d="M559 1117h186v-186h-186v186zM559 745h186v-373h-186v373zM372 372h187v-186h-187v186zM186 186h186v-372h-186v372zM372 -186h559v-186h-559v186zM931 0h186v-186h-186v186z" />
    <glyph glyph-name="Agrave" unicode="&#xc0;" 
d="M186 1117h186v-372h559v372h186v-1117h-186v559h-559v-559h-186v1117zM559 1489h186v-186h-186v186zM372 1303h187v-186h-187v186zM745 1303h186v-186h-186v186zM372 2048h187v-186h-187v186zM559 1862h186v-186h-186v186z" />
    <glyph glyph-name="Aacute" unicode="&#xc1;" 
d="M186 1117h186v-372h559v372h186v-1117h-186v559h-559v-559h-186v1117zM559 1489h186v-186h-186v186zM372 1303h187v-186h-187v186zM745 1303h186v-186h-186v186zM745 2048h186v-186h-186v186zM559 1862h186v-186h-186v186z" />
    <glyph glyph-name="Acircumflex" unicode="&#xc2;" 
d="M186 1117h186v-372h559v372h186v-1117h-186v559h-559v-559h-186v1117zM559 1489h186v-186h-186v186zM372 1303h187v-186h-187v186zM745 1303h186v-186h-186v186zM372 1862h187v-186h-187v186zM559 2048h186v-186h-186v186zM745 1862h186v-186h-186v186z" />
    <glyph glyph-name="Atilde" unicode="&#xc3;" 
d="M186 1117h186v-372h559v372h186v-1117h-186v559h-559v-559h-186v1117zM559 1489h186v-186h-186v186zM372 1303h187v-186h-187v186zM745 1303h186v-186h-186v186zM372 1862h187v-186h-187v186zM559 2048h186v-186h-186v186zM745 1862h186v-186h-186v186zM931 2048h186
v-186h-186v186z" />
    <glyph glyph-name="Adieresis" unicode="&#xc4;" 
d="M186 1117h186v-372h559v372h186v-1117h-186v559h-559v-559h-186v1117zM559 1489h186v-186h-186v186zM372 1303h187v-186h-187v186zM745 1303h186v-186h-186v186zM372 1862h187v-186h-187v186zM745 1862h186v-186h-186v186z" />
    <glyph glyph-name="Aring" unicode="&#xc5;" 
d="M186 1117h186v-372h559v372h186v-1117h-186v559h-559v-559h-186v1117zM559 1676h186v-373h-186v373zM372 1303h187v-186h-187v186zM745 1303h186v-186h-186v186zM559 2048h186v-186h-186v186zM372 1862h187v-186h-187v186zM745 1862h186v-186h-186v186z" />
    <glyph glyph-name="AE" unicode="&#xc6;" 
d="M1303 1489v-186h-558v-372h372v-186h-372v-559h558v-186h-744v559h-373v-559h-186v1117h186v-372h373v558h-187v186h931zM186 1303h186v-186h-186v186z" />
    <glyph glyph-name="Ccedilla" unicode="&#xc7;" 
d="M186 1303h186v-1117h-186v1117zM372 186h559v-186h-186v-186h-186v186h-187v186zM931 372h186v-186h-186v186zM372 1489h559v-186h-559v186zM931 1303h186v-186h-186v186zM745 -186h186v-186h-186v186zM559 -372h186v-187h-186v187z" />
    <glyph glyph-name="Egrave" unicode="&#xc8;" 
d="M186 1489h931v-186h-745v-372h559v-186h-559v-559h745v-186h-931v1489zM372 2048h187v-186h-187v186zM559 1862h186v-186h-186v186z" />
    <glyph glyph-name="Eacute" unicode="&#xc9;" 
d="M186 1489h931v-186h-745v-372h559v-186h-559v-559h745v-186h-931v1489zM745 2048h186v-186h-186v186zM559 1862h186v-186h-186v186z" />
    <glyph glyph-name="Ecircumflex" unicode="&#xca;" 
d="M186 1489h931v-186h-745v-372h559v-186h-559v-559h745v-186h-931v1489zM372 1862h187v-186h-187v186zM559 2048h186v-186h-186v186zM745 1862h186v-186h-186v186z" />
    <glyph glyph-name="Edieresis" unicode="&#xcb;" 
d="M186 1489h931v-186h-745v-372h559v-186h-559v-559h745v-186h-931v1489zM372 1862h187v-186h-187v186zM745 1862h186v-186h-186v186z" />
    <glyph glyph-name="Igrave" unicode="&#xcc;" 
d="M559 186v1117h-373v186h931v-186h-372v-1117h372v-186h-931v186h373zM372 2048h187v-186h-187v186zM559 1862h186v-186h-186v186z" />
    <glyph glyph-name="Iacute" unicode="&#xcd;" 
d="M559 186v1117h-373v186h931v-186h-372v-1117h372v-186h-931v186h373zM745 2048h186v-186h-186v186zM559 1862h186v-186h-186v186z" />
    <glyph glyph-name="Icircumflex" unicode="&#xce;" 
d="M559 186v1117h-373v186h931v-186h-372v-1117h372v-186h-931v186h373zM372 1862h187v-186h-187v186zM559 2048h186v-186h-186v186zM745 1862h186v-186h-186v186z" />
    <glyph glyph-name="Idieresis" unicode="&#xcf;" 
d="M559 186v1117h-373v186h931v-186h-372v-1117h372v-186h-931v186h373zM372 1862h187v-186h-187v186zM745 1862h186v-186h-186v186z" />
    <glyph glyph-name="Eth" unicode="&#xd0;" 
d="M931 1489v-186h-559v-372h373v-186h-373v-559h559v-186h-745v745h-186v186h186v558h745zM931 1303h186v-1117h-186v1117z" />
    <glyph glyph-name="Ntilde" unicode="&#xd1;" 
d="M186 1489h186v-372h187v-186h-187v-931h-186v1489zM931 559h-186v186h186v744h186v-1489h-186v559zM745 745h-186v186h186v-186zM372 1862h187v-186h-187v186zM559 2048h186v-186h-186v186zM745 1862h186v-186h-186v186zM931 2048h186v-186h-186v186z" />
    <glyph glyph-name="Ograve" unicode="&#xd2;" 
d="M186 1303h186v-1117h-186v1117zM372 186h559v-186h-559v186zM931 1303h186v-1117h-186v1117zM372 1489h559v-186h-559v186zM372 2048h187v-186h-187v186zM559 1862h186v-186h-186v186z" />
    <glyph glyph-name="Oacute" unicode="&#xd3;" 
d="M186 1303h186v-1117h-186v1117zM372 186h559v-186h-559v186zM931 1303h186v-1117h-186v1117zM372 1489h559v-186h-559v186zM745 2048h186v-186h-186v186zM559 1862h186v-186h-186v186z" />
    <glyph glyph-name="Ocircumflex" unicode="&#xd4;" 
d="M186 1303h186v-1117h-186v1117zM372 186h559v-186h-559v186zM931 1303h186v-1117h-186v1117zM372 1489h559v-186h-559v186zM372 1862h187v-186h-187v186zM559 2048h186v-186h-186v186zM745 1862h186v-186h-186v186z" />
    <glyph glyph-name="Otilde" unicode="&#xd5;" 
d="M186 1303h186v-1117h-186v1117zM372 186h559v-186h-559v186zM931 1303h186v-1117h-186v1117zM372 1489h559v-186h-559v186zM372 1862h187v-186h-187v186zM559 2048h186v-186h-186v186zM745 1862h186v-186h-186v186zM931 2048h186v-186h-186v186z" />
    <glyph glyph-name="Odieresis" unicode="&#xd6;" 
d="M186 1303h186v-1117h-186v1117zM372 186h559v-186h-559v186zM931 1303h186v-1117h-186v1117zM372 1489h559v-186h-559v186zM372 1862h187v-186h-187v186zM745 1862h186v-186h-186v186z" />
    <glyph glyph-name="multiply" unicode="&#xd7;" 
d="M186 1117h186v-186h-186v186zM372 931h187v-186h-187v186zM559 745h186v-186h-186v186zM745 559h186v-187h-186v187zM931 372h186v-186h-186v186zM186 372h186v-186h-186v186zM372 559h187v-187h-187v187zM745 931h186v-186h-186v186zM931 1117h186v-186h-186v186z" />
    <glyph glyph-name="Oslash" unicode="&#xd8;" 
d="M372 1489h559v-186h-559v186zM931 1303h186v-1117h-186v745h-186v186h186v186zM186 1303h186v-558h187v-186h-187v-373h-372v186h186v931zM931 186v-186h-559v186h559zM1117 1489h186v-186h-186v186zM559 931h186v-186h-186v186z" />
    <glyph glyph-name="Ugrave" unicode="&#xd9;" 
d="M186 1489h186v-1303h-186v1303zM372 186h559v-186h-559v186zM931 1489h186v-1303h-186v1303zM372 2048h187v-186h-187v186zM559 1862h186v-186h-186v186z" />
    <glyph glyph-name="Uacute" unicode="&#xda;" 
d="M186 1489h186v-1303h-186v1303zM372 186h559v-186h-559v186zM931 1489h186v-1303h-186v1303zM745 2048h186v-186h-186v186zM559 1862h186v-186h-186v186z" />
    <glyph glyph-name="Ucircumflex" unicode="&#xdb;" 
d="M186 1489h186v-1303h-186v1303zM372 186h559v-186h-559v186zM931 1489h186v-1303h-186v1303zM372 1862h187v-186h-187v186zM559 2048h186v-186h-186v186zM745 1862h186v-186h-186v186z" />
    <glyph glyph-name="Udieresis" unicode="&#xdc;" 
d="M186 1489h186v-1303h-186v1303zM372 186h559v-186h-559v186zM931 1489h186v-1303h-186v1303zM372 1862h187v-186h-187v186zM745 1862h186v-186h-186v186z" />
    <glyph glyph-name="Yacute" unicode="&#xdd;" 
d="M186 1489h186v-558h-186v558zM931 1489h186v-558h-186v558zM559 745h186v-745h-186v745zM372 931h187v-186h-187v186zM745 931h186v-186h-186v186zM745 2048h186v-186h-186v186zM559 1862h186v-186h-186v186z" />
    <glyph glyph-name="Thorn" unicode="&#xde;" 
d="M186 1489h186v-186h559v-186h-559v-558h559v-187h-559v-372h-186v1489zM931 1117h186v-558h-186v558z" />
    <glyph glyph-name="germandbls" unicode="&#xdf;" 
d="M186 1303h186v-1675h-186v1675zM372 1489h373v-186h-373v186zM559 186h372v-186h-372v186zM745 1303h186v-558h-186v558zM931 745h186v-559h-186v559z" />
    <glyph glyph-name="agrave" unicode="&#xe0;" 
d="M186 559h186v-373h-186v373zM372 186h373v-186h-373v186zM745 372h186v187h-559v186h559v186h186v-931h-186v186h-186v186zM372 1117h559v-186h-559v186zM372 1676h187v-187h-187v187zM559 1489h186v-186h-186v186z" />
    <glyph glyph-name="aacute" unicode="&#xe1;" 
d="M186 559h186v-373h-186v373zM372 186h373v-186h-373v186zM745 372h186v187h-559v186h559v186h186v-931h-186v186h-186v186zM372 1117h559v-186h-559v186zM745 1676h186v-187h-186v187zM559 1489h186v-186h-186v186z" />
    <glyph glyph-name="acircumflex" unicode="&#xe2;" 
d="M186 559h186v-373h-186v373zM372 186h373v-186h-373v186zM745 372h186v187h-559v186h559v186h186v-931h-186v186h-186v186zM372 1117h559v-186h-559v186zM372 1489h187v-186h-187v186zM559 1676h186v-187h-186v187zM745 1489h186v-186h-186v186z" />
    <glyph glyph-name="atilde" unicode="&#xe3;" 
d="M186 559h186v-373h-186v373zM372 186h373v-186h-373v186zM745 372h186v187h-559v186h559v186h186v-931h-186v186h-186v186zM372 1117h559v-186h-559v186zM372 1489h187v-186h-187v186zM559 1676h186v-187h-186v187zM745 1489h186v-186h-186v186zM931 1676h186v-187h-186
v187z" />
    <glyph glyph-name="adieresis" unicode="&#xe4;" 
d="M186 559h186v-373h-186v373zM372 186h373v-186h-373v186zM745 372h186v187h-559v186h559v186h186v-931h-186v186h-186v186zM372 1117h559v-186h-559v186zM372 1489h187v-186h-187v186zM745 1489h186v-186h-186v186z" />
    <glyph glyph-name="aring" unicode="&#xe5;" 
d="M186 559h186v-373h-186v373zM372 186h373v-186h-373v186zM745 372h186v187h-559v186h559v186h186v-931h-186v186h-186v186zM372 1117h559v-186h-559v186zM559 1862h186v-186h-186v186zM372 1676h187v-187h-187v187zM559 1489h186v-186h-186v186zM745 1676h186v-187h-186
v187z" />
    <glyph glyph-name="ae" unicode="&#xe6;" 
d="M559 931h-373v186h373v-186zM559 931h186v-186h372v186h186v-372h-558v-373h-186v373h-373v186h373v186zM0 559h186v-373h-186v373zM186 186h373v-186h-373v186zM1117 931h-372v186h372v-186zM1117 372h186v-186h-186v186zM745 186h372v-186h-372v186z" />
    <glyph glyph-name="ccedilla" unicode="&#xe7;" 
d="M372 1117h559v-186h-559v186zM186 931h186v-745h-186v745zM372 186h559v-186h-186v-186h-186v186h-187v186zM931 931h186v-186h-186v186zM931 372h186v-186h-186v186zM745 -186h186v-186h-186v186zM559 -372h186v-187h-186v187z" />
    <glyph glyph-name="egrave" unicode="&#xe8;" 
d="M372 1117h559v-186h-559v186zM186 931h186v-186h559v186h186v-372h-745v-373h-186v745zM372 186h559v-186h-559v186zM931 372h186v-186h-186v186zM372 1676h187v-187h-187v187zM559 1489h186v-186h-186v186z" />
    <glyph glyph-name="eacute" unicode="&#xe9;" 
d="M372 1117h559v-186h-559v186zM186 931h186v-186h559v186h186v-372h-745v-373h-186v745zM372 186h559v-186h-559v186zM931 372h186v-186h-186v186zM745 1676h186v-187h-186v187zM559 1489h186v-186h-186v186z" />
    <glyph glyph-name="ecircumflex" unicode="&#xea;" 
d="M372 1117h559v-186h-559v186zM186 931h186v-186h559v186h186v-372h-745v-373h-186v745zM372 186h559v-186h-559v186zM931 372h186v-186h-186v186zM372 1489h187v-186h-187v186zM559 1676h186v-187h-186v187zM745 1489h186v-186h-186v186z" />
    <glyph glyph-name="edieresis" unicode="&#xeb;" 
d="M372 1117h559v-186h-559v186zM186 931h186v-186h559v186h186v-372h-745v-373h-186v745zM372 186h559v-186h-559v186zM931 372h186v-186h-186v186zM372 1489h187v-186h-187v186zM745 1489h186v-186h-186v186z" />
    <glyph glyph-name="igrave" unicode="&#xec;" 
d="M559 931h-373v186h559v-931h372v-186h-931v186h373v745zM372 1676h187v-187h-187v187zM559 1489h186v-186h-186v186z" />
    <glyph glyph-name="iacute" unicode="&#xed;" 
d="M559 931h-373v186h559v-931h372v-186h-931v186h373v745zM745 1676h186v-187h-186v187zM559 1489h186v-186h-186v186z" />
    <glyph glyph-name="icircumflex" unicode="&#xee;" 
d="M559 931h-373v186h559v-931h372v-186h-931v186h373v745zM372 1489h187v-186h-187v186zM559 1676h186v-187h-186v187zM745 1489h186v-186h-186v186z" />
    <glyph glyph-name="idieresis" unicode="&#xef;" 
d="M559 931h-373v186h559v-931h372v-186h-931v186h373v745zM372 1489h187v-186h-187v186zM745 1489h186v-186h-186v186z" />
    <glyph glyph-name="eth" unicode="&#xf0;" 
d="M931 745h-186v186h186v186h186v-931h-186v559zM931 186v-186h-559v186h559zM186 931h186v-745h-186v745zM931 1489h186v-186h-186v186zM372 1489h373v-186h-373v186zM931 1117h-186v186h186v-186zM745 931h-373v186h373v-186z" />
    <glyph glyph-name="ntilde" unicode="&#xf1;" 
d="M186 1117h186v-186h187v-186h-187v-745h-186v1117zM559 1117h372v-186h-372v186zM931 931h186v-931h-186v931zM372 1489h187v-186h-187v186zM559 1676h186v-187h-186v187zM745 1489h186v-186h-186v186zM931 1676h186v-187h-186v187z" />
    <glyph glyph-name="ograve" unicode="&#xf2;" 
d="M372 1117h559v-186h-559v186zM931 931h186v-745h-186v745zM186 931h186v-745h-186v745zM372 186h559v-186h-559v186zM372 1676h187v-187h-187v187zM559 1489h186v-186h-186v186z" />
    <glyph glyph-name="oacute" unicode="&#xf3;" 
d="M372 1117h559v-186h-559v186zM931 931h186v-745h-186v745zM186 931h186v-745h-186v745zM372 186h559v-186h-559v186zM745 1676h186v-187h-186v187zM559 1489h186v-186h-186v186z" />
    <glyph glyph-name="ocircumflex" unicode="&#xf4;" 
d="M372 1117h559v-186h-559v186zM931 931h186v-745h-186v745zM186 931h186v-745h-186v745zM372 186h559v-186h-559v186zM372 1489h187v-186h-187v186zM559 1676h186v-187h-186v187zM745 1489h186v-186h-186v186z" />
    <glyph glyph-name="otilde" unicode="&#xf5;" 
d="M372 1117h559v-186h-559v186zM931 931h186v-745h-186v745zM186 931h186v-745h-186v745zM372 186h559v-186h-559v186zM372 1489h187v-186h-187v186zM559 1676h186v-187h-186v187zM745 1489h186v-186h-186v186zM931 1676h186v-187h-186v187z" />
    <glyph glyph-name="odieresis" unicode="&#xf6;" 
d="M372 1117h559v-186h-559v186zM931 931h186v-745h-186v745zM186 931h186v-745h-186v745zM372 186h559v-186h-559v186zM372 1489h187v-186h-187v186zM745 1489h186v-186h-186v186z" />
    <glyph glyph-name="divide" unicode="&#xf7;" 
d="M186 745h931v-186h-931v186zM559 1117h186v-186h-186v186zM559 372h186v-186h-186v186z" />
    <glyph glyph-name="oslash" unicode="&#xf8;" 
d="M559 559h186v-187h-186v187zM745 745h186v186h186v-745h-186v373h-186v186zM0 0h186v-186h-186v186zM1117 1117h186v-186h-186v186zM372 372h187v-186h372v-186h-745v931h186v-559zM372 1117h559v-186h-559v186z" />
    <glyph glyph-name="ugrave" unicode="&#xf9;" 
d="M186 1117h186v-931h-186v931zM372 186h373v-186h-373v186zM931 1117h186v-1117h-186v186h-186v186h186v745zM372 1676h187v-187h-187v187zM559 1489h186v-186h-186v186z" />
    <glyph glyph-name="uacute" unicode="&#xfa;" 
d="M186 1117h186v-931h-186v931zM372 186h373v-186h-373v186zM931 1117h186v-1117h-186v186h-186v186h186v745zM745 1676h186v-187h-186v187zM559 1489h186v-186h-186v186z" />
    <glyph glyph-name="ucircumflex" unicode="&#xfb;" 
d="M186 1117h186v-931h-186v931zM372 186h373v-186h-373v186zM931 1117h186v-1117h-186v186h-186v186h186v745zM372 1489h187v-186h-187v186zM559 1676h186v-187h-186v187zM745 1489h186v-186h-186v186z" />
    <glyph glyph-name="udieresis" unicode="&#xfc;" 
d="M186 1117h186v-931h-186v931zM372 186h373v-186h-373v186zM931 1117h186v-1117h-186v186h-186v186h186v745zM372 1489h187v-186h-187v186zM745 1489h186v-186h-186v186z" />
    <glyph glyph-name="yacute" unicode="&#xfd;" 
d="M186 1117h186v-558h-186v558zM931 1117h186v-558h-186v558zM559 186h186v-372h-186v372zM559 -186v-186h-373v186h373zM745 559h186v-373h-186v373zM372 559h187v-373h-187v373zM745 1676h186v-187h-186v187zM559 1489h186v-186h-186v186z" />
    <glyph glyph-name="thorn" unicode="&#xfe;" 
d="M186 1489h186v-558h187v-186h-187v-373h187v-186h-187v-558h-186v1861zM559 1117h372v-186h-372v186zM931 931h186v-745h-186v745zM559 186h372v-186h-372v186z" />
    <glyph glyph-name="ydieresis" unicode="&#xff;" 
d="M186 1117h186v-558h-186v558zM931 1117h186v-558h-186v558zM559 186h186v-372h-186v372zM559 -186v-186h-373v186h373zM745 559h186v-373h-186v373zM372 559h187v-373h-187v373zM372 1489h187v-186h-187v186zM745 1489h186v-186h-186v186z" />
    <glyph glyph-name="Amacron" unicode="&#x100;" 
d="M186 1117h186v-372h559v372h186v-1117h-186v559h-559v-559h-186v1117zM559 1489h186v-186h-186v186zM372 1303h187v-186h-187v186zM745 1303h186v-186h-186v186zM372 1862h559v-186h-559v186z" />
    <glyph glyph-name="amacron" unicode="&#x101;" 
d="M186 559h186v-373h-186v373zM372 186h373v-186h-373v186zM745 372h186v187h-559v186h559v186h186v-931h-186v186h-186v186zM372 1117h559v-186h-559v186zM372 1489h559v-186h-559v186z" />
    <glyph glyph-name="Abreve" unicode="&#x102;" 
d="M186 1117h186v-372h559v372h186v-1117h-186v559h-559v-559h-186v1117zM559 1489h186v-186h-186v186zM372 1303h187v-186h-187v186zM745 1303h186v-186h-186v186zM186 2048h186v-186h-186v186zM372 1862h559v-186h-559v186zM931 2048h186v-186h-186v186z" />
    <glyph glyph-name="abreve" unicode="&#x103;" 
d="M186 559h186v-373h-186v373zM372 186h373v-186h-373v186zM745 372h186v187h-559v186h559v186h186v-931h-186v186h-186v186zM372 1117h559v-186h-559v186zM186 1676h186v-187h-186v187zM372 1489h559v-186h-559v186zM931 1676h186v-187h-186v187z" />
    <glyph glyph-name="Aogonek" unicode="&#x104;" 
d="M186 1117h186v-372h559v372h186v-1303h-186v745h-559v-559h-186v1117zM559 1489h186v-186h-186v186zM372 1303h187v-186h-187v186zM745 1303h186v-186h-186v186zM745 -186h186v-186h-186v186zM931 -372h186v-187h-186v187z" />
    <glyph glyph-name="aogonek" unicode="&#x105;" 
d="M186 559h186v-373h-186v373zM372 186h373v-186h-373v186zM745 372h186v187h-559v186h559v186h186v-1117h-186v372h-186v186zM372 1117h559v-186h-559v186zM745 -186h186v-186h-186v186zM931 -372h186v-187h-186v187z" />
    <glyph glyph-name="Cacute" unicode="&#x106;" 
d="M186 1303h186v-1117h-186v1117zM372 186h559v-186h-559v186zM931 372h186v-186h-186v186zM372 1489h559v-186h-559v186zM931 1303h186v-186h-186v186zM745 2048h186v-186h-186v186zM559 1862h186v-186h-186v186z" />
    <glyph glyph-name="cacute" unicode="&#x107;" 
d="M372 1117h559v-186h-559v186zM186 931h186v-745h-186v745zM372 186h559v-186h-559v186zM931 931h186v-186h-186v186zM931 372h186v-186h-186v186zM745 1676h186v-187h-186v187zM559 1489h186v-186h-186v186z" />
    <glyph glyph-name="Ccircumflex" unicode="&#x108;" 
d="M186 1303h186v-1117h-186v1117zM372 186h559v-186h-559v186zM931 372h186v-186h-186v186zM372 1489h559v-186h-559v186zM931 1303h186v-186h-186v186zM372 1862h187v-186h-187v186zM559 2048h186v-186h-186v186zM745 1862h186v-186h-186v186z" />
    <glyph glyph-name="ccircumflex" unicode="&#x109;" 
d="M372 1117h559v-186h-559v186zM186 931h186v-745h-186v745zM372 186h559v-186h-559v186zM931 931h186v-186h-186v186zM931 372h186v-186h-186v186zM372 1489h187v-186h-187v186zM559 1676h186v-187h-186v187zM745 1489h186v-186h-186v186z" />
    <glyph glyph-name="Cdotaccent" unicode="&#x10a;" 
d="M186 1303h186v-1117h-186v1117zM372 186h559v-186h-559v186zM931 372h186v-186h-186v186zM372 1489h559v-186h-559v186zM931 1303h186v-186h-186v186zM559 1862h186v-186h-186v186z" />
    <glyph glyph-name="cdotaccent" unicode="&#x10b;" 
d="M372 1117h559v-186h-559v186zM186 931h186v-745h-186v745zM372 186h559v-186h-559v186zM931 931h186v-186h-186v186zM931 372h186v-186h-186v186zM559 1489h186v-186h-186v186z" />
    <glyph glyph-name="Ccaron" unicode="&#x10c;" 
d="M186 1303h186v-1117h-186v1117zM372 186h559v-186h-559v186zM931 372h186v-186h-186v186zM372 1489h559v-186h-559v186zM931 1303h186v-186h-186v186zM372 2048h187v-186h-187v186zM559 1862h186v-186h-186v186zM745 2048h186v-186h-186v186z" />
    <glyph glyph-name="ccaron" unicode="&#x10d;" 
d="M372 1117h559v-186h-559v186zM186 931h186v-745h-186v745zM372 186h559v-186h-559v186zM931 931h186v-186h-186v186zM931 372h186v-186h-186v186zM372 1676h187v-187h-187v187zM559 1489h186v-186h-186v186zM745 1676h186v-187h-186v187z" />
    <glyph glyph-name="Dcaron" unicode="&#x10e;" 
d="M186 1489h745v-186h-559v-1117h559v-186h-745v1489zM931 1303h186v-1117h-186v1117zM372 2048h187v-186h-187v186zM559 1862h186v-186h-186v186zM745 2048h186v-186h-186v186z" />
    <glyph glyph-name="dcaron" unicode="&#x10f;" 
d="M745 1489h186v-186h186v-186h-186v-1117h-186v186h-186v186h186v373h-186v186h186v558zM559 186v-186h-373v186h373zM186 186h-186v745h186v-745zM559 931h-373v186h373v-186zM1117 1489h186v-186h-186v186z" />
    <glyph glyph-name="Dcroat" unicode="&#x110;" 
d="M931 1489v-186h-559v-372h373v-186h-373v-559h559v-186h-745v745h-186v186h186v558h745zM931 1303h186v-1117h-186v1117z" />
    <glyph glyph-name="dcroat" unicode="&#x111;" 
d="M559 1489h744v-186h-186v-1303h-186v186h-186v186h186v373h-186v186h186v372h-372v186zM745 186v-186h-373v186h373zM372 186h-186v745h186v-745zM745 931h-373v186h373v-186z" />
    <glyph glyph-name="Emacron" unicode="&#x112;" 
d="M186 1489h931v-186h-745v-372h559v-186h-559v-559h745v-186h-931v1489zM372 1862h559v-186h-559v186z" />
    <glyph glyph-name="emacron" unicode="&#x113;" 
d="M372 1117h559v-186h-559v186zM186 931h186v-186h559v186h186v-372h-745v-373h-186v745zM372 186h559v-186h-559v186zM931 372h186v-186h-186v186zM372 1489h559v-186h-559v186z" />
    <glyph glyph-name="Ebreve" unicode="&#x114;" 
d="M186 1489h931v-186h-745v-372h559v-186h-559v-559h745v-186h-931v1489zM186 2048h186v-186h-186v186zM372 1862h559v-186h-559v186zM931 2048h186v-186h-186v186z" />
    <glyph glyph-name="ebreve" unicode="&#x115;" 
d="M372 1117h559v-186h-559v186zM186 931h186v-186h559v186h186v-372h-745v-373h-186v745zM372 186h559v-186h-559v186zM931 372h186v-186h-186v186zM186 1676h186v-187h-186v187zM372 1489h559v-186h-559v186zM931 1676h186v-187h-186v187z" />
    <glyph glyph-name="Edotaccent" unicode="&#x116;" 
d="M186 1489h931v-186h-745v-372h559v-186h-559v-559h745v-186h-931v1489zM559 1862h186v-186h-186v186z" />
    <glyph glyph-name="edotaccent" unicode="&#x117;" 
d="M372 1117h559v-186h-559v186zM186 931h186v-186h559v186h186v-372h-745v-373h-186v745zM372 186h559v-186h-559v186zM931 372h186v-186h-186v186zM559 1489h186v-186h-186v186z" />
    <glyph glyph-name="Eogonek" unicode="&#x118;" 
d="M186 1489h931v-186h-745v-372h559v-186h-559v-559h745v-372h-186v186h-745v1489zM745 -186h186v-186h-186v186zM931 -372h186v-187h-186v187z" />
    <glyph glyph-name="eogonek" unicode="&#x119;" 
d="M372 1117h559v-186h-559v186zM186 931h186v-186h559v186h186v-372h-745v-373h-186v745zM372 186h559v-186h-186v-186h-186v186h-187v186zM931 372h186v-186h-186v186zM372 -186h187v-186h-187v186zM559 -372h186v-187h-186v187z" />
    <glyph glyph-name="Ecaron" unicode="&#x11a;" 
d="M186 1489h931v-186h-745v-372h559v-186h-559v-559h745v-186h-931v1489zM372 2048h187v-186h-187v186zM559 1862h186v-186h-186v186zM745 2048h186v-186h-186v186z" />
    <glyph glyph-name="ecaron" unicode="&#x11b;" 
d="M372 1117h559v-186h-559v186zM186 931h186v-186h559v186h186v-372h-745v-373h-186v745zM372 186h559v-186h-559v186zM931 372h186v-186h-186v186zM372 1676h187v-187h-187v187zM559 1489h186v-186h-186v186zM745 1676h186v-187h-186v187z" />
    <glyph glyph-name="Gcircumflex" unicode="&#x11c;" 
d="M186 1303h186v-1117h-186v1117zM372 186h559v-186h-559v186zM931 559h-186v186h372v-559h-186v373zM372 1489h559v-186h-559v186zM931 1303h186v-186h-186v186zM372 1862h187v-186h-187v186zM559 2048h186v-186h-186v186zM745 1862h186v-186h-186v186z" />
    <glyph glyph-name="gcircumflex" unicode="&#x11d;" 
d="M372 1117h373v-186h-373v186zM186 931h186v-745h-186v745zM372 186h373v-186h-373v186zM372 -186h559v-186h-559v186zM745 372h186v373h-186v186h186v186h186v-1303h-186v372h-186v186zM372 1489h187v-186h-187v186zM559 1676h186v-187h-186v187zM745 1489h186v-186h-186
v186z" />
    <glyph glyph-name="Gbreve" unicode="&#x11e;" 
d="M186 1303h186v-1117h-186v1117zM372 186h559v-186h-559v186zM931 559h-186v186h372v-559h-186v373zM372 1489h559v-186h-559v186zM931 1303h186v-186h-186v186zM186 2048h186v-186h-186v186zM372 1862h559v-186h-559v186zM931 2048h186v-186h-186v186z" />
    <glyph glyph-name="gbreve" unicode="&#x11f;" 
d="M372 1117h373v-186h-373v186zM186 931h186v-745h-186v745zM372 186h373v-186h-373v186zM372 -186h559v-186h-559v186zM745 372h186v373h-186v186h186v186h186v-1303h-186v372h-186v186zM186 1676h186v-187h-186v187zM372 1489h559v-186h-559v186zM931 1676h186v-187h-186
v187z" />
    <glyph glyph-name="Gdotaccent" unicode="&#x120;" 
d="M186 1303h186v-1117h-186v1117zM372 186h559v-186h-559v186zM931 559h-186v186h372v-559h-186v373zM372 1489h559v-186h-559v186zM931 1303h186v-186h-186v186zM559 1862h186v-186h-186v186z" />
    <glyph glyph-name="gdotaccent" unicode="&#x121;" 
d="M372 1117h373v-186h-373v186zM186 931h186v-745h-186v745zM372 186h373v-186h-373v186zM372 -186h559v-186h-559v186zM745 372h186v373h-186v186h186v186h186v-1303h-186v372h-186v186zM559 1489h186v-186h-186v186z" />
    <glyph glyph-name="uni0122" unicode="&#x122;" 
d="M186 1303h186v-1117h-186v1117zM372 186h559v-186h-559v186zM931 559h-186v186h372v-559h-186v373zM372 1489h559v-186h-559v186zM931 1303h186v-186h-186v186zM559 -186h186v-186h-186v186zM372 -372h187v-187h-187v187z" />
    <glyph glyph-name="uni0123" unicode="&#x123;" 
d="M372 1117h373v-186h-373v186zM186 931h186v-745h-186v745zM372 186h373v-186h-373v186zM372 -186h559v-186h-559v186zM745 372h186v373h-186v186h186v186h186v-1303h-186v372h-186v186zM559 1489h186v-186h-186v186zM745 1676h186v-187h-186v187z" />
    <glyph glyph-name="Hcircumflex" unicode="&#x124;" 
d="M186 1489h186v-558h559v558h186v-1489h-186v745h-559v-745h-186v1489zM372 1862h187v-186h-187v186zM559 2048h186v-186h-186v186zM745 1862h186v-186h-186v186z" />
    <glyph glyph-name="hcircumflex" unicode="&#x125;" 
d="M186 1489h186v-558h187v-186h-187v-745h-186v1489zM931 931h186v-931h-186v931zM559 1117h372v-186h-372v186zM0 1862h186v-186h-186v186zM186 2048h186v-186h-186v186zM372 1862h187v-186h-187v186z" />
    <glyph glyph-name="Hbar" unicode="&#x126;" 
d="M372 1303h559v186h186v-186h186v-186h-186v-1117h-186v745h-559v-745h-186v1117h-186v186h186v186h186v-186zM372 931h559v186h-559v-186z" />
    <glyph glyph-name="hbar" unicode="&#x127;" 
d="M0 1489h745v-186h-373v-372h187v-186h-187v-745h-186v1303h-186v186zM931 931h186v-931h-186v931zM559 1117h372v-186h-372v186z" />
    <glyph glyph-name="Itilde" unicode="&#x128;" 
d="M559 186v1117h-373v186h931v-186h-372v-1117h372v-186h-931v186h373zM372 1862h187v-186h-187v186zM559 2048h186v-186h-186v186zM745 1862h186v-186h-186v186zM931 2048h186v-186h-186v186z" />
    <glyph glyph-name="itilde" unicode="&#x129;" 
d="M559 931h-373v186h559v-931h372v-186h-931v186h373v745zM186 1489h186v-186h-186v186zM372 1676h187v-187h-187v187zM559 1489h186v-186h-186v186zM745 1676h186v-187h-186v187z" />
    <glyph glyph-name="Imacron" unicode="&#x12a;" 
d="M559 186v1117h-373v186h931v-186h-372v-1117h372v-186h-931v186h373zM372 1862h559v-186h-559v186z" />
    <glyph glyph-name="imacron" unicode="&#x12b;" 
d="M559 931h-373v186h559v-931h372v-186h-931v186h373v745zM372 1489h559v-186h-559v186z" />
    <glyph glyph-name="Ibreve" unicode="&#x12c;" 
d="M559 186v1117h-373v186h931v-186h-372v-1117h372v-186h-931v186h373zM186 2048h186v-186h-186v186zM372 1862h559v-186h-559v186zM931 2048h186v-186h-186v186z" />
    <glyph glyph-name="ibreve" unicode="&#x12d;" 
d="M559 931h-373v186h559v-931h372v-186h-931v186h373v745zM186 1676h186v-187h-186v187zM372 1489h559v-186h-559v186zM931 1676h186v-187h-186v187z" />
    <glyph glyph-name="Iogonek" unicode="&#x12e;" 
d="M559 186v1117h-373v186h931v-186h-372v-1117h372v-186h-372v-186h-186v186h-373v186h373zM372 -186h187v-186h-187v186zM559 -372h186v-187h-186v187z" />
    <glyph glyph-name="iogonek" unicode="&#x12f;" 
d="M559 931h-373v186h559v-931h372v-186h-372v-186h-186v186h-373v186h373v745zM372 -186h187v-186h-187v186zM559 -372h186v-187h-186v187z" />
    <glyph glyph-name="Idotaccent" unicode="&#x130;" 
d="M559 186v1117h-373v186h931v-186h-372v-1117h372v-186h-931v186h373zM559 1862h186v-186h-186v186z" />
    <glyph glyph-name="dotlessi" unicode="&#x131;" 
d="M559 931h-373v186h559v-931h372v-186h-931v186h373v745z" />
    <glyph glyph-name="IJ" unicode="&#x132;" 
d="M372 186h-186v186h186v-186zM372 186h559v-186h-559v186zM931 1303h-186v186h372v-1303h-186v1117zM186 1489h186v-744h-186v744z" />
    <glyph glyph-name="ij" unicode="&#x133;" 
d="M186 1117h186v-931h-186v931zM931 1117h186v-1303h-186v372h-186v186h186v745zM372 186h373v-186h-373v186zM559 -186h372v-186h-372v186zM186 1489h186v-186h-186v186zM931 1489h186v-186h-186v186z" />
    <glyph glyph-name="Jcircumflex" unicode="&#x134;" 
d="M372 186h-186v186h186v-186zM372 186h559v-186h-559v186zM931 1303h-372v186h558v-1303h-186v1117zM559 1862h186v-186h-186v186zM745 2048h186v-186h-186v186zM931 1862h186v-186h-186v186z" />
    <glyph glyph-name="jcircumflex" unicode="&#x135;" 
d="M745 931h-373v186h559v-1303h-186v1117zM745 -186v-186h-373v186h373zM372 -186h-186v186h186v-186zM372 1489h187v-186h-187v186zM559 1676h186v-187h-186v187zM745 1489h186v-186h-186v186z" />
    <glyph glyph-name="uni0136" unicode="&#x136;" 
d="M186 1489h186v-558h187v186h186v-372h-373v-745h-186v1489zM931 1489h186v-186h-186v186zM745 1303h186v-186h-186v186zM931 372h-186v373h186v-373zM931 372h186v-372h-186v372zM559 -186h186v-186h-186v186zM372 -372h187v-187h-187v187z" />
    <glyph glyph-name="uni0137" unicode="&#x137;" 
d="M186 1489h186v-930h187v186h186v-373h-373v-372h-186v1489zM931 1117h186v-186h-186v186zM745 931h186v-186h-186v186zM745 372h186v-186h-186v186zM931 186h186v-186h-186v186zM559 -186h186v-186h-186v186zM372 -372h187v-187h-187v187z" />
    <glyph glyph-name="kgreenlandic" unicode="&#x138;" 
d="M186 1117h186v-558h187v186h186v-373h-373v-372h-186v1117zM931 1117h186v-186h-186v186zM745 931h186v-186h-186v186zM745 372h186v-186h-186v186zM931 186h186v-186h-186v186z" />
    <glyph glyph-name="Lacute" unicode="&#x139;" 
d="M186 1489h186v-1303h745v-186h-931v1489zM372 2048h187v-186h-187v186zM186 1862h186v-186h-186v186z" />
    <glyph glyph-name="lacute" unicode="&#x13a;" 
d="M559 1303h-373v186h559v-1303h372v-186h-931v186h373v1117zM745 2048h186v-186h-186v186zM559 1862h186v-186h-186v186z" />
    <glyph glyph-name="uni013B" unicode="&#x13b;" 
d="M186 1489h186v-1303h745v-186h-931v1489zM559 -186h186v-186h-186v186zM372 -372h187v-187h-187v187z" />
    <glyph glyph-name="uni013C" unicode="&#x13c;" 
d="M559 1303h-373v186h559v-1303h372v-186h-931v186h373v1117zM559 -186h186v-186h-186v186zM372 -372h187v-187h-187v187z" />
    <glyph glyph-name="Lcaron" unicode="&#x13d;" 
d="M186 1489h186v-1303h745v-186h-931v1489zM745 1489h186v-186h-186v186zM559 1303h186v-186h-186v186z" />
    <glyph glyph-name="lcaron" unicode="&#x13e;" 
d="M559 1303h-373v186h559v-1303h372v-186h-931v186h373v1117zM1117 1489h186v-186h-186v186zM931 1303h186v-186h-186v186z" />
    <glyph glyph-name="Ldot" unicode="&#x13f;" 
d="M186 1489h186v-1303h745v-186h-931v1489zM745 931h186v-372h-186v372z" />
    <glyph glyph-name="ldot" unicode="&#x140;" 
d="M559 1303h-373v186h559v-1303h372v-186h-931v186h373v1117zM931 931h186v-372h-186v372z" />
    <glyph glyph-name="Lslash" unicode="&#x141;" 
d="M0 559h186v930h186v-558h187v-186h-187v-559h745v-186h-931v372h-186v187zM559 1117h186v-186h-186v186zM745 1303h186v-186h-186v186z" />
    <glyph glyph-name="lslash" unicode="&#x142;" 
d="M372 745h187v558h-373v186h559v-372h186v-186h-186v-745h372v-186h-931v186h373v373h-187v186zM931 1303h186v-186h-186v186zM186 559h186v-187h-186v187z" />
    <glyph glyph-name="Nacute" unicode="&#x143;" 
d="M186 1489h186v-372h187v-186h-187v-931h-186v1489zM931 559h-186v186h186v744h186v-1489h-186v559zM745 745h-186v186h186v-186zM745 2048h186v-186h-186v186zM559 1862h186v-186h-186v186z" />
    <glyph glyph-name="nacute" unicode="&#x144;" 
d="M186 1117h186v-186h187v-186h-187v-745h-186v1117zM559 1117h372v-186h-372v186zM931 931h186v-931h-186v931zM745 1676h186v-187h-186v187zM559 1489h186v-186h-186v186z" />
    <glyph glyph-name="uni0145" unicode="&#x145;" 
d="M186 1489h186v-372h187v-186h-187v-931h-186v1489zM931 559h-186v186h186v744h186v-1489h-186v559zM745 745h-186v186h186v-186zM559 -186h186v-186h-186v186zM372 -372h187v-187h-187v187z" />
    <glyph glyph-name="uni0146" unicode="&#x146;" 
d="M186 1117h186v-186h187v-186h-187v-745h-186v1117zM559 1117h372v-186h-372v186zM931 931h186v-931h-186v931zM559 -186h186v-186h-186v186zM372 -372h187v-187h-187v187z" />
    <glyph glyph-name="Ncaron" unicode="&#x147;" 
d="M186 1489h186v-372h187v-186h-187v-931h-186v1489zM931 559h-186v186h186v744h186v-1489h-186v559zM745 745h-186v186h186v-186zM372 2048h187v-186h-187v186zM559 1862h186v-186h-186v186zM745 2048h186v-186h-186v186z" />
    <glyph glyph-name="ncaron" unicode="&#x148;" 
d="M186 1117h186v-186h187v-186h-187v-745h-186v1117zM559 1117h372v-186h-372v186zM931 931h186v-931h-186v931zM372 1676h187v-187h-187v187zM559 1489h186v-186h-186v186zM745 1676h186v-187h-186v187z" />
    <glyph glyph-name="Eng" unicode="&#x14a;" 
d="M745 -186h186v-186h-186v186zM931 559h-186v186h186v744h186v-1675h-186v745zM186 1489h186v-372h187v-186h-187v-931h-186v1489zM745 745h-186v186h186v-186z" />
    <glyph glyph-name="eng" unicode="&#x14b;" 
d="M745 -186h186v-186h-186v186zM931 931h186v-1117h-186v1117zM186 1117h186v-186h187v-186h-187v-745h-186v1117zM559 1117h372v-186h-372v186z" />
    <glyph glyph-name="Omacron" unicode="&#x14c;" 
d="M186 1303h186v-1117h-186v1117zM372 186h559v-186h-559v186zM931 1303h186v-1117h-186v1117zM372 1489h559v-186h-559v186zM372 1862h559v-186h-559v186z" />
    <glyph glyph-name="omacron" unicode="&#x14d;" 
d="M372 1117h559v-186h-559v186zM931 931h186v-745h-186v745zM186 931h186v-745h-186v745zM372 186h559v-186h-559v186zM372 1489h559v-186h-559v186z" />
    <glyph glyph-name="Obreve" unicode="&#x14e;" 
d="M186 1303h186v-1117h-186v1117zM372 186h559v-186h-559v186zM931 1303h186v-1117h-186v1117zM372 1489h559v-186h-559v186zM186 2048h186v-186h-186v186zM372 1862h559v-186h-559v186zM931 2048h186v-186h-186v186z" />
    <glyph glyph-name="obreve" unicode="&#x14f;" 
d="M372 1117h559v-186h-559v186zM931 931h186v-745h-186v745zM186 931h186v-745h-186v745zM372 186h559v-186h-559v186zM186 1676h186v-187h-186v187zM372 1489h559v-186h-559v186zM931 1676h186v-187h-186v187z" />
    <glyph glyph-name="Ohungarumlaut" unicode="&#x150;" 
d="M186 1303h186v-1117h-186v1117zM372 186h559v-186h-559v186zM931 1303h186v-1117h-186v1117zM372 1489h559v-186h-559v186zM372 2048h187v-372h-187v372zM745 2048h186v-372h-186v372z" />
    <glyph glyph-name="ohungarumlaut" unicode="&#x151;" 
d="M372 1117h559v-186h-559v186zM931 931h186v-745h-186v745zM186 931h186v-745h-186v745zM372 186h559v-186h-559v186zM372 1676h187v-373h-187v373zM745 1676h186v-373h-186v373z" />
    <glyph glyph-name="OE" unicode="&#x152;" 
d="M1303 1489v-186h-558v-372h372v-186h-372v-559h558v-186h-1117v186h373v1117h-373v186h1117zM0 1303h186v-1117h-186v1117z" />
    <glyph glyph-name="oe" unicode="&#x153;" 
d="M0 931h186v-745h-186v745zM559 931h-373v186h373v-186zM559 931h186v-186h372v186h186v-372h-558v-373h-186v745zM1117 1117v-186h-372v186h372zM1117 186v-186h-372v186h372zM1117 372h186v-186h-186v186zM559 186v-186h-373v186h373z" />
    <glyph glyph-name="Racute" unicode="&#x154;" 
d="M186 1489h745v-186h-559v-558h559v-373h-186v187h-373v-559h-186v1489zM931 1303h186v-558h-186v558zM931 372h186v-372h-186v372zM745 2048h186v-186h-186v186zM559 1862h186v-186h-186v186z" />
    <glyph glyph-name="racute" unicode="&#x155;" 
d="M559 1117v-186h186v-186h-186v-559h372v-186h-745v186h186v745h-186v186h373zM1117 1117v-186h-372v186h372zM745 1676h186v-187h-186v187zM559 1489h186v-186h-186v186z" />
    <glyph glyph-name="uni0156" unicode="&#x156;" 
d="M186 1489h745v-186h-559v-558h559v-373h-186v187h-373v-559h-186v1489zM931 1303h186v-558h-186v558zM931 372h186v-372h-186v372zM559 -186h186v-186h-186v186zM372 -372h187v-187h-187v187z" />
    <glyph glyph-name="uni0157" unicode="&#x157;" 
d="M559 1117v-186h186v-186h-186v-559h372v-186h-745v186h186v745h-186v186h373zM1117 1117v-186h-372v186h372zM372 -186h187v-186h-187v186zM186 -372h186v-187h-186v187z" />
    <glyph glyph-name="Rcaron" unicode="&#x158;" 
d="M186 1489h745v-186h-559v-558h559v-373h-186v187h-373v-559h-186v1489zM931 1303h186v-558h-186v558zM931 372h186v-372h-186v372zM372 2048h187v-186h-187v186zM559 1862h186v-186h-186v186zM745 2048h186v-186h-186v186z" />
    <glyph glyph-name="rcaron" unicode="&#x159;" 
d="M559 1117v-186h186v-186h-186v-559h372v-186h-745v186h186v745h-186v186h373zM1117 1117v-186h-372v186h372zM372 1676h187v-187h-187v187zM559 1489h186v-186h-186v186zM745 1676h186v-187h-186v187z" />
    <glyph glyph-name="Sacute" unicode="&#x15a;" 
d="M186 1303h186v-372h-186v372zM372 931h559v-186h-559v186zM931 186v-186h-559v186h559zM372 186h-186v186h186v-186zM931 745h186v-559h-186v559zM372 1489h559v-186h-559v186zM931 1303h186v-186h-186v186zM745 2048h186v-186h-186v186zM559 1862h186v-186h-186v186z
" />
    <glyph glyph-name="sacute" unicode="&#x15b;" 
d="M931 186v-186h-559v186h559zM372 186h-186v186h186v-186zM931 1117v-186h-559v186h559zM186 931h186v-186h-186v186zM372 745h559v-186h-559v186zM931 559h186v-373h-186v373zM931 931h186v-186h-186v186zM745 1676h186v-187h-186v187zM559 1489h186v-186h-186v186z" />
    <glyph glyph-name="Scircumflex" unicode="&#x15c;" 
d="M186 1303h186v-372h-186v372zM372 931h559v-186h-559v186zM931 186v-186h-559v186h559zM372 186h-186v186h186v-186zM931 745h186v-559h-186v559zM372 1489h559v-186h-559v186zM931 1303h186v-186h-186v186zM372 1862h187v-186h-187v186zM559 2048h186v-186h-186v186z
M745 1862h186v-186h-186v186z" />
    <glyph glyph-name="scircumflex" unicode="&#x15d;" 
d="M931 186v-186h-559v186h559zM372 186h-186v186h186v-186zM931 1117v-186h-559v186h559zM186 931h186v-186h-186v186zM372 745h559v-186h-559v186zM931 559h186v-373h-186v373zM931 931h186v-186h-186v186zM372 1489h187v-186h-187v186zM559 1676h186v-187h-186v187z
M745 1489h186v-186h-186v186z" />
    <glyph glyph-name="Scedilla" unicode="&#x15e;" 
d="M186 1303h186v-372h-186v372zM372 931h559v-186h-559v186zM931 186v-186h-186v-186h-186v186h-187v186h559zM372 186h-186v186h186v-186zM931 745h186v-559h-186v559zM372 1489h559v-186h-559v186zM931 1303h186v-186h-186v186zM745 -186h186v-186h-186v186zM559 -372
h186v-187h-186v187z" />
    <glyph glyph-name="scedilla" unicode="&#x15f;" 
d="M931 186v-186h-186v-186h-186v186h-187v186h559zM372 186h-186v186h186v-186zM931 1117v-186h-559v186h559zM186 931h186v-186h-186v186zM372 745h559v-186h-559v186zM931 559h186v-373h-186v373zM931 931h186v-186h-186v186zM745 -186h186v-186h-186v186zM559 -372h186
v-187h-186v187z" />
    <glyph glyph-name="Scaron" unicode="&#x160;" 
d="M186 1303h186v-372h-186v372zM372 931h559v-186h-559v186zM931 186v-186h-559v186h559zM372 186h-186v186h186v-186zM931 745h186v-559h-186v559zM372 1489h559v-186h-559v186zM931 1303h186v-186h-186v186zM372 2048h187v-186h-187v186zM559 1862h186v-186h-186v186z
M745 2048h186v-186h-186v186z" />
    <glyph glyph-name="scaron" unicode="&#x161;" 
d="M931 186v-186h-559v186h559zM372 186h-186v186h186v-186zM931 1117v-186h-559v186h559zM186 931h186v-186h-186v186zM372 745h559v-186h-559v186zM931 559h186v-373h-186v373zM931 931h186v-186h-186v186zM372 1676h187v-187h-187v187zM559 1489h186v-186h-186v186z
M745 1676h186v-187h-186v187z" />
    <glyph glyph-name="uni0162" unicode="&#x162;" 
d="M186 1489h931v-186h-372v-1489h-186v1489h-373v186zM745 -186h186v-186h-186v186zM559 -372h186v-187h-186v187z" />
    <glyph glyph-name="uni0163" unicode="&#x163;" 
d="M372 1489h187v-372h558v-186h-558v-745h-187v745h-186v186h186v372zM559 186h372v-186h-186v-186h-186v372zM931 372h186v-186h-186v186zM745 -186h186v-186h-186v186zM559 -372h186v-187h-186v187z" />
    <glyph glyph-name="Tcaron" unicode="&#x164;" 
d="M186 1489h931v-186h-372v-1303h-186v1303h-373v186zM372 2048h187v-186h-187v186zM559 1862h186v-186h-186v186zM745 2048h186v-186h-186v186z" />
    <glyph glyph-name="tcaron" unicode="&#x165;" 
d="M372 1489h187v-372h558v-186h-558v-745h-187v745h-186v186h186v372zM559 186h372v-186h-372v186zM931 372h186v-186h-186v186zM931 1676h186v-187h-186v187zM745 1489h186v-186h-186v186z" />
    <glyph glyph-name="Tbar" unicode="&#x166;" 
d="M186 1489h931v-186h-372v-372h186v-186h-186v-745h-186v745h-187v186h187v372h-373v186z" />
    <glyph glyph-name="tbar" unicode="&#x167;" 
d="M372 1489h187v-372h558v-186h-558v-186h558v-186h-558v-373h-187v373h-186v186h186v186h-186v186h186v372zM559 186h372v-186h-372v186zM931 372h186v-186h-186v186z" />
    <glyph glyph-name="Utilde" unicode="&#x168;" 
d="M186 1489h186v-1303h-186v1303zM372 186h559v-186h-559v186zM931 1489h186v-1303h-186v1303zM372 1862h187v-186h-187v186zM559 2048h186v-186h-186v186zM745 1862h186v-186h-186v186zM931 2048h186v-186h-186v186z" />
    <glyph glyph-name="utilde" unicode="&#x169;" 
d="M186 1117h186v-931h-186v931zM372 186h373v-186h-373v186zM931 1117h186v-1117h-186v186h-186v186h186v745zM372 1489h187v-186h-187v186zM559 1676h186v-187h-186v187zM745 1489h186v-186h-186v186zM931 1676h186v-187h-186v187z" />
    <glyph glyph-name="Umacron" unicode="&#x16a;" 
d="M186 1489h186v-1303h-186v1303zM372 186h559v-186h-559v186zM931 1489h186v-1303h-186v1303zM372 1862h559v-186h-559v186z" />
    <glyph glyph-name="umacron" unicode="&#x16b;" 
d="M186 1117h186v-931h-186v931zM372 186h373v-186h-373v186zM931 1117h186v-1117h-186v186h-186v186h186v745zM372 1489h559v-186h-559v186z" />
    <glyph glyph-name="Ubreve" unicode="&#x16c;" 
d="M186 1489h186v-1303h-186v1303zM372 186h559v-186h-559v186zM931 1489h186v-1303h-186v1303zM186 2048h186v-186h-186v186zM372 1862h559v-186h-559v186zM931 2048h186v-186h-186v186z" />
    <glyph glyph-name="ubreve" unicode="&#x16d;" 
d="M186 1117h186v-931h-186v931zM372 186h373v-186h-373v186zM931 1117h186v-1117h-186v186h-186v186h186v745zM186 1676h186v-187h-186v187zM372 1489h559v-186h-559v186zM931 1676h186v-187h-186v187z" />
    <glyph glyph-name="Uring" unicode="&#x16e;" 
d="M186 1489h186v-1303h-186v1303zM372 186h559v-186h-559v186zM931 1489h186v-1303h-186v1303zM559 2048h186v-186h-186v186zM372 1862h187v-186h-187v186zM559 1676h186v-187h-186v187zM745 1862h186v-186h-186v186z" />
    <glyph glyph-name="uring" unicode="&#x16f;" 
d="M186 1117h186v-931h-186v931zM372 186h373v-186h-373v186zM931 1117h186v-1117h-186v186h-186v186h186v745zM559 1862h186v-186h-186v186zM372 1676h187v-187h-187v187zM559 1489h186v-186h-186v186zM745 1676h186v-187h-186v187z" />
    <glyph glyph-name="Uhungarumlaut" unicode="&#x170;" 
d="M186 1489h186v-1303h-186v1303zM372 186h559v-186h-559v186zM931 1489h186v-1303h-186v1303zM372 2048h187v-372h-187v372zM745 2048h186v-372h-186v372z" />
    <glyph glyph-name="uhungarumlaut" unicode="&#x171;" 
d="M186 1117h186v-931h-186v931zM372 186h373v-186h-373v186zM931 1117h186v-1117h-186v186h-186v186h186v745zM372 1676h187v-373h-187v373zM745 1676h186v-373h-186v373z" />
    <glyph glyph-name="Uogonek" unicode="&#x172;" 
d="M186 1489h186v-1303h-186v1303zM372 186h559v-186h-186v-186h-186v186h-187v186zM931 1489h186v-1303h-186v1303zM372 -186h187v-186h-187v186zM559 -372h186v-187h-186v187z" />
    <glyph glyph-name="uogonek" unicode="&#x173;" 
d="M186 1117h186v-931h-186v931zM372 186h373v-186h-373v186zM931 1117h186v-1303h-186v372h-186v186h186v745zM745 -186h186v-186h-186v186zM931 -372h186v-187h-186v187z" />
    <glyph glyph-name="Wcircumflex" unicode="&#x174;" 
d="M186 1489h186v-930h-186v930zM372 559h187v-559h-187v559zM931 1489h186v-930h-186v930zM745 559h186v-559h-186v559zM559 931h186v-372h-186v372zM372 1862h187v-186h-187v186zM559 2048h186v-186h-186v186zM745 1862h186v-186h-186v186z" />
    <glyph glyph-name="wcircumflex" unicode="&#x175;" 
d="M186 1117h186v-931h-186v931zM931 1117h186v-1117h-372v186h186v931zM745 186h-186v931h186v-931zM372 186h187v-186h-187v186zM372 1489h187v-186h-187v186zM559 1676h186v-187h-186v187zM745 1489h186v-186h-186v186z" />
    <glyph glyph-name="Ycircumflex" unicode="&#x176;" 
d="M186 1489h186v-558h-186v558zM931 1489h186v-558h-186v558zM559 745h186v-745h-186v745zM372 931h187v-186h-187v186zM745 931h186v-186h-186v186zM372 1862h187v-186h-187v186zM559 2048h186v-186h-186v186zM745 1862h186v-186h-186v186z" />
    <glyph glyph-name="ycircumflex" unicode="&#x177;" 
d="M186 1117h186v-558h-186v558zM931 1117h186v-558h-186v558zM559 186h186v-372h-186v372zM559 -186v-186h-373v186h373zM745 559h186v-373h-186v373zM372 559h187v-373h-187v373zM372 1489h187v-186h-187v186zM559 1676h186v-187h-186v187zM745 1489h186v-186h-186v186z
" />
    <glyph glyph-name="Ydieresis" unicode="&#x178;" 
d="M186 1489h186v-558h-186v558zM931 1489h186v-558h-186v558zM559 745h186v-745h-186v745zM372 931h187v-186h-187v186zM745 931h186v-186h-186v186zM372 1862h187v-186h-187v186zM745 1862h186v-186h-186v186z" />
    <glyph glyph-name="Zacute" unicode="&#x179;" 
d="M372 186h745v-186h-931v559h186v-373zM745 1117h186v-186h-186v186zM372 745h187v-186h-187v186zM1117 1489v-372h-186v186h-745v186h931zM559 931h186v-186h-186v186zM745 2048h186v-186h-186v186zM559 1862h186v-186h-186v186z" />
    <glyph glyph-name="zacute" unicode="&#x17a;" 
d="M186 1117h931v-186h-186v-186h-186v186h-559v186zM559 745h186v-186h-186v186zM372 559h187v-187h-187v187zM186 372h186v-186h745v-186h-931v372zM745 1676h186v-187h-186v187zM559 1489h186v-186h-186v186z" />
    <glyph glyph-name="Zdotaccent" unicode="&#x17b;" 
d="M372 186h745v-186h-931v559h186v-373zM745 1117h186v-186h-186v186zM372 745h187v-186h-187v186zM1117 1489v-372h-186v186h-745v186h931zM559 931h186v-186h-186v186zM559 1862h186v-186h-186v186z" />
    <glyph glyph-name="zdotaccent" unicode="&#x17c;" 
d="M186 1117h931v-186h-186v-186h-186v186h-559v186zM559 745h186v-186h-186v186zM372 559h187v-187h-187v187zM186 372h186v-186h745v-186h-931v372zM559 1489h186v-186h-186v186z" />
    <glyph glyph-name="Zcaron" unicode="&#x17d;" 
d="M372 186h745v-186h-931v559h186v-373zM745 1117h186v-186h-186v186zM372 745h187v-186h-187v186zM1117 1489v-372h-186v186h-745v186h931zM559 931h186v-186h-186v186zM372 2048h187v-186h-187v186zM559 1862h186v-186h-186v186zM745 2048h186v-186h-186v186z" />
    <glyph glyph-name="zcaron" unicode="&#x17e;" 
d="M186 1117h931v-186h-186v-186h-186v186h-559v186zM559 745h186v-186h-186v186zM372 559h187v-187h-187v187zM186 372h186v-186h745v-186h-931v372zM372 1676h187v-187h-187v187zM559 1489h186v-186h-186v186zM745 1676h186v-187h-186v187z" />
    <glyph glyph-name="longs" unicode="&#x17f;" 
d="M559 1303h186v-1117h372v-186h-931v186h373v1117zM745 1489h372v-186h-372v186z" />
    <glyph glyph-name="uni0181" unicode="&#x181;" 
d="M931 1489v-186h-559v-372h559v-186h-559v-559h559v-186h-745v1303h-186v186h931zM931 745h186v-559h-186v559zM931 1303h186v-372h-186v372z" />
    <glyph glyph-name="uni0186" unicode="&#x186;" 
d="M931 1303h186v-1117h-186v1117zM931 186v-186h-559v186h559zM931 1489v-186h-559v186h559zM372 186h-186v186h186v-186zM186 1303h186v-186h-186v186z" />
    <glyph glyph-name="uni0189" unicode="&#x189;" 
d="M931 1489v-186h-559v-372h373v-186h-373v-559h559v-186h-745v745h-186v186h186v558h745zM931 1303h186v-1117h-186v1117z" />
    <glyph glyph-name="uni018A" unicode="&#x18a;" 
d="M931 1489v-186h-559v-1117h559v-186h-745v1303h-186v186h931zM931 1303h186v-1117h-186v1117z" />
    <glyph glyph-name="uni018E" unicode="&#x18e;" 
d="M186 1489h931v-1489h-931v186h745v559h-559v186h559v372h-745v186z" />
    <glyph glyph-name="uni018F" unicode="&#x18f;" 
d="M372 1489h559v-186h-559v186zM931 186v-186h-559v186h559zM372 186h-186v559h745v558h186v-1117h-186v373h-559v-373zM186 1303h186v-186h-186v186z" />
    <glyph glyph-name="uni0190" unicode="&#x190;" 
d="M931 1489v-186h-559v186h559zM931 1303h186v-186h-186v186zM186 1303h186v-372h-186v372zM186 745h186v-559h-186v559zM372 186h559v-186h-559v186zM931 372h186v-186h-186v186zM372 931h373v-186h-373v186z" />
    <glyph glyph-name="uni0191" unicode="&#x191;" 
d="M186 1489h931v-186h-745v-372h559v-186h-559v-931h-186v1675zM0 -186h186v-186h-186v186z" />
    <glyph glyph-name="florin" unicode="&#x192;" 
d="M745 1117h558v-186h-558v-931h-186v931h-187v186h187v186h186v-186zM1303 1489v-186h-558v186h558zM559 0v-186h-373v186h373z" />
    <glyph glyph-name="uni0193" unicode="&#x193;" 
d="M186 1303h186v-1117h-186v1117zM372 186h559v-186h-559v186zM931 559h-186v186h372v-559h-186v373zM372 1489h559v187h186v-559h-186v186h-559v186zM1117 1862h186v-186h-186v186z" />
    <glyph glyph-name="uni0194" unicode="&#x194;" 
d="M186 1489h186v-930h-186v930zM931 1489h186v-930h-186v930zM745 559h186v-373h-186v373zM372 559h187v-373h-187v373zM559 186h186v-372h-186v372zM745 -186h186v-186h-186v186zM372 -186h187v-186h-187v186zM559 -372h186v-187h-186v187z" />
    <glyph glyph-name="uni0197" unicode="&#x197;" 
d="M559 186v559h-187v186h187v372h-373v186h931v-186h-372v-372h186v-186h-186v-559h372v-186h-931v186h373z" />
    <glyph glyph-name="uni0198" unicode="&#x198;" 
d="M1303 1489v-186h-372v186h372zM186 1489h186v-558h187v186h186v-372h-373v-745h-186v1489zM745 1303h186v-186h-186v186zM931 372h-186v373h186v-373zM931 372h186v-372h-186v372z" />
    <glyph glyph-name="uni0199" unicode="&#x199;" 
d="M186 1303h186v-744h187v186h186v-373h-373v-372h-186v1303zM931 1117h186v-186h-186v186zM745 931h186v-186h-186v186zM745 372h186v-186h-186v186zM931 186h186v-186h-186v186zM372 1489h373v-186h-373v186z" />
    <glyph glyph-name="uni019D" unicode="&#x19d;" 
d="M0 -186h186v-186h-186v186zM186 1489h186v-372h187v-186h-187v-1117h-186v1675zM931 559h-186v186h186v744h186v-1489h-186v559zM745 745h-186v186h186v-186z" />
    <glyph glyph-name="Uhorn" unicode="&#x1af;" 
d="M186 1489h186v-1303h-186v1303zM372 186h559v-186h-559v186zM931 1489h186v-1303h-186v1303zM1117 1862h186v-373h-186v373z" />
    <glyph glyph-name="uhorn" unicode="&#x1b0;" 
d="M186 1117h186v-931h-186v931zM372 186h373v-186h-373v186zM931 1117h186v-1117h-186v186h-186v186h186v745zM1117 1303h186v-186h-186v186z" />
    <glyph glyph-name="uni01B2" unicode="&#x1b2;" 
d="M372 186h-186v1303h186v-1303zM372 186h559v-186h-559v186zM931 1303h186v-1117h-186v1117zM931 1303h-186v186h186v-186z" />
    <glyph glyph-name="uni01B3" unicode="&#x1b3;" 
d="M186 1489h186v-558h-186v558zM931 1303h186v-372h-186v372zM559 745h186v-745h-186v745zM372 931h187v-186h-187v186zM745 931h186v-186h-186v186zM1117 1489h186v-186h-186v186z" />
    <glyph glyph-name="uni01B4" unicode="&#x1b4;" 
d="M186 1117h186v-558h-186v558zM931 931h186v-372h-186v372zM559 186h186v-372h-186v372zM559 -186v-186h-373v186h373zM745 559h186v-373h-186v373zM372 559h187v-373h-187v373zM1117 1117h186v-186h-186v186z" />
    <glyph glyph-name="uni01C0" unicode="&#x1c0;" 
d="M559 1676h186v-1862h-186v1862z" />
    <glyph glyph-name="uni01C1" unicode="&#x1c1;" 
d="M745 1676h186v-1862h-186v1862zM372 1676h187v-1862h-187v1862z" />
    <glyph glyph-name="uni01C2" unicode="&#x1c2;" 
d="M559 372h-373v187h373v372h-373v186h373v559h186v-559h372v-186h-372v-372h372v-187h-372v-558h-186v558z" />
    <glyph glyph-name="uni01C3" unicode="&#x1c3;" 
d="M559 1489h186v-1117h-186v1117zM559 186h186v-186h-186v186z" />
    <glyph glyph-name="uni01CD" unicode="&#x1cd;" 
d="M186 1117h186v-372h559v372h186v-1117h-186v559h-559v-559h-186v1117zM559 1489h186v-186h-186v186zM372 1303h187v-186h-187v186zM745 1303h186v-186h-186v186zM372 2048h187v-186h-187v186zM559 1862h186v-186h-186v186zM745 2048h186v-186h-186v186z" />
    <glyph glyph-name="uni01CE" unicode="&#x1ce;" 
d="M186 559h186v-373h-186v373zM372 186h373v-186h-373v186zM745 372h186v187h-559v186h559v186h186v-931h-186v186h-186v186zM372 1117h559v-186h-559v186zM372 1676h187v-187h-187v187zM559 1489h186v-186h-186v186zM745 1676h186v-187h-186v187z" />
    <glyph glyph-name="uni01CF" unicode="&#x1cf;" 
d="M559 186v1117h-373v186h931v-186h-372v-1117h372v-186h-931v186h373zM372 2048h187v-186h-187v186zM559 1862h186v-186h-186v186zM745 2048h186v-186h-186v186z" />
    <glyph glyph-name="uni01D0" unicode="&#x1d0;" 
d="M559 931h-373v186h559v-931h372v-186h-931v186h373v745zM372 1676h187v-187h-187v187zM559 1489h186v-186h-186v186zM745 1676h186v-187h-186v187z" />
    <glyph glyph-name="uni01D1" unicode="&#x1d1;" 
d="M186 1303h186v-1117h-186v1117zM372 186h559v-186h-559v186zM931 1303h186v-1117h-186v1117zM372 1489h559v-186h-559v186zM372 2048h187v-186h-187v186zM559 1862h186v-186h-186v186zM745 2048h186v-186h-186v186z" />
    <glyph glyph-name="uni01D2" unicode="&#x1d2;" 
d="M372 1117h559v-186h-559v186zM931 931h186v-745h-186v745zM186 931h186v-745h-186v745zM372 186h559v-186h-559v186zM372 1676h187v-187h-187v187zM559 1489h186v-186h-186v186zM745 1676h186v-187h-186v187z" />
    <glyph glyph-name="uni01D3" unicode="&#x1d3;" 
d="M186 1489h186v-1303h-186v1303zM372 186h559v-186h-559v186zM931 1489h186v-1303h-186v1303zM372 2048h187v-186h-187v186zM559 1862h186v-186h-186v186zM745 2048h186v-186h-186v186z" />
    <glyph glyph-name="uni01D4" unicode="&#x1d4;" 
d="M186 1117h186v-931h-186v931zM372 186h373v-186h-373v186zM931 1117h186v-1117h-186v186h-186v186h186v745zM372 1676h187v-187h-187v187zM559 1489h186v-186h-186v186zM745 1676h186v-187h-186v187z" />
    <glyph glyph-name="uni01DD" unicode="&#x1dd;" 
d="M931 559v372h186v-745h-186v186h-559v-186h-186v373h745zM372 186h559v-186h-559v186zM931 931h-559v186h559v-186zM186 931h186v-186h-186v186z" />
    <glyph glyph-name="Gcaron" unicode="&#x1e6;" 
d="M186 1303h186v-1117h-186v1117zM372 186h559v-186h-559v186zM931 559h-186v186h372v-559h-186v373zM372 1489h559v-186h-559v186zM931 1303h186v-186h-186v186zM372 2048h187v-186h-187v186zM559 1862h186v-186h-186v186zM745 2048h186v-186h-186v186z" />
    <glyph glyph-name="gcaron" unicode="&#x1e7;" 
d="M372 1117h373v-186h-373v186zM186 931h186v-745h-186v745zM372 186h373v-186h-373v186zM372 -186h559v-186h-559v186zM745 372h186v373h-186v186h186v186h186v-1303h-186v372h-186v186zM372 1676h187v-187h-187v187zM559 1489h186v-186h-186v186zM745 1676h186v-187h-186
v187z" />
    <glyph glyph-name="uni01EA" unicode="&#x1ea;" 
d="M186 1303h186v-1117h-186v1117zM372 186h559v-186h-186v-186h-186v186h-187v186zM931 1303h186v-1117h-186v1117zM372 1489h559v-186h-559v186zM372 -186h187v-186h-187v186zM559 -372h186v-187h-186v187z" />
    <glyph glyph-name="uni01EB" unicode="&#x1eb;" 
d="M372 1117h559v-186h-559v186zM931 931h186v-745h-186v745zM186 931h186v-745h-186v745zM372 186h559v-186h-186v-186h-186v186h-187v186zM372 -186h187v-186h-187v186zM559 -372h186v-187h-186v187z" />
    <glyph glyph-name="uni01F8" unicode="&#x1f8;" 
d="M186 1489h186v-372h187v-186h-187v-931h-186v1489zM931 559h-186v186h186v744h186v-1489h-186v559zM745 745h-186v186h186v-186zM372 2048h187v-186h-187v186zM559 1862h186v-186h-186v186z" />
    <glyph glyph-name="uni01F9" unicode="&#x1f9;" 
d="M186 1117h186v-186h187v-186h-187v-745h-186v1117zM559 1117h372v-186h-372v186zM931 931h186v-931h-186v931zM372 1676h187v-187h-187v187zM559 1489h186v-186h-186v186z" />
    <glyph glyph-name="Aringacute" unicode="&#x1fa;" 
d="M186 1117h186v-372h559v372h186v-1117h-186v559h-559v-559h-186v1117zM559 1676h186v-373h-186v373zM372 1303h187v-186h-187v186zM745 1303h186v-186h-186v186zM1117 2048v-186h-186v-186h-186v186h-186v186h558zM372 1862h187v-186h-187v186z" />
    <glyph glyph-name="aringacute" unicode="&#x1fb;" 
d="M186 559h186v-373h-186v373zM372 186h373v-186h-373v186zM745 372h186v187h-559v186h559v186h186v-931h-186v186h-186v186zM372 1117h559v-186h-559v186zM1117 1862v-186h-186v-187h-186v187h-186v186h558zM372 1676h187v-187h-187v187zM559 1489h186v-186h-186v186z" />
    <glyph glyph-name="AEacute" unicode="&#x1fc;" 
d="M1303 1489v-186h-558v-372h372v-186h-372v-559h558v-186h-744v559h-373v-559h-186v1117h186v-372h373v558h-187v186h931zM186 1303h186v-186h-186v186zM745 2048h186v-186h-186v186zM559 1862h186v-186h-186v186z" />
    <glyph glyph-name="aeacute" unicode="&#x1fd;" 
d="M559 931h-373v186h373v-186zM559 931h186v-186h372v186h186v-372h-558v-373h-186v373h-373v186h373v186zM0 559h186v-373h-186v373zM186 186h373v-186h-373v186zM1117 931h-372v186h372v-186zM1117 372h186v-186h-186v186zM745 186h372v-186h-372v186zM745 1676h186v-187
h-186v187zM559 1489h186v-186h-186v186z" />
    <glyph glyph-name="Oslashacute" unicode="&#x1fe;" 
d="M372 1489h559v-186h-559v186zM931 1303h186v-1117h-186v745h-186v186h186v186zM186 1303h186v-558h187v-186h-187v-373h-372v186h186v931zM931 186v-186h-559v186h559zM1117 1489h186v-186h-186v186zM559 931h186v-186h-186v186zM745 2048h186v-186h-186v186zM559 1862
h186v-186h-186v186z" />
    <glyph glyph-name="oslashacute" unicode="&#x1ff;" 
d="M559 559h186v-187h-186v187zM745 745h186v186h186v-745h-186v373h-186v186zM0 0h186v-186h-186v186zM1117 1117h186v-186h-186v186zM372 372h187v-186h372v-186h-745v931h186v-559zM372 1117h559v-186h-559v186zM745 1676h186v-187h-186v187zM559 1489h186v-186h-186v186
z" />
    <glyph glyph-name="uni0218" unicode="&#x218;" 
d="M186 1303h186v-372h-186v372zM372 931h559v-186h-559v186zM931 186v-186h-559v186h559zM372 186h-186v186h186v-186zM931 745h186v-559h-186v559zM372 1489h559v-186h-559v186zM931 1303h186v-186h-186v186zM559 -186h186v-186h-186v186zM372 -372h187v-187h-187v187z
" />
    <glyph glyph-name="uni0219" unicode="&#x219;" 
d="M931 186v-186h-559v186h559zM372 186h-186v186h186v-186zM931 1117v-186h-559v186h559zM186 931h186v-186h-186v186zM372 745h559v-186h-559v186zM931 559h186v-373h-186v373zM931 931h186v-186h-186v186zM559 -186h186v-186h-186v186zM372 -372h187v-187h-187v187z" />
    <glyph glyph-name="uni021A" unicode="&#x21a;" 
d="M186 1489h931v-186h-372v-1303h-186v1303h-373v186zM559 -186h186v-186h-186v186zM372 -372h187v-187h-187v187z" />
    <glyph glyph-name="uni021B" unicode="&#x21b;" 
d="M372 1489h187v-372h558v-186h-558v-745h-187v745h-186v186h186v372zM559 186h372v-186h-372v186zM931 372h186v-186h-186v186zM559 -186h186v-186h-186v186zM372 -372h187v-187h-187v187z" />
    <glyph glyph-name="uni021E" unicode="&#x21e;" 
d="M186 1489h186v-558h559v558h186v-1489h-186v745h-559v-745h-186v1489zM372 2048h187v-186h-187v186zM559 1862h186v-186h-186v186zM745 2048h186v-186h-186v186z" />
    <glyph glyph-name="uni021F" unicode="&#x21f;" 
d="M186 1489h186v-558h187v-186h-187v-745h-186v1489zM931 931h186v-931h-186v931zM559 1117h372v-186h-372v186zM0 2048h186v-186h-186v186zM186 1862h186v-186h-186v186zM372 2048h187v-186h-187v186z" />
    <glyph glyph-name="uni0232" unicode="&#x232;" 
d="M186 1489h186v-558h-186v558zM931 1489h186v-558h-186v558zM559 745h186v-745h-186v745zM372 931h187v-186h-187v186zM745 931h186v-186h-186v186zM372 1862h559v-186h-559v186z" />
    <glyph glyph-name="uni0233" unicode="&#x233;" 
d="M186 1117h186v-558h-186v558zM931 1117h186v-558h-186v558zM559 186h186v-372h-186v372zM559 -186v-186h-373v186h373zM745 559h186v-373h-186v373zM372 559h187v-373h-187v373zM372 1489h559v-186h-559v186z" />
    <glyph glyph-name="uni0237" unicode="&#x237;" 
d="M745 931h-373v186h559v-1303h-186v1117zM745 -186v-186h-373v186h373zM372 -186h-186v186h186v-186z" />
    <glyph glyph-name="uni0244" unicode="&#x244;" 
d="M186 1489h186v-558h559v558h186v-558h186v-186h-186v-559h-186v559h-559v-559h-186v559h-186v186h186v558zM372 186h559v-186h-559v186z" />
    <glyph glyph-name="uni0253" unicode="&#x253;" 
d="M186 1303h186v-372h187v-186h-187v-373h187v-186h-187v-186h-186v1303zM559 186h372v-186h-372v186zM931 931h186v-745h-186v745zM559 1117h372v-186h-372v186zM372 1489h373v-186h-373v186z" />
    <glyph glyph-name="uni0254" unicode="&#x254;" 
d="M931 931h-559v186h559v-186zM931 931h186v-745h-186v745zM931 186v-186h-559v186h559zM372 186h-186v186h186v-186zM186 931h186v-186h-186v186z" />
    <glyph glyph-name="uni0256" unicode="&#x256;" 
d="M931 186h-186v186h186v373h-186v186h186v558h186v-1675h-186v372zM1117 -186h186v-186h-186v186zM745 186v-186h-373v186h373zM372 186h-186v745h186v-745zM745 931h-373v186h373v-186z" />
    <glyph glyph-name="uni0257" unicode="&#x257;" 
d="M931 1303h186v-1303h-186v186h-186v186h186v373h-186v186h186v372zM745 186v-186h-373v186h373zM372 186h-186v745h186v-745zM745 931h-373v186h373v-186zM1117 1489h186v-186h-186v186z" />
    <glyph glyph-name="uni0259" unicode="&#x259;" 
d="M931 559v372h186v-745h-186v186h-559v-186h-186v373h745zM372 186h559v-186h-559v186zM931 931h-559v186h559v-186zM186 931h186v-186h-186v186z" />
    <glyph glyph-name="uni025B" unicode="&#x25b;" 
d="M186 931h186v-186h-186v186zM372 1117h559v-186h-559v186zM372 745h373v-186h-373v186zM186 559h186v-373h-186v373zM372 186h559v-186h-559v186zM931 931h186v-186h-186v186zM931 372h186v-186h-186v186z" />
    <glyph glyph-name="uni0260" unicode="&#x260;" 
d="M372 1117h373v-186h-373v186zM186 931h186v-745h-186v745zM372 186h373v-186h-373v186zM372 -186h559v-186h-559v186zM745 372h186v373h-186v186h186v372h186v-1489h-186v372h-186v186zM1117 1489h186v-186h-186v186z" />
    <glyph glyph-name="uni0263" unicode="&#x263;" 
d="M186 1117h186v-558h-186v558zM931 1117h186v-558h-186v558zM745 559h186v-373h-186v373zM372 559h187v-373h-187v373zM559 186h186v-372h-186v372zM372 -186h187v-186h-187v186zM745 -186h186v-186h-186v186zM559 -372h186v-187h-186v187z" />
    <glyph glyph-name="uni0268" unicode="&#x268;" 
d="M559 745v186h-373v186h559v-372h372v-186h-372v-373h372v-186h-931v186h373v373h-373v186h373zM559 1489h186v-186h-186v186z" />
    <glyph glyph-name="uni0272" unicode="&#x272;" 
d="M0 -186h186v-186h-186v186zM186 1117h186v-186h187v-186h-187v-931h-186v1303zM559 1117h372v-186h-372v186zM931 931h186v-931h-186v931z" />
    <glyph glyph-name="uni027C" unicode="&#x27c;" 
d="M559 1117v-186h186v-186h-186v-931h372v-186h-745v186h186v1117h-186v186h373zM1117 1117v-186h-372v186h372z" />
    <glyph glyph-name="uni0289" unicode="&#x289;" 
d="M186 1117h186v-372h559v372h186v-372h186v-186h-186v-559h-186v186h-186v186h186v187h-559v-373h-186v373h-186v186h186v372zM372 186h373v-186h-373v186z" />
    <glyph glyph-name="uni028B" unicode="&#x28b;" 
d="M186 1117h186v-931h-186v931zM931 186v-186h-559v186h559zM931 931h-186v186h186v-186zM931 931h186v-745h-186v745z" />
    <glyph glyph-name="uni0294" unicode="&#x294;" 
d="M559 745h186v-745h-186v745zM931 1303h-559v186h559v-186zM931 1303h186v-372h-186v372zM745 931h186v-186h-186v186zM186 1303h186v-186h-186v186z" />
    <glyph glyph-name="uni02BB" unicode="&#x2bb;" 
d="M559 1303h186v-372h-186v372zM745 1489h186v-186h-186v186z" />
    <glyph glyph-name="uni02BC" unicode="&#x2bc;" 
d="M559 1489h186v-372h-186v372zM372 1117h187v-186h-187v186z" />
    <glyph glyph-name="circumflex" unicode="&#x2c6;" 
d="M372 1489h187v-186h-187v186zM559 1676h186v-187h-186v187zM745 1489h186v-186h-186v186z" />
    <glyph glyph-name="caron" unicode="&#x2c7;" 
d="M372 1676h187v-187h-187v187zM559 1489h186v-186h-186v186zM745 1676h186v-187h-186v187z" />
    <glyph glyph-name="breve" unicode="&#x2d8;" 
d="M186 1676h186v-187h-186v187zM372 1489h559v-186h-559v186zM931 1676h186v-187h-186v187z" />
    <glyph glyph-name="dotaccent" unicode="&#x2d9;" 
d="M559 1489h186v-186h-186v186z" />
    <glyph glyph-name="ring" unicode="&#x2da;" 
d="M559 1862h186v-186h-186v186zM372 1676h187v-187h-187v187zM559 1489h186v-186h-186v186zM745 1676h186v-187h-186v187z" />
    <glyph glyph-name="ogonek" unicode="&#x2db;" 
d="M559 0h186v-186h-186v186zM372 -186h187v-186h-187v186zM559 -372h186v-187h-186v187z" />
    <glyph glyph-name="tilde" unicode="&#x2dc;" 
d="M372 1489h187v-186h-187v186zM559 1676h186v-187h-186v187zM745 1489h186v-186h-186v186zM931 1676h186v-187h-186v187z" />
    <glyph glyph-name="hungarumlaut" unicode="&#x2dd;" 
d="M372 1676h187v-373h-187v373zM745 1676h186v-373h-186v373z" />
    <glyph glyph-name="gravecomb" unicode="&#x300;" 
d="M372 1676h187v-187h-187v187zM559 1489h186v-186h-186v186z" />
    <glyph glyph-name="acutecomb" unicode="&#x301;" 
d="M745 1676h186v-187h-186v187zM559 1489h186v-186h-186v186z" />
    <glyph glyph-name="uni0302" unicode="&#x302;" 
d="M372 1489h187v-186h-187v186zM559 1676h186v-187h-186v187zM745 1489h186v-186h-186v186z" />
    <glyph glyph-name="tildecomb" unicode="&#x303;" 
d="M372 1489h187v-186h-187v186zM559 1676h186v-187h-186v187zM745 1489h186v-186h-186v186zM931 1676h186v-187h-186v187z" />
    <glyph glyph-name="uni0304" unicode="&#x304;" 
d="M372 1489h559v-186h-559v186z" />
    <glyph glyph-name="uni0306" unicode="&#x306;" 
d="M186 1676h186v-187h-186v187zM372 1489h559v-186h-559v186zM931 1676h186v-187h-186v187z" />
    <glyph glyph-name="uni0307" unicode="&#x307;" 
d="M559 1489h186v-186h-186v186z" />
    <glyph glyph-name="uni0308" unicode="&#x308;" 
d="M372 1489h187v-186h-187v186zM745 1489h186v-186h-186v186z" />
    <glyph glyph-name="uni030A" unicode="&#x30a;" 
d="M559 1862h186v-186h-186v186zM372 1676h187v-187h-187v187zM559 1489h186v-186h-186v186zM745 1676h186v-187h-186v187z" />
    <glyph glyph-name="uni030B" unicode="&#x30b;" 
d="M372 1676h187v-373h-187v373zM745 1676h186v-373h-186v373z" />
    <glyph glyph-name="uni030C" unicode="&#x30c;" 
d="M372 1676h187v-187h-187v187zM559 1489h186v-186h-186v186zM745 1676h186v-187h-186v187z" />
    <glyph glyph-name="uni0312" unicode="&#x312;" 
d="M559 1489h186v-186h-186v186zM745 1676h186v-187h-186v187z" />
    <glyph glyph-name="dotbelowcomb" unicode="&#x323;" 
d="M559 -186h186v-186h-186v186z" />
    <glyph glyph-name="uni0326" unicode="&#x326;" 
d="M559 -186h186v-186h-186v186zM372 -372h187v-187h-187v187z" />
    <glyph glyph-name="uni0327" unicode="&#x327;" 
d="M559 0h186v-186h-186v186zM745 -186h186v-186h-186v186zM559 -372h186v-187h-186v187z" />
    <glyph glyph-name="uni0328" unicode="&#x328;" 
d="M559 0h186v-186h-186v186zM372 -186h187v-186h-187v186zM559 -372h186v-187h-186v187z" />
    <glyph glyph-name="uni032E" unicode="&#x32e;" 
d="M186 -186h186v-186h-186v186zM372 -372h559v-187h-559v187zM931 -186h186v-186h-186v186z" />
    <glyph glyph-name="uni037A" unicode="&#x37a;" 
d="M559 0h186v-372h-186v372zM745 -372h372v-187h-372v187z" />
    <glyph glyph-name="tonos" unicode="&#x384;" 
d="M745 1676h186v-187h-186v187zM559 1489h186v-186h-186v186z" />
    <glyph glyph-name="dieresistonos" unicode="&#x385;" 
d="M186 1489h186v-186h-186v186zM931 1489h186v-186h-186v186zM745 1862h186v-186h-186v186zM559 1676h186v-187h-186v187z" />
    <glyph glyph-name="Alphatonos" unicode="&#x386;" 
d="M372 1862h187v-186h-187v186zM186 1676h186v-187h-186v187zM186 1117h186v-372h559v372h186v-1117h-186v559h-559v-559h-186v1117zM559 1489h186v-186h-186v186zM372 1303h187v-186h-187v186zM745 1303h186v-186h-186v186z" />
    <glyph glyph-name="Epsilontonos" unicode="&#x388;" 
d="M186 1862h186v-186h-186v186zM0 1676h186v-187h-186v187zM186 1489h931v-186h-745v-372h559v-186h-559v-559h745v-186h-931v1489z" />
    <glyph glyph-name="Etatonos" unicode="&#x389;" 
d="M186 1862h186v-186h-186v186zM0 1676h186v-187h-186v187zM186 1489h186v-558h559v558h186v-1489h-186v745h-559v-745h-186v1489z" />
    <glyph glyph-name="Iotatonos" unicode="&#x38a;" 
d="M186 1862h186v-186h-186v186zM0 1676h186v-187h-186v187zM559 186v1117h-373v186h931v-186h-372v-1117h372v-186h-931v186h373z" />
    <glyph glyph-name="Omicrontonos" unicode="&#x38c;" 
d="M186 1862h186v-186h-186v186zM0 1676h186v-187h-186v187zM186 1303h186v-1117h-186v1117zM372 186h559v-186h-559v186zM931 1303h186v-1117h-186v1117zM372 1489h559v-186h-559v186z" />
    <glyph glyph-name="Upsilontonos" unicode="&#x38e;" 
d="M186 1862h186v-186h-186v186zM0 1676h186v-187h-186v187zM186 1489h186v-558h-186v558zM931 1489h186v-558h-186v558zM559 745h186v-745h-186v745zM372 931h187v-186h-187v186zM745 931h186v-186h-186v186z" />
    <glyph glyph-name="Omegatonos" unicode="&#x38f;" 
d="M186 1862h186v-186h-186v186zM0 1676h186v-187h-186v187zM186 1303h186v-931h-186v931zM931 1303h186v-931h-186v931zM186 186h186v186h187v-372h-373v186zM931 186h186v-186h-372v372h186v-186zM931 1489v-186h-559v186h559z" />
    <glyph glyph-name="iotadieresistonos" unicode="&#x390;" 
d="M559 931h-373v186h559v-931h-186v745zM745 186h372v-186h-372v186zM186 1489h186v-186h-186v186zM931 1489h186v-186h-186v186zM745 1862h186v-186h-186v186zM559 1676h186v-187h-186v187z" />
    <glyph glyph-name="Alpha" unicode="&#x391;" 
d="M186 1117h186v-372h559v372h186v-1117h-186v559h-559v-559h-186v1117zM559 1489h186v-186h-186v186zM372 1303h187v-186h-187v186zM745 1303h186v-186h-186v186z" />
    <glyph glyph-name="Beta" unicode="&#x392;" 
d="M186 1489h745v-186h-559v-372h559v-186h-559v-559h559v-186h-745v1489zM931 745h186v-559h-186v559zM931 1303h186v-372h-186v372z" />
    <glyph glyph-name="Gamma" unicode="&#x393;" 
d="M186 1489h931v-372h-186v186h-559v-1303h-186v1489z" />
    <glyph glyph-name="uni0394" unicode="&#x394;" 
d="M186 559h186v-373h559v373h186v-559h-931v559zM372 1117h187v-558h-187v558zM559 1489h186v-372h-186v372zM745 1117h186v-558h-186v558z" />
    <glyph glyph-name="Epsilon" unicode="&#x395;" 
d="M186 1489h931v-186h-745v-372h559v-186h-559v-559h745v-186h-931v1489z" />
    <glyph glyph-name="Zeta" unicode="&#x396;" 
d="M372 186h745v-186h-931v559h186v-373zM745 1117h186v-186h-186v186zM372 745h187v-186h-187v186zM1117 1489v-372h-186v186h-745v186h931zM559 931h186v-186h-186v186z" />
    <glyph glyph-name="Eta" unicode="&#x397;" 
d="M186 1489h186v-558h559v558h186v-1489h-186v745h-559v-745h-186v1489z" />
    <glyph glyph-name="Theta" unicode="&#x398;" 
d="M186 1303h186v-372h559v372h186v-1117h-186v559h-559v-559h-186v1117zM372 186h559v-186h-559v186zM372 1489h559v-186h-559v186z" />
    <glyph glyph-name="Iota" unicode="&#x399;" 
d="M559 186v1117h-373v186h931v-186h-372v-1117h372v-186h-931v186h373z" />
    <glyph glyph-name="Kappa" unicode="&#x39a;" 
d="M186 1489h186v-558h187v186h186v-372h-373v-745h-186v1489zM931 1489h186v-186h-186v186zM745 1303h186v-186h-186v186zM931 372h-186v373h186v-373zM931 372h186v-372h-186v372z" />
    <glyph glyph-name="Lambda" unicode="&#x39b;" 
d="M559 1489h186v-372h-186v372zM372 1117h187v-372h-187v372zM745 1117h186v-372h-186v372zM931 745h186v-745h-186v745zM186 745h186v-745h-186v745z" />
    <glyph glyph-name="Mu" unicode="&#x39c;" 
d="M186 1489h186v-372h187v-186h-187v-931h-186v1489zM931 931h-186v186h186v372h186v-1489h-186v931zM559 931h186v-372h-186v372z" />
    <glyph glyph-name="Nu" unicode="&#x39d;" 
d="M186 1489h186v-372h187v-186h-187v-931h-186v1489zM931 559h-186v186h186v744h186v-1489h-186v559zM745 745h-186v186h186v-186z" />
    <glyph glyph-name="Xi" unicode="&#x39e;" 
d="M186 1489h931v-186h-931v186zM186 186h931v-186h-931v186zM931 931v-186h-559v186h559z" />
    <glyph glyph-name="Omicron" unicode="&#x39f;" 
d="M186 1303h186v-1117h-186v1117zM372 186h559v-186h-559v186zM931 1303h186v-1117h-186v1117zM372 1489h559v-186h-559v186z" />
    <glyph glyph-name="Pi" unicode="&#x3a0;" 
d="M1117 1489v-1489h-186v1303h-559v-1303h-186v1489h931z" />
    <glyph glyph-name="Rho" unicode="&#x3a1;" 
d="M186 1489h745v-186h-559v-558h559v-186h-559v-559h-186v1489zM931 1303h186v-558h-186v558z" />
    <glyph glyph-name="Sigma" unicode="&#x3a3;" 
d="M186 1489h931v-372h-186v186h-559v-186h-186v372zM372 745h187v-186h-187v186zM186 559h186v-373h559v186h186v-372h-931v559zM372 1117h187v-186h-187v186zM559 931h186v-186h-186v186z" />
    <glyph glyph-name="Tau" unicode="&#x3a4;" 
d="M186 1489h931v-186h-372v-1303h-186v1303h-373v186z" />
    <glyph glyph-name="Upsilon" unicode="&#x3a5;" 
d="M186 1489h186v-558h-186v558zM931 1489h186v-558h-186v558zM559 745h186v-745h-186v745zM372 931h187v-186h-187v186zM745 931h186v-186h-186v186z" />
    <glyph glyph-name="Phi" unicode="&#x3a6;" 
d="M186 1117h186v-745h-186v745zM372 1303h187v186h186v-186h186v-186h-186v-745h186v-186h-186v-186h-186v186h-187v186h187v745h-187v186zM931 1117h186v-745h-186v745z" />
    <glyph glyph-name="Chi" unicode="&#x3a7;" 
d="M931 559h186v-559h-186v559zM186 559h186v-559h-186v559zM559 931h-187v186h187v-186zM559 931h186v-186h-186v186zM745 1117h186v-186h-186v186zM372 1117h-186v372h186v-372zM372 745h187v-186h-187v186zM931 1489h186v-372h-186v372zM745 745h186v-186h-186v186z" />
    <glyph glyph-name="Psi" unicode="&#x3a8;" 
d="M559 1489h186v-930h186v-187h-186v-372h-186v372h-187v187h187v930zM372 559h-186v930h186v-930zM931 1489h186v-930h-186v930z" />
    <glyph glyph-name="uni03A9" unicode="&#x3a9;" 
d="M186 1303h186v-931h-186v931zM931 1303h186v-931h-186v931zM186 186h186v186h187v-372h-373v186zM931 186h186v-186h-372v372h186v-186zM931 1489v-186h-559v186h559z" />
    <glyph glyph-name="Iotadieresis" unicode="&#x3aa;" 
d="M559 186v1117h-373v186h931v-186h-372v-1117h372v-186h-931v186h373zM372 1862h187v-186h-187v186zM745 1862h186v-186h-186v186z" />
    <glyph glyph-name="Upsilondieresis" unicode="&#x3ab;" 
d="M186 1489h186v-558h-186v558zM931 1489h186v-558h-186v558zM559 745h186v-745h-186v745zM372 931h187v-186h-187v186zM745 931h186v-186h-186v186zM372 1862h187v-186h-187v186zM745 1862h186v-186h-186v186z" />
    <glyph glyph-name="alphatonos" unicode="&#x3ac;" 
d="M372 1117h373v-186h-373v186zM186 931h186v-745h-186v745zM745 931h186v186h186v-372h-186v-373h186v-372h-186v186h-186v745zM372 186h373v-186h-373v186zM745 1676h186v-187h-186v187zM559 1489h186v-186h-186v186z" />
    <glyph glyph-name="epsilontonos" unicode="&#x3ad;" 
d="M186 931h186v-186h-186v186zM372 1117h559v-186h-559v186zM372 745h373v-186h-373v186zM186 559h186v-373h-186v373zM372 186h559v-186h-559v186zM931 931h186v-186h-186v186zM931 372h186v-186h-186v186zM745 1676h186v-187h-186v187zM559 1489h186v-186h-186v186z" />
    <glyph glyph-name="etatonos" unicode="&#x3ae;" 
d="M186 1117h186v-186h187v-186h-187v-745h-186v1117zM559 1117h372v-186h-372v186zM931 931h186v-1303h-186v1303zM745 1676h186v-187h-186v187zM559 1489h186v-186h-186v186z" />
    <glyph glyph-name="iotatonos" unicode="&#x3af;" 
d="M559 931h-373v186h559v-931h-186v745zM745 186h372v-186h-372v186zM745 1676h186v-187h-186v187zM559 1489h186v-186h-186v186z" />
    <glyph glyph-name="upsilondieresistonos" unicode="&#x3b0;" 
d="M186 1489h186v-186h-186v186zM931 1489h186v-186h-186v186zM745 1862h186v-186h-186v186zM559 1676h186v-187h-186v187zM186 1117h186v-931h-186v931zM372 186h559v-186h-559v186zM931 931h-186v186h186v-186zM931 931h186v-745h-186v745z" />
    <glyph glyph-name="alpha" unicode="&#x3b1;" 
d="M372 1117h373v-186h-373v186zM186 931h186v-745h-186v745zM745 931h186v186h186v-372h-186v-373h186v-372h-186v186h-186v745zM372 186h373v-186h-373v186z" />
    <glyph glyph-name="beta" unicode="&#x3b2;" 
d="M186 1303h186v-931h187v-186h-187v-558h-186v1675zM372 1489h559v-186h-559v186zM559 186h372v-186h-372v186zM931 1303h186v-372h-186v372zM931 931v-186h-372v186h372zM931 745h186v-559h-186v559z" />
    <glyph glyph-name="gamma" unicode="&#x3b3;" 
d="M559 186h-187v373h187v-373zM559 186h186v-558h-186v558zM372 559h-186v558h186v-558zM745 559h186v-373h-186v373zM931 1117h186v-558h-186v558z" />
    <glyph glyph-name="delta" unicode="&#x3b4;" 
d="M186 745h186v-559h-186v559zM372 186h559v-186h-559v186zM931 745h186v-559h-186v559zM372 1303h-186v186h931v-186h-558v-186h-187v186zM559 1117h186v-186h-186v186zM745 931h186v-186h-186v186zM372 931h187v-186h-187v186z" />
    <glyph glyph-name="epsilon" unicode="&#x3b5;" 
d="M186 931h186v-186h-186v186zM372 1117h559v-186h-559v186zM372 745h373v-186h-373v186zM186 559h186v-373h-186v373zM372 186h559v-186h-559v186zM931 931h186v-186h-186v186zM931 372h186v-186h-186v186z" />
    <glyph glyph-name="zeta" unicode="&#x3b6;" 
d="M1117 1489v-186h-186v-186h-186v186h-373v186h745zM559 1117h186v-186h-186v186zM372 931h187v-372h-187v372zM186 559h186v-373h-186v373zM931 186v-186h-559v186h559zM931 0h186v-186h-186v186zM745 -186h186v-186h-186v186z" />
    <glyph glyph-name="eta" unicode="&#x3b7;" 
d="M186 1117h186v-186h187v-186h-187v-745h-186v1117zM559 1117h372v-186h-372v186zM931 931h186v-1303h-186v1303z" />
    <glyph glyph-name="theta" unicode="&#x3b8;" 
d="M186 1303h186v-372h559v372h186v-1117h-186v559h-559v-559h-186v1117zM372 186h559v-186h-559v186zM372 1489h559v-186h-559v186z" />
    <glyph glyph-name="iota" unicode="&#x3b9;" 
d="M559 931h-373v186h559v-931h-186v745zM745 186h372v-186h-372v186z" />
    <glyph glyph-name="kappa" unicode="&#x3ba;" 
d="M186 1117h186v-558h187v186h186v-373h-373v-372h-186v1117zM931 1117h186v-186h-186v186zM745 931h186v-186h-186v186zM745 372h186v-186h-186v186zM931 186h186v-186h-186v186z" />
    <glyph glyph-name="lambda" unicode="&#x3bb;" 
d="M186 559h186v-559h-186v559zM931 559h186v-559h-186v559zM931 559h-186v372h186v-372zM745 931h-186v372h186v-372zM559 1303h-373v186h373v-186zM372 931h187v-372h-187v372z" />
    <glyph glyph-name="uni03BC" unicode="&#x3bc;" 
d="M186 1117h186v-931h373v-186h-373v-372h-186v1489zM745 372h186v745h186v-1117h-186v186h-186v186z" />
    <glyph glyph-name="nu" unicode="&#x3bd;" 
d="M186 1117h186v-558h-186v558zM931 1117h186v-558h-186v558zM559 186h-187v373h187v-373zM559 186h186v-186h-186v186zM745 559h186v-373h-186v373z" />
    <glyph glyph-name="xi" unicode="&#x3be;" 
d="M931 1489v-186h-559v186h559zM931 1303h186v-186h-186v186zM186 1303h186v-372h-186v372zM186 745h186v-559h-186v559zM372 186h559v-186h-559v186zM931 0h186v-186h-186v186zM372 931h373v-186h-373v186zM745 -186h186v-186h-186v186z" />
    <glyph glyph-name="omicron" unicode="&#x3bf;" 
d="M372 1117h559v-186h-559v186zM372 186h-186v745h186v-745zM372 186h559v-186h-559v186zM931 931h186v-745h-186v745z" />
    <glyph glyph-name="pi" unicode="&#x3c0;" 
d="M0 1117h1117v-186h-186v-745h-186v745h-373v-931h-186v931h-186v186zM931 186h186v-186h-186v186z" />
    <glyph glyph-name="rho" unicode="&#x3c1;" 
d="M186 931h186v-559h187v-186h-187v-558h-186v1303zM372 1117h559v-186h-559v186zM931 931h186v-745h-186v745zM559 186h372v-186h-372v186z" />
    <glyph glyph-name="uni03C2" unicode="&#x3c2;" 
d="M372 1117h559v-186h-559v186zM186 931h186v-745h-186v745zM372 186h559v-186h-559v186zM931 931h186v-186h-186v186zM931 0h186v-186h-186v186zM745 -186h186v-186h-186v186z" />
    <glyph glyph-name="sigma" unicode="&#x3c3;" 
d="M372 1117h931v-186h-186v-745h-186v745h-559v186zM186 931h186v-745h-186v745zM372 186h559v-186h-559v186z" />
    <glyph glyph-name="tau" unicode="&#x3c4;" 
d="M1117 1117v-186h-372v-745h-186v745h-373v186h931zM745 186h186v-186h-186v186z" />
    <glyph glyph-name="upsilon" unicode="&#x3c5;" 
d="M186 1117h186v-931h-186v931zM372 186h559v-186h-559v186zM931 931h-186v186h186v-186zM931 931h186v-745h-186v745z" />
    <glyph glyph-name="phi" unicode="&#x3c6;" 
d="M186 931h186v-745h-186v745zM372 186h187v931h372v-186h-186v-745h186v-186h-186v-372h-186v372h-187v186zM931 931h186v-745h-186v745z" />
    <glyph glyph-name="chi" unicode="&#x3c7;" 
d="M186 1117h186v-372h-186v372zM931 1117h186v-372h-186v372zM186 186h186v-558h-186v558zM745 745h186v-186h-186v186zM372 745h187v-186h-187v186zM559 559h186v-187h-186v187zM372 372h187v-186h-187v186zM745 372h186v-186h-186v186zM931 186h186v-558h-186v558z" />
    <glyph glyph-name="psi" unicode="&#x3c8;" 
d="M559 1117h186v-931h186v-186h-186v-372h-186v372h-187v186h187v931zM372 186h-186v931h186v-931zM931 1117h186v-931h-186v931z" />
    <glyph glyph-name="omega" unicode="&#x3c9;" 
d="M372 1117h187v-186h-187v186zM186 931h186v-745h-186v745zM372 186h187v-186h-187v186zM559 745h186v-559h-186v559zM745 186h186v-186h-186v186zM931 931h186v-745h-186v745zM931 931h-186v186h186v-186z" />
    <glyph glyph-name="iotadieresis" unicode="&#x3ca;" 
d="M559 931h-373v186h559v-931h-186v745zM745 186h372v-186h-372v186zM372 1489h187v-186h-187v186zM745 1489h186v-186h-186v186z" />
    <glyph glyph-name="upsilondieresis" unicode="&#x3cb;" 
d="M186 1117h186v-931h-186v931zM372 186h559v-186h-559v186zM931 931h-186v186h186v-186zM931 931h186v-745h-186v745zM372 1489h187v-186h-187v186zM745 1489h186v-186h-186v186z" />
    <glyph glyph-name="omicrontonos" unicode="&#x3cc;" 
d="M372 1117h559v-186h-559v186zM372 186h-186v745h186v-745zM372 186h559v-186h-559v186zM931 931h186v-745h-186v745zM745 1676h186v-187h-186v187zM559 1489h186v-186h-186v186z" />
    <glyph glyph-name="upsilontonos" unicode="&#x3cd;" 
d="M186 1117h186v-931h-186v931zM372 186h559v-186h-559v186zM931 931h-186v186h186v-186zM931 931h186v-745h-186v745zM745 1676h186v-187h-186v187zM559 1489h186v-186h-186v186z" />
    <glyph glyph-name="omegatonos" unicode="&#x3ce;" 
d="M372 1117h187v-186h-187v186zM186 931h186v-745h-186v745zM372 186h187v-186h-187v186zM559 745h186v-559h-186v559zM745 186h186v-186h-186v186zM931 931h186v-745h-186v745zM931 931h-186v186h186v-186zM745 1676h186v-187h-186v187zM559 1489h186v-186h-186v186z" />
    <glyph glyph-name="uni0400" unicode="&#x400;" 
d="M186 1489h931v-186h-745v-372h559v-186h-559v-559h745v-186h-931v1489zM372 2048h187v-186h-187v186zM559 1862h186v-186h-186v186z" />
    <glyph glyph-name="uni0401" unicode="&#x401;" 
d="M186 1489h931v-186h-745v-372h559v-186h-559v-559h745v-186h-931v1489zM372 1862h187v-186h-187v186zM745 1862h186v-186h-186v186z" />
    <glyph glyph-name="uni0402" unicode="&#x402;" 
d="M186 1303h-186v186h745v-186h-373v-558h187v-186h-187v-559h-186v1303zM559 186h372v-186h-372v186zM931 745h186v-559h-186v559zM559 931h372v-186h-372v186z" />
    <glyph glyph-name="uni0403" unicode="&#x403;" 
d="M372 186v1117h-186v186h931v-372h-186v186h-372v-1117h186v-186h-559v186h186zM745 2048h186v-186h-186v186zM559 1862h186v-186h-186v186z" />
    <glyph glyph-name="uni0404" unicode="&#x404;" 
d="M186 1303h186v-372h373v-186h-373v-559h-186v1117zM372 186h559v-186h-559v186zM931 372h186v-186h-186v186zM372 1489h559v-186h-559v186zM931 1303h186v-186h-186v186z" />
    <glyph glyph-name="uni0405" unicode="&#x405;" 
d="M186 1303h186v-372h-186v372zM372 931h559v-186h-559v186zM931 186v-186h-559v186h559zM372 186h-186v186h186v-186zM931 745h186v-559h-186v559zM372 1489h559v-186h-559v186zM931 1303h186v-186h-186v186z" />
    <glyph glyph-name="uni0406" unicode="&#x406;" 
d="M559 186v1117h-373v186h931v-186h-372v-1117h372v-186h-931v186h373z" />
    <glyph glyph-name="uni0407" unicode="&#x407;" 
d="M559 186v1117h-373v186h931v-186h-372v-1117h372v-186h-931v186h373zM372 1862h187v-186h-187v186zM745 1862h186v-186h-186v186z" />
    <glyph glyph-name="uni0408" unicode="&#x408;" 
d="M372 186h-186v186h186v-186zM372 186h559v-186h-559v186zM931 1303h-372v186h558v-1303h-186v1117z" />
    <glyph glyph-name="uni0409" unicode="&#x409;" 
d="M0 559h186v-559h-186v559zM186 1489h559v-558h372v-186h-372v-559h372v-186h-558v1303h-187v-744h-186v930zM1117 745h186v-559h-186v559z" />
    <glyph glyph-name="uni040A" unicode="&#x40a;" 
d="M0 1489h186v-558h373v558h186v-558h372v-186h-372v-559h372v-186h-558v745h-373v-745h-186v1489zM1117 745h186v-559h-186v559z" />
    <glyph glyph-name="uni040B" unicode="&#x40b;" 
d="M186 1303h-186v186h745v-186h-373v-558h187v-186h-187v-559h-186v1303zM931 745h186v-745h-186v745zM559 931h372v-186h-372v186z" />
    <glyph glyph-name="uni040C" unicode="&#x40c;" 
d="M186 1489h186v-558h373v-186h-373v-745h-186v1489zM931 1489h186v-186h-186v186zM745 1303h186v-372h-186v372zM931 372h-186v373h186v-373zM931 372h186v-372h-186v372zM745 2048h186v-186h-186v186zM559 1862h186v-186h-186v186z" />
    <glyph glyph-name="uni040D" unicode="&#x40d;" 
d="M186 1489h186v-744h187v-186h-187v-559h-186v1489zM931 931h-186v186h186v372h186v-1489h-186v931zM559 931h186v-186h-186v186zM372 2048h187v-186h-187v186zM559 1862h186v-186h-186v186z" />
    <glyph glyph-name="uni040E" unicode="&#x40e;" 
d="M186 1489h186v-558h-186v558zM931 1489h186v-558h-186v558zM559 559h186v-373h-186v373zM559 186v-186h-373v186h373zM745 931h186v-372h-186v372zM372 931h187v-372h-187v372zM186 2048h186v-186h-186v186zM372 1862h559v-186h-559v186zM931 2048h186v-186h-186v186z
" />
    <glyph glyph-name="uni040F" unicode="&#x40f;" 
d="M372 186h559v1303h186v-1489h-372v-372h-186v372h-373v1489h186v-1303z" />
    <glyph glyph-name="uni0410" unicode="&#x410;" 
d="M186 1117h186v-372h559v372h186v-1117h-186v559h-559v-559h-186v1117zM559 1489h186v-186h-186v186zM372 1303h187v-186h-187v186zM745 1303h186v-186h-186v186z" />
    <glyph glyph-name="uni0411" unicode="&#x411;" 
d="M186 1489h745v-186h-559v-372h559v-186h-559v-559h559v-186h-745v1489zM931 745h186v-559h-186v559z" />
    <glyph glyph-name="uni0412" unicode="&#x412;" 
d="M186 1489h745v-186h-559v-372h559v-186h-559v-559h559v-186h-745v1489zM931 745h186v-559h-186v559zM931 1303h186v-372h-186v372z" />
    <glyph glyph-name="uni0413" unicode="&#x413;" 
d="M372 186v1117h-186v186h931v-372h-186v186h-372v-1117h186v-186h-559v186h186z" />
    <glyph glyph-name="uni0414" unicode="&#x414;" 
d="M186 186v373h186v-373h559v1117h-372v-744h-187v930h745v-1303h186v-558h-186v372h-931v-372h-186v558h186z" />
    <glyph glyph-name="uni0415" unicode="&#x415;" 
d="M186 1489h931v-186h-745v-372h559v-186h-559v-559h745v-186h-931v1489z" />
    <glyph glyph-name="uni0416" unicode="&#x416;" 
d="M559 1489h186v-558h186v-186h-186v-745h-186v745h-187v186h187v558zM186 745h186v-559h-186v559zM931 1303h186v-372h-186v372zM1117 1489h186v-186h-186v186zM186 1303h186v-372h-186v372zM0 1489h186v-186h-186v186zM1117 186h-186v559h186v-559zM1117 186h186v-186
h-186v186zM0 186h186v-186h-186v186z" />
    <glyph glyph-name="uni0417" unicode="&#x417;" 
d="M186 1303h186v-186h-186v186zM372 1489h559v-186h-559v186zM931 1303h186v-372h-186v372zM559 931h372v-186h-372v186zM931 745h186v-559h-186v559zM931 186v-186h-559v186h559zM372 186h-186v186h186v-186z" />
    <glyph glyph-name="uni0418" unicode="&#x418;" 
d="M186 1489h186v-744h187v-186h-187v-559h-186v1489zM931 931h-186v186h186v372h186v-1489h-186v931zM559 931h186v-186h-186v186z" />
    <glyph glyph-name="uni0419" unicode="&#x419;" 
d="M186 1489h186v-744h187v-186h-187v-559h-186v1489zM931 931h-186v186h186v372h186v-1489h-186v931zM559 931h186v-186h-186v186zM186 2048h186v-186h-186v186zM372 1862h559v-186h-559v186zM931 2048h186v-186h-186v186z" />
    <glyph glyph-name="uni041A" unicode="&#x41a;" 
d="M186 1489h186v-558h373v-186h-373v-745h-186v1489zM931 1489h186v-186h-186v186zM745 1303h186v-372h-186v372zM931 372h-186v373h186v-373zM931 372h186v-372h-186v372z" />
    <glyph glyph-name="uni041B" unicode="&#x41b;" 
d="M186 559h186v-559h-186v559zM372 1489h745v-1489h-186v1303h-372v-744h-187v930z" />
    <glyph glyph-name="uni041C" unicode="&#x41c;" 
d="M186 1489h186v-372h187v-186h-187v-931h-186v1489zM931 931h-186v186h186v372h186v-1489h-186v931zM559 931h186v-372h-186v372z" />
    <glyph glyph-name="uni041D" unicode="&#x41d;" 
d="M186 1489h186v-558h559v558h186v-1489h-186v745h-559v-745h-186v1489z" />
    <glyph glyph-name="uni041E" unicode="&#x41e;" 
d="M186 1303h186v-1117h-186v1117zM372 186h559v-186h-559v186zM931 1303h186v-1117h-186v1117zM372 1489h559v-186h-559v186z" />
    <glyph glyph-name="uni041F" unicode="&#x41f;" 
d="M1117 1489v-1489h-186v1303h-559v-1303h-186v1489h931z" />
    <glyph glyph-name="uni0420" unicode="&#x420;" 
d="M186 1489h745v-186h-559v-558h559v-186h-559v-559h-186v1489zM931 1303h186v-558h-186v558z" />
    <glyph glyph-name="uni0421" unicode="&#x421;" 
d="M186 1303h186v-1117h-186v1117zM372 186h559v-186h-559v186zM931 372h186v-186h-186v186zM372 1489h559v-186h-559v186zM931 1303h186v-186h-186v186z" />
    <glyph glyph-name="uni0422" unicode="&#x422;" 
d="M186 1489h931v-186h-372v-1303h-186v1303h-373v186z" />
    <glyph glyph-name="uni0423" unicode="&#x423;" 
d="M186 1489h186v-558h-186v558zM931 1489h186v-558h-186v558zM559 559h186v-373h-186v373zM559 186v-186h-373v186h373zM745 931h186v-372h-186v372zM372 931h187v-372h-187v372z" />
    <glyph glyph-name="uni0424" unicode="&#x424;" 
d="M186 1117h186v-745h-186v745zM372 1303h187v186h186v-186h186v-186h-186v-745h186v-186h-186v-186h-186v186h-187v186h187v745h-187v186zM931 1117h186v-745h-186v745z" />
    <glyph glyph-name="uni0425" unicode="&#x425;" 
d="M931 559h186v-559h-186v559zM186 559h186v-559h-186v559zM559 931h-187v186h187v-186zM559 931h186v-186h-186v186zM745 1117h186v-186h-186v186zM372 1117h-186v372h186v-372zM372 745h187v-186h-187v186zM931 1489h186v-372h-186v372zM745 745h186v-186h-186v186z" />
    <glyph glyph-name="uni0426" unicode="&#x426;" 
d="M186 1489h186v-1303h559v1303h186v-1303h186v-558h-186v372h-931v1489z" />
    <glyph glyph-name="uni0427" unicode="&#x427;" 
d="M931 1489h186v-1489h-186v745h-186v186h186v558zM186 1489h186v-744h-186v744zM745 745v-186h-373v186h373z" />
    <glyph glyph-name="uni0428" unicode="&#x428;" 
d="M186 1489h186v-1303h187v1303h186v-1303h186v1303h186v-1489h-931v1489z" />
    <glyph glyph-name="uni0429" unicode="&#x429;" 
d="M186 1489h186v-1303h187v1303h186v-1303h186v1303h186v-1303h186v-558h-186v372h-931v1489z" />
    <glyph glyph-name="uni042A" unicode="&#x42a;" 
d="M372 1489v-558h559v-186h-559v-559h559v-186h-745v1303h-186v186h372zM931 745h186v-559h-186v559z" />
    <glyph glyph-name="uni042B" unicode="&#x42b;" 
d="M186 1489h186v-558h187v-186h-187v-559h187v-186h-373v1489zM559 745h186v-559h-186v559zM931 1489h186v-1489h-186v1489z" />
    <glyph glyph-name="uni042C" unicode="&#x42c;" 
d="M186 1489h186v-558h559v-186h-559v-559h559v-186h-745v1489zM931 745h186v-559h-186v559z" />
    <glyph glyph-name="uni042D" unicode="&#x42d;" 
d="M186 1303h186v-186h-186v186zM931 745h-372v186h372v372h186v-1117h-186v559zM186 372h186v-186h-186v186zM372 186h559v-186h-559v186zM372 1489h559v-186h-559v186z" />
    <glyph glyph-name="uni042E" unicode="&#x42e;" 
d="M186 1489h186v-558h187v372h186v-1117h-186v559h-187v-745h-186v1489zM1117 1303h-372v186h372v-186zM1117 1303h186v-1117h-186v1117zM1117 186v-186h-372v186h372z" />
    <glyph glyph-name="uni042F" unicode="&#x42f;" 
d="M931 745v558h-559v186h745v-1489h-186v559h-372v-187h-187v373h559zM186 1303h186v-558h-186v558zM186 372h186v-372h-186v372z" />
    <glyph glyph-name="uni0430" unicode="&#x430;" 
d="M186 559h186v-373h-186v373zM372 186h373v-186h-373v186zM745 372h186v187h-559v186h559v186h186v-931h-186v186h-186v186zM372 1117h559v-186h-559v186z" />
    <glyph glyph-name="uni0431" unicode="&#x431;" 
d="M372 1303h559v-186h-559v186zM186 1117h186v-186h559v-186h-559v-559h-186v931zM931 745h186v-559h-186v559zM372 186h559v-186h-559v186zM931 1489h186v-186h-186v186z" />
    <glyph glyph-name="uni0432" unicode="&#x432;" 
d="M186 1117h745v-186h-559v-186h559v-186h-559v-373h559v-186h-745v1117zM931 559h186v-373h-186v373zM931 931h186v-186h-186v186z" />
    <glyph glyph-name="uni0433" unicode="&#x433;" 
d="M186 186h186v745h-186v186h931v-372h-186v186h-372v-745h186v-186h-559v186z" />
    <glyph glyph-name="uni0434" unicode="&#x434;" 
d="M0 186h186v186h186v-186h559v745h-372v-559h-187v745h745v-931h186v-558h-186v372h-931v-372h-186v558z" />
    <glyph glyph-name="uni0435" unicode="&#x435;" 
d="M372 1117h559v-186h-559v186zM186 931h186v-186h559v186h186v-372h-745v-373h-186v745zM372 186h559v-186h-559v186zM931 372h186v-186h-186v186z" />
    <glyph glyph-name="uni0436" unicode="&#x436;" 
d="M559 1117h186v-372h186v-186h-186v-559h-186v559h-187v186h187v372zM1117 1117h186v-186h-186v186zM931 931h186v-186h-186v186zM0 1117h186v-186h-186v186zM186 931h186v-186h-186v186zM1117 186h-186v373h186v-373zM1117 186h186v-186h-186v186zM0 186h186v-186h-186
v186zM186 559h186v-373h-186v373z" />
    <glyph glyph-name="uni0437" unicode="&#x437;" 
d="M186 931h186v-186h-186v186zM372 1117h559v-186h-559v186zM931 931h186v-186h-186v186zM559 745h372v-186h-372v186zM931 559h186v-373h-186v373zM931 186v-186h-559v186h559zM372 186h-186v186h186v-186z" />
    <glyph glyph-name="uni0438" unicode="&#x438;" 
d="M186 1117h186v-558h187v-187h-187v-372h-186v1117zM931 745h-186v186h186v186h186v-1117h-186v745zM559 745h186v-186h-186v186z" />
    <glyph glyph-name="uni0439" unicode="&#x439;" 
d="M186 1117h186v-558h187v-187h-187v-372h-186v1117zM931 745h-186v186h186v186h186v-1117h-186v745zM559 745h186v-186h-186v186zM186 1676h186v-187h-186v187zM372 1489h559v-186h-559v186zM931 1676h186v-187h-186v187z" />
    <glyph glyph-name="uni043A" unicode="&#x43a;" 
d="M186 1117h186v-558h187v186h186v-373h-373v-372h-186v1117zM745 372h186v-186h-186v186zM931 186h186v-186h-186v186zM745 931h186v-186h-186v186zM931 1117h186v-186h-186v186z" />
    <glyph glyph-name="uni043B" unicode="&#x43b;" 
d="M186 372h186v-372h-186v372zM372 1117h745v-1117h-186v931h-372v-559h-187v745z" />
    <glyph glyph-name="uni043C" unicode="&#x43c;" 
d="M186 1117h186v-186h187v-186h-187v-745h-186v1117zM931 745h-186v186h186v186h186v-1117h-186v745zM559 745h186v-373h-186v373z" />
    <glyph glyph-name="uni043D" unicode="&#x43d;" 
d="M186 1117h186v-372h559v372h186v-1117h-186v559h-559v-559h-186v1117z" />
    <glyph glyph-name="uni043E" unicode="&#x43e;" 
d="M372 1117h559v-186h-559v186zM931 931h186v-745h-186v745zM186 931h186v-745h-186v745zM372 186h559v-186h-559v186z" />
    <glyph glyph-name="uni043F" unicode="&#x43f;" 
d="M186 1117h931v-1117h-186v931h-559v-931h-186v1117z" />
    <glyph glyph-name="uni0440" unicode="&#x440;" 
d="M186 1117h186v-186h187v-186h-187v-373h187v-186h-187v-558h-186v1489zM559 1117h372v-186h-372v186zM931 931h186v-745h-186v745zM559 186h372v-186h-372v186z" />
    <glyph glyph-name="uni0441" unicode="&#x441;" 
d="M372 1117h559v-186h-559v186zM186 931h186v-745h-186v745zM372 186h559v-186h-559v186zM931 931h186v-186h-186v186zM931 372h186v-186h-186v186z" />
    <glyph glyph-name="uni0442" unicode="&#x442;" 
d="M186 1117h931v-186h-372v-931h-186v931h-373v186z" />
    <glyph glyph-name="uni0443" unicode="&#x443;" 
d="M186 1117h186v-558h-186v558zM931 1117h186v-558h-186v558zM559 186h186v-372h-186v372zM559 -186v-186h-373v186h373zM745 559h186v-373h-186v373zM372 559h187v-373h-187v373z" />
    <glyph glyph-name="uni0444" unicode="&#x444;" 
d="M186 931h186v-745h-186v745zM559 1117v372h186v-372h186v-186h-186v-745h186v-186h-186v-372h-186v372h-187v186h187v745h-187v186h187zM931 931h186v-745h-186v745z" />
    <glyph glyph-name="uni0445" unicode="&#x445;" 
d="M186 1117h186v-186h-186v186zM931 1117h186v-186h-186v186zM186 372h186v-372h-186v372zM745 931h186v-186h-186v186zM372 931h187v-186h-187v186zM559 745h186v-186h-186v186zM372 559h187v-187h-187v187zM745 559h186v-187h-186v187zM931 372h186v-372h-186v372z" />
    <glyph glyph-name="uni0446" unicode="&#x446;" 
d="M186 1117h186v-931h559v931h186v-931h186v-558h-186v372h-931v1117z" />
    <glyph glyph-name="uni0447" unicode="&#x447;" 
d="M931 1117h186v-1117h-186v559h-186v186h186v372zM186 1117h186v-558h-186v558zM745 559v-187h-373v187h373z" />
    <glyph glyph-name="uni0448" unicode="&#x448;" 
d="M186 1117h186v-931h187v931h186v-931h186v931h186v-1117h-931v1117z" />
    <glyph glyph-name="uni0449" unicode="&#x449;" 
d="M1117 186h186v-558h-186v372h-931v1117h186v-931h187v931h186v-931h186v931h186v-931z" />
    <glyph glyph-name="uni044A" unicode="&#x44a;" 
d="M372 1117v-372h559v-186h-559v-373h559v-186h-745v931h-186v186h372zM931 559h186v-373h-186v373z" />
    <glyph glyph-name="uni044B" unicode="&#x44b;" 
d="M186 1117h186v-372h187v-186h-187v-373h187v-186h-373v1117zM559 559h186v-373h-186v373zM931 1117h186v-1117h-186v1117z" />
    <glyph glyph-name="uni044C" unicode="&#x44c;" 
d="M186 1117h186v-372h559v-186h-559v-373h559v-186h-745v1117zM931 559h186v-373h-186v373z" />
    <glyph glyph-name="uni044D" unicode="&#x44d;" 
d="M186 931h186v-186h-186v186zM931 559h-372v186h372v186h186v-745h-186v373zM186 372h186v-186h-186v186zM372 186h559v-186h-559v186zM372 1117h559v-186h-559v186z" />
    <glyph glyph-name="uni044E" unicode="&#x44e;" 
d="M186 1117h186v-372h187v186h186v-745h-186v373h-187v-559h-186v1117zM1117 931h-372v186h372v-186zM1117 931h186v-745h-186v745zM745 186h372v-186h-372v186z" />
    <glyph glyph-name="uni044F" unicode="&#x44f;" 
d="M1117 1117v-1117h-186v372h-372v-186h-187v373h559v372h-559v186h745zM186 931h186v-372h-186v372zM186 186h186v-186h-186v186z" />
    <glyph glyph-name="uni0450" unicode="&#x450;" 
d="M372 1117h559v-186h-559v186zM186 931h186v-186h559v186h186v-372h-745v-373h-186v745zM372 186h559v-186h-559v186zM931 372h186v-186h-186v186zM372 1676h187v-187h-187v187zM559 1489h186v-186h-186v186z" />
    <glyph glyph-name="uni0451" unicode="&#x451;" 
d="M372 1117h559v-186h-559v186zM186 931h186v-186h559v186h186v-372h-745v-373h-186v745zM372 186h559v-186h-559v186zM931 372h186v-186h-186v186zM372 1489h187v-186h-187v186zM745 1489h186v-186h-186v186z" />
    <glyph glyph-name="uni0452" unicode="&#x452;" 
d="M745 -186h186v-186h-186v186zM931 745h186v-931h-186v931zM186 1117h-186v186h186v186h186v-186h373v-186h-373v-372h187v-186h-187v-559h-186v1117zM559 931h372v-186h-372v186z" />
    <glyph glyph-name="uni0453" unicode="&#x453;" 
d="M186 186h186v745h-186v186h931v-372h-186v186h-372v-745h186v-186h-559v186zM745 1676h186v-187h-186v187zM559 1489h186v-186h-186v186z" />
    <glyph glyph-name="uni0454" unicode="&#x454;" 
d="M186 931h186v-186h373v-186h-373v-373h-186v745zM372 186h559v-186h-559v186zM931 372h186v-186h-186v186zM372 1117h559v-186h-559v186zM931 931h186v-186h-186v186z" />
    <glyph glyph-name="uni0455" unicode="&#x455;" 
d="M931 186v-186h-559v186h559zM372 186h-186v186h186v-186zM931 1117v-186h-559v186h559zM186 931h186v-186h-186v186zM372 745h559v-186h-559v186zM931 559h186v-373h-186v373zM931 931h186v-186h-186v186z" />
    <glyph glyph-name="uni0456" unicode="&#x456;" 
d="M559 931h-373v186h559v-931h372v-186h-931v186h373v745zM559 1489h186v-186h-186v186z" />
    <glyph glyph-name="uni0457" unicode="&#x457;" 
d="M559 931h-373v186h559v-931h372v-186h-931v186h373v745zM372 1489h187v-186h-187v186zM745 1489h186v-186h-186v186z" />
    <glyph glyph-name="uni0458" unicode="&#x458;" 
d="M745 1489h186v-186h-186v186zM745 931h-373v186h559v-1303h-186v1117zM745 -186v-186h-373v186h373zM372 -186h-186v186h186v-186z" />
    <glyph glyph-name="uni0459" unicode="&#x459;" 
d="M0 372h186v-372h-186v372zM186 1117h559v-372h372v-186h-372v-373h372v-186h-558v931h-187v-559h-186v745zM1117 559h186v-373h-186v373z" />
    <glyph glyph-name="uni045A" unicode="&#x45a;" 
d="M0 1117h186v-372h373v372h186v-372h372v-186h-372v-373h372v-186h-558v559h-373v-559h-186v1117zM1117 559h186v-373h-186v373z" />
    <glyph glyph-name="uni045B" unicode="&#x45b;" 
d="M186 1117h-186v186h186v186h186v-186h373v-186h-373v-372h187v-186h-187v-559h-186v1117zM931 745h186v-745h-186v745zM559 931h372v-186h-372v186z" />
    <glyph glyph-name="uni045C" unicode="&#x45c;" 
d="M186 1117h186v-558h187v186h186v-373h-373v-372h-186v1117zM745 372h186v-186h-186v186zM931 186h186v-186h-186v186zM745 931h186v-186h-186v186zM931 1117h186v-186h-186v186zM745 1676h186v-187h-186v187zM559 1489h186v-186h-186v186z" />
    <glyph glyph-name="uni045D" unicode="&#x45d;" 
d="M186 1117h186v-558h187v-187h-187v-372h-186v1117zM931 745h-186v186h186v186h186v-1117h-186v745zM559 745h186v-186h-186v186zM372 1676h187v-187h-187v187zM559 1489h186v-186h-186v186z" />
    <glyph glyph-name="uni045E" unicode="&#x45e;" 
d="M186 1117h186v-558h-186v558zM931 1117h186v-558h-186v558zM559 186h186v-372h-186v372zM559 -186v-186h-373v186h373zM745 559h186v-373h-186v373zM372 559h187v-373h-187v373zM186 1676h186v-187h-186v187zM372 1489h559v-186h-559v186zM931 1676h186v-187h-186v187z
" />
    <glyph glyph-name="uni045F" unicode="&#x45f;" 
d="M372 186h559v931h186v-1117h-372v-372h-186v372h-373v1117h186v-931z" />
    <glyph glyph-name="uni0462" unicode="&#x462;" 
d="M186 1489h186v-186h373v-186h-373v-186h559v-186h-559v-559h559v-186h-745v1117h-186v186h186v186zM931 745h186v-559h-186v559z" />
    <glyph glyph-name="uni0463" unicode="&#x463;" 
d="M186 1117v372h186v-372h373v-186h-373v-186h559v-186h-559v-373h559v-186h-745v931h-186v186h186zM931 559h186v-373h-186v373z" />
    <glyph glyph-name="uni0474" unicode="&#x474;" 
d="M559 186h-187v373h187v-373zM559 186h186v-186h-186v186zM186 1489h186v-930h-186v930zM931 1303h186v-744h-186v744zM745 559h186v-373h-186v373zM1117 1489h186v-186h-186v186z" />
    <glyph glyph-name="uni0475" unicode="&#x475;" 
d="M186 1117h186v-558h-186v558zM931 931h186v-372h-186v372zM559 186h-187v373h187v-373zM559 186h186v-186h-186v186zM745 559h186v-373h-186v373zM1117 1117h186v-186h-186v186z" />
    <glyph glyph-name="uni048A" unicode="&#x48a;" 
d="M186 1489h186v-744h187v-186h-187v-559h-186v1489zM931 931h-186v186h186v372h186v-1303h186v-372h-186v186h-186v931zM559 931h186v-186h-186v186zM186 2048h186v-186h-186v186zM372 1862h559v-186h-559v186zM931 2048h186v-186h-186v186zM931 -186h186v-186h-186v186z
" />
    <glyph glyph-name="uni048B" unicode="&#x48b;" 
d="M186 1117h186v-558h187v-187h-187v-372h-186v1117zM931 745h-186v186h186v186h186v-931h186v-372h-186v186h-186v745zM559 745h186v-186h-186v186zM186 1676h186v-187h-186v187zM372 1489h559v-186h-559v186zM931 1676h186v-187h-186v187zM931 -186h186v-186h-186v186z
" />
    <glyph glyph-name="uni048C" unicode="&#x48c;" 
d="M186 1489h186v-186h373v-186h-373v-186h559v-186h-559v-559h559v-186h-745v1117h-186v186h186v186zM931 745h186v-559h-186v559z" />
    <glyph glyph-name="uni048D" unicode="&#x48d;" 
d="M186 1117v372h186v-372h373v-186h-373v-186h559v-186h-559v-373h559v-186h-745v931h-186v186h186zM931 559h186v-373h-186v373z" />
    <glyph glyph-name="uni048E" unicode="&#x48e;" 
d="M186 1489h745v-186h-559v-558h187v186h186v-186h186v-186h-559v-559h-186v1489zM931 1303h186v-558h-186v558zM931 559h186v-187h-186v187z" />
    <glyph glyph-name="uni048F" unicode="&#x48f;" 
d="M186 1117h186v-186h187v-186h-187v-373h187v-186h-187v-558h-186v1489zM559 1117h372v-186h-372v186zM931 931h186v-931h-558v186h186v186h186v559zM559 559h186v-187h-186v187zM1117 0h186v-186h-186v186z" />
    <glyph glyph-name="uni0490" unicode="&#x490;" 
d="M372 186v1117h-186v186h745v187h186v-559h-186v186h-372v-1117h186v-186h-559v186h186z" />
    <glyph glyph-name="uni0491" unicode="&#x491;" 
d="M559 186h186v-186h-559v186h186v745h-186v186h745v186h186v-558h-186v186h-372v-745z" />
    <glyph glyph-name="uni0492" unicode="&#x492;" 
d="M186 931v558h931v-186h-745v-372h559v-186h-559v-745h-186v745h-186v186h186z" />
    <glyph glyph-name="uni0493" unicode="&#x493;" 
d="M186 745v372h931v-186h-745v-186h559v-186h-559v-559h-186v559h-186v186h186z" />
    <glyph glyph-name="uni0494" unicode="&#x494;" 
d="M186 1489h745v-186h-559v-558h187v-186h-187v-559h-186v1489zM745 -186h186v-186h-186v186zM931 745h186v-931h-186v931zM559 931h372v-186h-372v186z" />
    <glyph glyph-name="uni0495" unicode="&#x495;" 
d="M186 1117h745v-186h-559v-372h187v-187h-187v-372h-186v1117zM745 -186h186v-186h-186v186zM931 559h186v-745h-186v745zM559 745h372v-186h-372v186z" />
    <glyph glyph-name="uni0496" unicode="&#x496;" 
d="M559 1489h186v-558h186v-186h-186v-745h-186v745h-187v186h187v558zM186 745h186v-559h-186v559zM931 1303h186v-372h-186v372zM1117 1489h186v-186h-186v186zM186 1303h186v-372h-186v372zM0 1489h186v-186h-186v186zM1117 186h-186v559h186v-559zM1117 186h186v-558
h-186v558zM0 186h186v-186h-186v186z" />
    <glyph glyph-name="uni0497" unicode="&#x497;" 
d="M1117 186h186v-558h-186v558zM559 1117h186v-372h186v-186h-186v-559h-186v559h-187v186h187v372zM1117 1117h186v-186h-186v186zM931 931h186v-186h-186v186zM0 1117h186v-186h-186v186zM186 931h186v-186h-186v186zM1117 186h-186v373h186v-373zM0 186h186v-186h-186
v186zM186 559h186v-373h-186v373z" />
    <glyph glyph-name="uni0498" unicode="&#x498;" 
d="M186 1303h186v-186h-186v186zM372 1489h559v-186h-559v186zM931 1303h186v-372h-186v372zM559 931h372v-186h-372v186zM931 745h186v-559h-186v559zM931 186v-186h-186v-186h-186v186h-187v186h559zM372 186h-186v186h186v-186zM745 -186h186v-186h-186v186zM559 -372
h186v-187h-186v187z" />
    <glyph glyph-name="uni0499" unicode="&#x499;" 
d="M186 931h186v-186h-186v186zM372 1117h559v-186h-559v186zM931 931h186v-186h-186v186zM559 745h372v-186h-372v186zM931 559h186v-373h-186v373zM931 186v-186h-186v-186h-186v186h-187v186h559zM372 186h-186v186h186v-186zM745 -186h186v-186h-186v186zM559 -372h186
v-187h-186v187z" />
    <glyph glyph-name="uni049A" unicode="&#x49a;" 
d="M1117 0h-186v372h186v-186h186v-558h-186v372zM186 1489h186v-558h373v-186h-373v-745h-186v1489zM931 1489h186v-186h-186v186zM745 1303h186v-372h-186v372zM931 372h-186v373h186v-373z" />
    <glyph glyph-name="uni049B" unicode="&#x49b;" 
d="M186 1117h186v-558h187v186h186v-373h-373v-372h-186v1117zM745 372h186v-186h-186v186zM931 186h372v-558h-186v372h-186v186zM745 931h186v-186h-186v186zM931 1117h186v-186h-186v186z" />
    <glyph glyph-name="uni049E" unicode="&#x49e;" 
d="M186 1117h-186v186h186v186h186v-186h187v-186h-187v-186h373v-186h-373v-745h-186v1117zM931 1489h186v-186h-186v186zM745 1303h186v-372h-186v372zM931 372h-186v373h186v-373zM931 372h186v-372h-186v372z" />
    <glyph glyph-name="uni049F" unicode="&#x49f;" 
d="M186 1117h-186v186h186v186h186v-186h187v-186h-187v-558h187v186h186v-373h-373v-372h-186v1117zM745 372h186v-186h-186v186zM931 186h186v-186h-186v186zM745 931h186v-186h-186v186zM931 1117h186v-186h-186v186z" />
    <glyph glyph-name="uni04A0" unicode="&#x4a0;" 
d="M186 1303h-186v186h372v-558h373v-186h-373v-745h-186v1303zM931 1489h186v-186h-186v186zM745 1303h186v-372h-186v372zM931 372h-186v373h186v-373zM931 372h186v-372h-186v372z" />
    <glyph glyph-name="uni04A1" unicode="&#x4a1;" 
d="M186 931h-186v186h372v-558h187v186h186v-373h-373v-372h-186v931zM745 372h186v-186h-186v186zM931 186h186v-186h-186v186zM745 931h186v-186h-186v186zM931 1117h186v-186h-186v186z" />
    <glyph glyph-name="uni04A2" unicode="&#x4a2;" 
d="M186 1489h186v-558h559v558h186v-1303h186v-558h-186v372h-186v745h-559v-745h-186v1489z" />
    <glyph glyph-name="uni04A3" unicode="&#x4a3;" 
d="M186 1117h186v-372h559v372h186v-931h186v-558h-186v372h-186v559h-559v-559h-186v1117z" />
    <glyph glyph-name="uni04A4" unicode="&#x4a4;" 
d="M1303 1489v-186h-186v-1303h-186v745h-559v-745h-186v1489h186v-558h559v558h372z" />
    <glyph glyph-name="uni04A5" unicode="&#x4a5;" 
d="M186 1117h186v-372h559v372h372v-186h-186v-931h-186v559h-559v-559h-186v1117z" />
    <glyph glyph-name="uni04A6" unicode="&#x4a6;" 
d="M186 1489h559v-558h186v-186h-186v-745h-186v1303h-187v-1303h-186v1489zM931 745h186v-931h-186v931zM745 -186h186v-186h-186v186z" />
    <glyph glyph-name="uni04A7" unicode="&#x4a7;" 
d="M186 1117h559v-372h186v-186h-186v-559h-186v931h-187v-931h-186v1117zM931 559h186v-745h-186v745zM745 -186h186v-186h-186v186z" />
    <glyph glyph-name="uni04A8" unicode="&#x4a8;" 
d="M186 1117h186v-1117h-186v1117zM559 1489h186v-186h-186v186zM372 0h373v-186h-373v186zM931 931h186v-745h-186v745zM931 931h-186v186h186v-186zM559 931h186v-745h-186v745zM745 186h186v-186h-186v186zM931 0h186v-186h-186v186zM372 1303h187v-186h-187v186z" />
    <glyph glyph-name="uni04A9" unicode="&#x4a9;" 
d="M186 931h186v-931h-186v931zM372 1117h187v-186h-187v186zM372 0h373v-186h-373v186zM931 745h186v-559h-186v559zM931 745h-186v186h186v-186zM559 745h186v-559h-186v559zM745 186h186v-186h-186v186zM931 0h186v-186h-186v186z" />
    <glyph glyph-name="uni04AA" unicode="&#x4aa;" 
d="M559 0h-187v186h559v-186h-186v-186h-186v186zM745 -186h186v-186h-186v186zM559 -372h186v-187h-186v187zM186 1303h186v-1117h-186v1117zM931 372h186v-186h-186v186zM372 1489h559v-186h-559v186zM931 1303h186v-186h-186v186z" />
    <glyph glyph-name="uni04AB" unicode="&#x4ab;" 
d="M372 1117h559v-186h-559v186zM186 931h186v-745h-186v745zM372 186h559v-186h-186v-186h-186v186h-187v186zM931 931h186v-186h-186v186zM931 372h186v-186h-186v186zM745 -186h186v-186h-186v186zM559 -372h186v-187h-186v187z" />
    <glyph glyph-name="uni04AC" unicode="&#x4ac;" 
d="M186 1489h931v-186h-372v-1117h186v-558h-186v372h-186v1303h-373v186z" />
    <glyph glyph-name="uni04AD" unicode="&#x4ad;" 
d="M186 1117h931v-186h-372v-745h186v-558h-186v372h-186v931h-373v186z" />
    <glyph glyph-name="uni04AE" unicode="&#x4ae;" 
d="M186 1489h186v-558h-186v558zM931 1489h186v-558h-186v558zM559 745h186v-745h-186v745zM372 931h187v-186h-187v186zM745 931h186v-186h-186v186z" />
    <glyph glyph-name="uni04AF" unicode="&#x4af;" 
d="M186 1117h186v-558h-186v558zM931 1117h186v-558h-186v558zM745 559h186v-373h-186v373zM372 559h187v-373h-187v373zM559 186h186v-558h-186v558z" />
    <glyph glyph-name="uni04B0" unicode="&#x4b0;" 
d="M186 1489h186v-558h-186v558zM931 1489h186v-558h-186v558zM559 372h-187v187h187v186h186v-186h186v-187h-186v-372h-186v372zM372 931h187v-186h-187v186zM745 931h186v-186h-186v186z" />
    <glyph glyph-name="uni04B1" unicode="&#x4b1;" 
d="M186 1117h186v-558h-186v558zM931 1117h186v-558h-186v558zM745 559h186v-373h-186v373zM372 559h187v-373h-187v373zM559 186h186v-186h186v-186h-186v-186h-186v186h-187v186h187v186z" />
    <glyph glyph-name="uni04B2" unicode="&#x4b2;" 
d="M1117 0h-186v559h186v-373h186v-558h-186v372zM186 559h186v-559h-186v559zM559 931h-187v186h187v-186zM559 931h186v-186h-186v186zM745 1117h186v-186h-186v186zM372 1117h-186v372h186v-372zM372 745h187v-186h-187v186zM931 1489h186v-372h-186v372zM745 745h186
v-186h-186v186z" />
    <glyph glyph-name="uni04B3" unicode="&#x4b3;" 
d="M1117 0h-186v372h186v-186h186v-558h-186v372zM186 1117h186v-186h-186v186zM931 1117h186v-186h-186v186zM186 372h186v-372h-186v372zM745 931h186v-186h-186v186zM372 931h187v-186h-187v186zM559 745h186v-186h-186v186zM372 559h187v-187h-187v187zM745 559h186
v-187h-186v187z" />
    <glyph glyph-name="uni04B4" unicode="&#x4b4;" 
d="M0 1489h559v-186h-187v-1117h559v1303h186v-1303h186v-558h-186v372h-931v1303h-186v186z" />
    <glyph glyph-name="uni04B5" unicode="&#x4b5;" 
d="M0 1117h559v-186h-187v-745h559v931h186v-931h186v-558h-186v372h-931v931h-186v186z" />
    <glyph glyph-name="uni04B6" unicode="&#x4b6;" 
d="M931 1489h186v-1303h186v-558h-186v372h-186v745h-186v186h186v558zM186 1489h186v-744h-186v744zM745 745v-186h-373v186h373z" />
    <glyph glyph-name="uni04B7" unicode="&#x4b7;" 
d="M931 1117h186v-931h186v-558h-186v372h-186v559h-186v186h186v372zM186 1117h186v-558h-186v558zM745 559v-187h-373v187h373z" />
    <glyph glyph-name="uni04BA" unicode="&#x4ba;" 
d="M186 1489h186v-744h187v-186h-187v-559h-186v1489zM931 745h186v-745h-186v745zM559 931h372v-186h-372v186z" />
    <glyph glyph-name="uni04BB" unicode="&#x4bb;" 
d="M186 1489h186v-558h187v-186h-187v-745h-186v1489zM931 931h186v-931h-186v931zM559 1117h372v-186h-372v186z" />
    <glyph glyph-name="uni04BC" unicode="&#x4bc;" 
d="M372 1489h559v-186h-559v186zM186 1303h186v-372h559v372h186v-558h-745v-559h-186v559h-186v186h186v372zM372 186h559v-186h-559v186zM931 372h186v-186h-186v186z" />
    <glyph glyph-name="uni04BD" unicode="&#x4bd;" 
d="M372 1117h559v-186h-559v186zM186 931h186v-186h559v186h186v-372h-745v-373h-186v373h-186v186h186v186zM372 186h559v-186h-559v186zM931 372h186v-186h-186v186z" />
    <glyph glyph-name="uni04BE" unicode="&#x4be;" 
d="M372 1489h559v-186h-559v186zM186 1303h186v-372h559v372h186v-558h-745v-559h-186v559h-186v186h186v372zM372 186h559v-186h-186v-372h-186v372h-187v186zM931 372h186v-186h-186v186z" />
    <glyph glyph-name="uni04BF" unicode="&#x4bf;" 
d="M372 1117h559v-186h-559v186zM186 931h186v-186h559v186h186v-372h-745v-373h-186v373h-186v186h186v186zM372 186h559v-186h-186v-372h-186v372h-187v186zM931 372h186v-186h-186v186z" />
    <glyph glyph-name="uni04C0" unicode="&#x4c0;" 
d="M559 186v1117h-373v186h931v-186h-372v-1117h372v-186h-931v186h373z" />
    <glyph glyph-name="uni04C1" unicode="&#x4c1;" 
d="M559 1489h186v-558h186v-186h-186v-745h-186v745h-187v186h187v558zM186 745h186v-559h-186v559zM931 1303h186v-372h-186v372zM1117 1489h186v-186h-186v186zM186 1303h186v-372h-186v372zM0 1489h186v-186h-186v186zM1117 186h-186v559h186v-559zM1117 186h186v-186
h-186v186zM0 186h186v-186h-186v186zM186 2048h186v-186h-186v186zM372 1862h559v-186h-559v186zM931 2048h186v-186h-186v186z" />
    <glyph glyph-name="uni04C2" unicode="&#x4c2;" 
d="M559 1117h186v-372h186v-186h-186v-559h-186v559h-187v186h187v372zM1117 1117h186v-186h-186v186zM931 931h186v-186h-186v186zM0 1117h186v-186h-186v186zM186 931h186v-186h-186v186zM1117 186h-186v373h186v-373zM1117 186h186v-186h-186v186zM0 186h186v-186h-186
v186zM186 559h186v-373h-186v373zM186 1676h186v-187h-186v187zM372 1489h559v-186h-559v186zM931 1676h186v-187h-186v187z" />
    <glyph glyph-name="uni04C3" unicode="&#x4c3;" 
d="M931 559h186v-745h-186v745zM745 -186h186v-186h-186v186zM186 1489h186v-558h373v-186h-373v-745h-186v1489zM931 1489h186v-186h-186v186zM745 1303h186v-372h-186v372zM745 745h186v-186h-186v186z" />
    <glyph glyph-name="uni04C4" unicode="&#x4c4;" 
d="M186 1117h186v-558h187v186h186v-373h-373v-372h-186v1117zM745 372h186v-186h-186v186zM931 186h186v-372h-186v372zM745 931h186v-186h-186v186zM931 1117h186v-186h-186v186zM745 -186h186v-186h-186v186z" />
    <glyph glyph-name="uni04C5" unicode="&#x4c5;" 
d="M186 559h186v-559h-186v559zM372 1489h745v-1303h186v-372h-186v186h-186v1303h-372v-744h-187v930zM931 -186h186v-186h-186v186z" />
    <glyph glyph-name="uni04C6" unicode="&#x4c6;" 
d="M186 372h186v-372h-186v372zM372 1117h745v-931h186v-372h-186v186h-186v931h-372v-559h-187v745zM931 -186h186v-186h-186v186z" />
    <glyph glyph-name="uni04C7" unicode="&#x4c7;" 
d="M186 1489h186v-558h559v558h186v-1675h-186v931h-559v-745h-186v1489zM745 -186h186v-186h-186v186z" />
    <glyph glyph-name="uni04C8" unicode="&#x4c8;" 
d="M186 1117h186v-372h559v372h186v-1303h-186v745h-559v-559h-186v1117zM745 -186h186v-186h-186v186z" />
    <glyph glyph-name="uni04C9" unicode="&#x4c9;" 
d="M186 1489h186v-558h559v558h186v-1303h186v-372h-186v186h-186v745h-559v-745h-186v1489zM931 -186h186v-186h-186v186z" />
    <glyph glyph-name="uni04CA" unicode="&#x4ca;" 
d="M186 1117h186v-372h559v372h186v-931h186v-372h-186v186h-186v559h-559v-559h-186v1117zM931 -186h186v-186h-186v186z" />
    <glyph glyph-name="uni04CB" unicode="&#x4cb;" 
d="M931 1489h186v-1489h-186v-372h-186v558h186v559h-186v186h186v558zM186 1489h186v-744h-186v744zM745 745v-186h-373v186h373z" />
    <glyph glyph-name="uni04CC" unicode="&#x4cc;" 
d="M931 1117h186v-1117h-186v-372h-186v558h186v373h-186v186h186v372zM186 1117h186v-558h-186v558zM745 559v-187h-373v187h373z" />
    <glyph glyph-name="uni04CD" unicode="&#x4cd;" 
d="M1117 186h186v-372h-186v186h-186v931h-186v186h186v372h186v-1303zM931 -186h186v-186h-186v186zM186 1489h186v-372h187v-186h-187v-931h-186v1489zM559 931h186v-372h-186v372z" />
    <glyph glyph-name="uni04CE" unicode="&#x4ce;" 
d="M186 1117h186v-186h187v-186h-187v-745h-186v1117zM931 745h-186v186h186v186h186v-931h186v-372h-186v186h-186v745zM559 745h186v-373h-186v373zM931 -186h186v-186h-186v186z" />
    <glyph glyph-name="uni04CF" unicode="&#x4cf;" 
d="M559 186v1117h-373v186h931v-186h-372v-1117h372v-186h-931v186h373z" />
    <glyph glyph-name="uni04D0" unicode="&#x4d0;" 
d="M186 1117h186v-372h559v372h186v-1117h-186v559h-559v-559h-186v1117zM559 1489h186v-186h-186v186zM372 1303h187v-186h-187v186zM745 1303h186v-186h-186v186zM186 2048h186v-186h-186v186zM372 1862h559v-186h-559v186zM931 2048h186v-186h-186v186z" />
    <glyph glyph-name="uni04D1" unicode="&#x4d1;" 
d="M186 559h186v-373h-186v373zM372 186h373v-186h-373v186zM745 372h186v187h-559v186h559v186h186v-931h-186v186h-186v186zM372 1117h559v-186h-559v186zM186 1676h186v-187h-186v187zM372 1489h559v-186h-559v186zM931 1676h186v-187h-186v187z" />
    <glyph glyph-name="uni04D2" unicode="&#x4d2;" 
d="M186 1117h186v-372h559v372h186v-1117h-186v559h-559v-559h-186v1117zM559 1489h186v-186h-186v186zM372 1303h187v-186h-187v186zM745 1303h186v-186h-186v186zM372 1862h187v-186h-187v186zM745 1862h186v-186h-186v186z" />
    <glyph glyph-name="uni04D3" unicode="&#x4d3;" 
d="M186 559h186v-373h-186v373zM372 186h373v-186h-373v186zM745 372h186v187h-559v186h559v186h186v-931h-186v186h-186v186zM372 1117h559v-186h-559v186zM372 1489h187v-186h-187v186zM745 1489h186v-186h-186v186z" />
    <glyph glyph-name="uni04D4" unicode="&#x4d4;" 
d="M1303 1489v-186h-558v-372h372v-186h-372v-559h558v-186h-744v559h-373v-559h-186v1117h186v-372h373v558h-187v186h931zM186 1303h186v-186h-186v186z" />
    <glyph glyph-name="uni04D5" unicode="&#x4d5;" 
d="M559 931h-373v186h373v-186zM559 931h186v-186h372v186h186v-372h-558v-373h-186v373h-373v186h373v186zM0 559h186v-373h-186v373zM186 186h373v-186h-373v186zM1117 931h-372v186h372v-186zM1117 372h186v-186h-186v186zM745 186h372v-186h-372v186z" />
    <glyph glyph-name="uni04D6" unicode="&#x4d6;" 
d="M186 1489h931v-186h-745v-372h559v-186h-559v-559h745v-186h-931v1489zM186 2048h186v-186h-186v186zM372 1862h559v-186h-559v186zM931 2048h186v-186h-186v186z" />
    <glyph glyph-name="uni04D7" unicode="&#x4d7;" 
d="M372 1117h559v-186h-559v186zM186 931h186v-186h559v186h186v-372h-745v-373h-186v745zM372 186h559v-186h-559v186zM931 372h186v-186h-186v186zM186 1676h186v-187h-186v187zM372 1489h559v-186h-559v186zM931 1676h186v-187h-186v187z" />
    <glyph glyph-name="uni04DC" unicode="&#x4dc;" 
d="M559 1489h186v-558h186v-186h-186v-745h-186v745h-187v186h187v558zM186 745h186v-559h-186v559zM931 1303h186v-372h-186v372zM1117 1489h186v-186h-186v186zM186 1303h186v-372h-186v372zM0 1489h186v-186h-186v186zM1117 186h-186v559h186v-559zM1117 186h186v-186
h-186v186zM0 186h186v-186h-186v186zM372 1862h187v-186h-187v186zM745 1862h186v-186h-186v186z" />
    <glyph glyph-name="uni04DD" unicode="&#x4dd;" 
d="M559 1117h186v-372h186v-186h-186v-559h-186v559h-187v186h187v372zM1117 1117h186v-186h-186v186zM931 931h186v-186h-186v186zM0 1117h186v-186h-186v186zM186 931h186v-186h-186v186zM1117 186h-186v373h186v-373zM1117 186h186v-186h-186v186zM0 186h186v-186h-186
v186zM186 559h186v-373h-186v373zM372 1489h187v-186h-187v186zM745 1489h186v-186h-186v186z" />
    <glyph glyph-name="uni04DE" unicode="&#x4de;" 
d="M186 1303h186v-186h-186v186zM372 1489h559v-186h-559v186zM931 1303h186v-372h-186v372zM559 931h372v-186h-372v186zM931 745h186v-559h-186v559zM931 186v-186h-559v186h559zM372 186h-186v186h186v-186zM372 1862h187v-186h-187v186zM745 1862h186v-186h-186v186z
" />
    <glyph glyph-name="uni04DF" unicode="&#x4df;" 
d="M186 931h186v-186h-186v186zM372 1117h559v-186h-559v186zM931 931h186v-186h-186v186zM559 745h372v-186h-372v186zM931 559h186v-373h-186v373zM931 186v-186h-559v186h559zM372 186h-186v186h186v-186zM372 1489h187v-186h-187v186zM745 1489h186v-186h-186v186z" />
    <glyph glyph-name="uni04E0" unicode="&#x4e0;" 
d="M186 1489h931v-186h-186v-186h-186v186h-559v186zM559 1117h186v-186h-186v186zM931 745h186v-559h-186v559zM931 186v-186h-559v186h559zM372 186h-186v186h186v-186zM745 931h186v-186h-186v186z" />
    <glyph glyph-name="uni04E1" unicode="&#x4e1;" 
d="M186 1117h931v-186h-186v-186h-186v186h-559v186zM559 745h186v-186h-186v186zM931 372h186v-558h-186v558zM931 -186v-186h-559v186h559zM372 -186h-186v186h186v-186zM745 559h186v-187h-186v187z" />
    <glyph glyph-name="uni04E2" unicode="&#x4e2;" 
d="M186 1489h186v-744h187v-186h-187v-559h-186v1489zM931 931h-186v186h186v372h186v-1489h-186v931zM559 931h186v-186h-186v186zM372 1862h559v-186h-559v186z" />
    <glyph glyph-name="uni04E3" unicode="&#x4e3;" 
d="M186 1117h186v-558h187v-187h-187v-372h-186v1117zM931 745h-186v186h186v186h186v-1117h-186v745zM559 745h186v-186h-186v186zM372 1489h559v-186h-559v186z" />
    <glyph glyph-name="uni04E4" unicode="&#x4e4;" 
d="M186 1489h186v-744h187v-186h-187v-559h-186v1489zM931 931h-186v186h186v372h186v-1489h-186v931zM559 931h186v-186h-186v186zM372 1862h187v-186h-187v186zM745 1862h186v-186h-186v186z" />
    <glyph glyph-name="uni04E5" unicode="&#x4e5;" 
d="M186 1117h186v-558h187v-187h-187v-372h-186v1117zM931 745h-186v186h186v186h186v-1117h-186v745zM559 745h186v-186h-186v186zM372 1489h187v-186h-187v186zM745 1489h186v-186h-186v186z" />
    <glyph glyph-name="uni04E6" unicode="&#x4e6;" 
d="M186 1303h186v-1117h-186v1117zM372 186h559v-186h-559v186zM931 1303h186v-1117h-186v1117zM372 1489h559v-186h-559v186zM372 1862h187v-186h-187v186zM745 1862h186v-186h-186v186z" />
    <glyph glyph-name="uni04E7" unicode="&#x4e7;" 
d="M372 1117h559v-186h-559v186zM931 931h186v-745h-186v745zM186 931h186v-745h-186v745zM372 186h559v-186h-559v186zM372 1489h187v-186h-187v186zM745 1489h186v-186h-186v186z" />
    <glyph glyph-name="uni04E8" unicode="&#x4e8;" 
d="M186 1303h186v-372h559v372h186v-1117h-186v559h-559v-559h-186v1117zM372 186h559v-186h-559v186zM372 1489h559v-186h-559v186z" />
    <glyph glyph-name="uni04E9" unicode="&#x4e9;" 
d="M372 1117h559v-186h-559v186zM931 745v186h186v-745h-186v373h-559v-373h-186v745h186v-186h559zM372 186h559v-186h-559v186z" />
    <glyph glyph-name="uni04EA" unicode="&#x4ea;" 
d="M186 1303h186v-372h559v372h186v-1117h-186v559h-559v-559h-186v1117zM372 186h559v-186h-559v186zM372 1489h559v-186h-559v186zM372 1862h187v-186h-187v186zM745 1862h186v-186h-186v186z" />
    <glyph glyph-name="uni04EB" unicode="&#x4eb;" 
d="M372 1117h559v-186h-559v186zM931 745v186h186v-745h-186v373h-559v-373h-186v745h186v-186h559zM372 186h559v-186h-559v186zM372 1489h187v-186h-187v186zM745 1489h186v-186h-186v186z" />
    <glyph glyph-name="uni04EC" unicode="&#x4ec;" 
d="M186 1303h186v-186h-186v186zM931 745h-372v186h372v372h186v-1117h-186v559zM186 372h186v-186h-186v186zM372 186h559v-186h-559v186zM372 1489h559v-186h-559v186zM372 1862h187v-186h-187v186zM745 1862h186v-186h-186v186z" />
    <glyph glyph-name="uni04ED" unicode="&#x4ed;" 
d="M186 931h186v-186h-186v186zM931 559h-372v186h372v186h186v-745h-186v373zM186 372h186v-186h-186v186zM372 186h559v-186h-559v186zM372 1117h559v-186h-559v186zM372 1489h187v-186h-187v186zM745 1489h186v-186h-186v186z" />
    <glyph glyph-name="uni04EE" unicode="&#x4ee;" 
d="M186 1489h186v-558h-186v558zM931 1489h186v-558h-186v558zM559 559h186v-373h-186v373zM559 186v-186h-373v186h373zM745 931h186v-372h-186v372zM372 931h187v-372h-187v372zM372 1862h559v-186h-559v186z" />
    <glyph glyph-name="uni04EF" unicode="&#x4ef;" 
d="M186 1117h186v-558h-186v558zM931 1117h186v-558h-186v558zM559 186h186v-372h-186v372zM559 -186v-186h-373v186h373zM745 559h186v-373h-186v373zM372 559h187v-373h-187v373zM372 1489h559v-186h-559v186z" />
    <glyph glyph-name="uni04F0" unicode="&#x4f0;" 
d="M186 1489h186v-558h-186v558zM931 1489h186v-558h-186v558zM559 559h186v-373h-186v373zM559 186v-186h-373v186h373zM745 931h186v-372h-186v372zM372 931h187v-372h-187v372zM372 1862h187v-186h-187v186zM745 1862h186v-186h-186v186z" />
    <glyph glyph-name="uni04F1" unicode="&#x4f1;" 
d="M186 1117h186v-558h-186v558zM931 1117h186v-558h-186v558zM559 186h186v-372h-186v372zM559 -186v-186h-373v186h373zM745 559h186v-373h-186v373zM372 559h187v-373h-187v373zM372 1489h187v-186h-187v186zM745 1489h186v-186h-186v186z" />
    <glyph glyph-name="uni04F2" unicode="&#x4f2;" 
d="M186 1489h186v-558h-186v558zM931 1489h186v-558h-186v558zM559 559h186v-373h-186v373zM559 186v-186h-373v186h373zM745 931h186v-372h-186v372zM372 931h187v-372h-187v372zM372 2048h187v-372h-187v372zM745 2048h186v-372h-186v372z" />
    <glyph glyph-name="uni04F3" unicode="&#x4f3;" 
d="M186 1117h186v-558h-186v558zM931 1117h186v-558h-186v558zM559 186h186v-372h-186v372zM559 -186v-186h-373v186h373zM745 559h186v-373h-186v373zM372 559h187v-373h-187v373zM372 1676h187v-373h-187v373zM745 1676h186v-373h-186v373z" />
    <glyph glyph-name="uni04F4" unicode="&#x4f4;" 
d="M931 1489h186v-1489h-186v745h-186v186h186v558zM186 1489h186v-744h-186v744zM745 745v-186h-373v186h373zM372 1862h187v-186h-187v186zM745 1862h186v-186h-186v186z" />
    <glyph glyph-name="uni04F5" unicode="&#x4f5;" 
d="M931 1117h186v-1117h-186v559h-186v186h186v372zM186 1117h186v-558h-186v558zM745 559v-187h-373v187h373zM372 1489h187v-186h-187v186zM745 1489h186v-186h-186v186z" />
    <glyph glyph-name="uni04F6" unicode="&#x4f6;" 
d="M372 186v1117h-186v186h931v-372h-186v186h-372v-1117h186v-558h-186v372h-373v186h186z" />
    <glyph glyph-name="uni04F7" unicode="&#x4f7;" 
d="M186 186h186v745h-186v186h931v-372h-186v186h-372v-745h186v-558h-186v372h-373v186z" />
    <glyph glyph-name="uni04F8" unicode="&#x4f8;" 
d="M186 1489h186v-558h187v-186h-187v-559h187v-186h-373v1489zM559 745h186v-559h-186v559zM931 1489h186v-1489h-186v1489zM372 1862h187v-186h-187v186zM745 1862h186v-186h-186v186z" />
    <glyph glyph-name="uni04F9" unicode="&#x4f9;" 
d="M186 1117h186v-372h187v-186h-187v-373h187v-186h-373v1117zM559 559h186v-373h-186v373zM931 1117h186v-1117h-186v1117zM372 1489h187v-186h-187v186zM745 1489h186v-186h-186v186z" />
    <glyph glyph-name="uni04FC" unicode="&#x4fc;" 
d="M931 559h186v-745h-186v745zM186 559h186v-559h-186v559zM559 931h-187v186h187v-186zM559 931h186v-186h-186v186zM745 1117h186v-186h-186v186zM372 1117h-186v372h186v-372zM372 745h187v-186h-187v186zM931 1489h186v-372h-186v372zM745 745h186v-186h-186v186z
M745 -186h186v-186h-186v186z" />
    <glyph glyph-name="uni04FD" unicode="&#x4fd;" 
d="M186 1117h186v-186h-186v186zM931 1117h186v-186h-186v186zM186 372h186v-372h-186v372zM745 931h186v-186h-186v186zM372 931h187v-186h-187v186zM559 745h186v-186h-186v186zM372 559h187v-187h-187v187zM745 559h186v-187h-186v187zM931 372h186v-558h-186v558z
M745 -186h186v-186h-186v186z" />
    <glyph glyph-name="uni0510" unicode="&#x510;" 
d="M931 1489v-186h-559v186h559zM931 1303h186v-186h-186v186zM186 1303h186v-372h-186v372zM186 745h186v-559h-186v559zM372 186h559v-186h-559v186zM931 372h186v-186h-186v186zM372 931h373v-186h-373v186z" />
    <glyph glyph-name="uni0511" unicode="&#x511;" 
d="M186 931h186v-186h-186v186zM372 1117h559v-186h-559v186zM372 745h373v-186h-373v186zM186 559h186v-373h-186v373zM372 186h559v-186h-559v186zM931 931h186v-186h-186v186zM931 372h186v-186h-186v186z" />
    <glyph glyph-name="uni0512" unicode="&#x512;" 
d="M931 1303h-372v-744h-187v930h745v-1675h-186v1489zM745 -186h186v-186h-186v186zM186 559h186v-559h-186v559z" />
    <glyph glyph-name="uni0513" unicode="&#x513;" 
d="M186 372h186v-372h-186v372zM372 1117h745v-1303h-186v1117h-372v-559h-187v745zM745 -186h186v-186h-186v186z" />
    <glyph glyph-name="uni051C" unicode="&#x51c;" 
d="M186 1489h186v-930h-186v930zM372 559h187v-559h-187v559zM931 1489h186v-930h-186v930zM745 559h186v-559h-186v559zM559 931h186v-372h-186v372z" />
    <glyph glyph-name="uni051D" unicode="&#x51d;" 
d="M186 1117h186v-931h-186v931zM931 1117h186v-1117h-372v186h186v931zM745 186h-186v931h186v-931zM372 186h187v-186h-187v186z" />
    <glyph glyph-name="uni0524" unicode="&#x524;" 
d="M1117 1489v-1303h186v-558h-186v372h-186v1303h-559v-1303h-186v1489h931z" />
    <glyph glyph-name="uni0525" unicode="&#x525;" 
d="M186 1117h931v-931h186v-558h-186v372h-186v931h-559v-931h-186v1117z" />
    <glyph glyph-name="uni0526" unicode="&#x526;" 
d="M186 1489h186v-744h187v-186h-187v-559h-186v1489zM931 745h186v-559h186v-558h-186v372h-186v745zM559 931h372v-186h-372v186z" />
    <glyph glyph-name="uni0527" unicode="&#x527;" 
d="M186 1489h186v-558h187v-186h-187v-745h-186v1489zM931 931h186v-745h186v-558h-186v372h-186v931zM559 1117h372v-186h-372v186z" />
    <glyph glyph-name="uni0E3F" unicode="&#xe3f;" 
d="M931 1303h-186v-372h186v-186h-186v-559h186v-186h-186v-186h-186v186h-373v1489h373v187h186v-187h186v-186zM931 1303h186v-372h-186v372zM931 745h186v-559h-186v559zM372 186h187v559h-187v-559zM372 931h187v372h-187v-372z" />
    <glyph glyph-name="uni1E02" unicode="&#x1e02;" 
d="M186 1489h745v-186h-559v-372h559v-186h-559v-559h559v-186h-745v1489zM931 745h186v-559h-186v559zM931 1303h186v-372h-186v372zM559 1862h186v-186h-186v186z" />
    <glyph glyph-name="uni1E03" unicode="&#x1e03;" 
d="M186 1489h186v-558h187v-186h-187v-373h187v-186h-187v-186h-186v1489zM559 186h372v-186h-372v186zM931 931h186v-745h-186v745zM559 1117h372v-186h-372v186zM559 1489h186v-186h-186v186z" />
    <glyph glyph-name="uni1E0A" unicode="&#x1e0a;" 
d="M186 1489h745v-186h-559v-1117h559v-186h-745v1489zM931 1303h186v-1117h-186v1117zM559 1862h186v-186h-186v186z" />
    <glyph glyph-name="uni1E0B" unicode="&#x1e0b;" 
d="M931 1489h186v-1489h-186v186h-186v186h186v373h-186v186h186v558zM745 186v-186h-373v186h373zM372 186h-186v745h186v-745zM745 931h-373v186h373v-186zM559 1489h186v-186h-186v186z" />
    <glyph glyph-name="uni1E0C" unicode="&#x1e0c;" 
d="M186 1489h745v-186h-559v-1117h559v-186h-745v1489zM931 1303h186v-1117h-186v1117zM559 -186h186v-186h-186v186z" />
    <glyph glyph-name="uni1E0D" unicode="&#x1e0d;" 
d="M931 1489h186v-1489h-186v186h-186v186h186v373h-186v186h186v558zM745 186v-186h-373v186h373zM372 186h-186v745h186v-745zM745 931h-373v186h373v-186zM559 -186h186v-186h-186v186z" />
    <glyph glyph-name="uni1E10" unicode="&#x1e10;" 
d="M186 1489h745v-186h-559v-1117h559v-186h-186v-186h-186v186h-373v1489zM931 1303h186v-1117h-186v1117zM745 -186h186v-186h-186v186zM559 -372h186v-187h-186v187z" />
    <glyph glyph-name="uni1E11" unicode="&#x1e11;" 
d="M931 1489h186v-1489h-186v186h-186v186h186v373h-186v186h186v558zM745 186v-372h-186v186h-187v186h373zM372 186h-186v745h186v-745zM745 931h-373v186h373v-186zM745 -186h186v-186h-186v186zM559 -372h186v-187h-186v187z" />
    <glyph glyph-name="uni1E1E" unicode="&#x1e1e;" 
d="M186 1489h931v-186h-745v-372h559v-186h-559v-745h-186v1489zM559 1862h186v-186h-186v186z" />
    <glyph glyph-name="uni1E1F" unicode="&#x1e1f;" 
d="M372 931h-186v186h186v186h187v-186h558v-186h-558v-745h372v-186h-745v186h186v745zM559 1489h558v-186h-558v186zM559 1862h186v-186h-186v186z" />
    <glyph glyph-name="uni1E20" unicode="&#x1e20;" 
d="M186 1303h186v-1117h-186v1117zM372 186h559v-186h-559v186zM931 559h-186v186h372v-559h-186v373zM372 1489h559v-186h-559v186zM931 1303h186v-186h-186v186zM372 1862h559v-186h-559v186z" />
    <glyph glyph-name="uni1E21" unicode="&#x1e21;" 
d="M372 1117h373v-186h-373v186zM186 931h186v-745h-186v745zM372 186h373v-186h-373v186zM372 -186h559v-186h-559v186zM745 372h186v373h-186v186h186v186h186v-1303h-186v372h-186v186zM372 1489h559v-186h-559v186z" />
    <glyph glyph-name="uni1E24" unicode="&#x1e24;" 
d="M186 1489h186v-558h559v558h186v-1489h-186v745h-559v-745h-186v1489zM559 -186h186v-186h-186v186z" />
    <glyph glyph-name="uni1E25" unicode="&#x1e25;" 
d="M186 1489h186v-558h187v-186h-187v-745h-186v1489zM931 931h186v-931h-186v931zM559 1117h372v-186h-372v186zM559 -186h186v-186h-186v186z" />
    <glyph glyph-name="uni1E2A" unicode="&#x1e2a;" 
d="M186 1489h186v-558h559v558h186v-1489h-186v745h-559v-745h-186v1489zM186 -186h186v-186h-186v186zM372 -372h559v-187h-559v187zM931 -186h186v-186h-186v186z" />
    <glyph glyph-name="uni1E2B" unicode="&#x1e2b;" 
d="M186 1489h186v-558h187v-186h-187v-745h-186v1489zM931 931h186v-931h-186v931zM559 1117h372v-186h-372v186zM186 -186h186v-186h-186v186zM372 -372h559v-187h-559v187zM931 -186h186v-186h-186v186z" />
    <glyph glyph-name="uni1E32" unicode="&#x1e32;" 
d="M186 1489h186v-558h187v186h186v-372h-373v-745h-186v1489zM931 1489h186v-186h-186v186zM745 1303h186v-186h-186v186zM931 372h-186v373h186v-373zM931 372h186v-372h-186v372zM559 -186h186v-186h-186v186z" />
    <glyph glyph-name="uni1E33" unicode="&#x1e33;" 
d="M186 1489h186v-930h187v186h186v-373h-373v-372h-186v1489zM931 1117h186v-186h-186v186zM745 931h186v-186h-186v186zM745 372h186v-186h-186v186zM931 186h186v-186h-186v186zM559 -186h186v-186h-186v186z" />
    <glyph glyph-name="uni1E36" unicode="&#x1e36;" 
d="M186 1489h186v-1303h745v-186h-931v1489zM559 -186h186v-186h-186v186z" />
    <glyph glyph-name="uni1E37" unicode="&#x1e37;" 
d="M559 1303h-373v186h559v-1303h372v-186h-931v186h373v1117zM559 -186h186v-186h-186v186z" />
    <glyph glyph-name="uni1E3E" unicode="&#x1e3e;" 
d="M186 1489h186v-372h187v-186h-187v-931h-186v1489zM931 931h-186v186h186v372h186v-1489h-186v931zM559 931h186v-372h-186v372zM745 2048h186v-186h-186v186zM559 1862h186v-186h-186v186z" />
    <glyph glyph-name="uni1E3F" unicode="&#x1e3f;" 
d="M186 1117h373v-186h-187v-931h-186v1117zM559 931h186v-931h-186v931zM931 931h-186v186h186v-186zM931 931h186v-931h-186v931zM745 1676h186v-187h-186v187zM559 1489h186v-186h-186v186z" />
    <glyph glyph-name="uni1E40" unicode="&#x1e40;" 
d="M186 1489h186v-372h187v-186h-187v-931h-186v1489zM931 931h-186v186h186v372h186v-1489h-186v931zM559 931h186v-372h-186v372zM559 1862h186v-186h-186v186z" />
    <glyph glyph-name="uni1E41" unicode="&#x1e41;" 
d="M186 1117h373v-186h-187v-931h-186v1117zM559 931h186v-931h-186v931zM931 931h-186v186h186v-186zM931 931h186v-931h-186v931zM559 1489h186v-186h-186v186z" />
    <glyph glyph-name="uni1E44" unicode="&#x1e44;" 
d="M186 1489h186v-372h187v-186h-187v-931h-186v1489zM931 559h-186v186h186v744h186v-1489h-186v559zM745 745h-186v186h186v-186zM559 1862h186v-186h-186v186z" />
    <glyph glyph-name="uni1E45" unicode="&#x1e45;" 
d="M186 1117h186v-186h187v-186h-187v-745h-186v1117zM559 1117h372v-186h-372v186zM931 931h186v-931h-186v931zM559 1489h186v-186h-186v186z" />
    <glyph glyph-name="uni1E56" unicode="&#x1e56;" 
d="M186 1489h745v-186h-559v-558h559v-186h-559v-559h-186v1489zM931 1303h186v-558h-186v558zM559 1862h186v-186h-186v186z" />
    <glyph glyph-name="uni1E57" unicode="&#x1e57;" 
d="M186 1117h186v-186h187v-186h-187v-373h187v-186h-187v-558h-186v1489zM559 1117h372v-186h-372v186zM931 931h186v-745h-186v745zM559 186h372v-186h-372v186zM559 1489h186v-186h-186v186z" />
    <glyph glyph-name="uni1E5A" unicode="&#x1e5a;" 
d="M186 1489h745v-186h-559v-558h559v-373h-186v187h-373v-559h-186v1489zM931 1303h186v-558h-186v558zM931 372h186v-372h-186v372zM559 -186h186v-186h-186v186z" />
    <glyph glyph-name="uni1E5B" unicode="&#x1e5b;" 
d="M559 1117v-186h186v-186h-186v-559h372v-186h-745v186h186v745h-186v186h373zM1117 1117v-186h-372v186h372zM372 -186h187v-186h-187v186z" />
    <glyph glyph-name="uni1E60" unicode="&#x1e60;" 
d="M186 1303h186v-372h-186v372zM372 931h559v-186h-559v186zM931 186v-186h-559v186h559zM372 186h-186v186h186v-186zM931 745h186v-559h-186v559zM372 1489h559v-186h-559v186zM931 1303h186v-186h-186v186zM559 1862h186v-186h-186v186z" />
    <glyph glyph-name="uni1E61" unicode="&#x1e61;" 
d="M931 186v-186h-559v186h559zM372 186h-186v186h186v-186zM931 1117v-186h-559v186h559zM186 931h186v-186h-186v186zM372 745h559v-186h-559v186zM931 559h186v-373h-186v373zM931 931h186v-186h-186v186zM559 1489h186v-186h-186v186z" />
    <glyph glyph-name="uni1E62" unicode="&#x1e62;" 
d="M186 1303h186v-372h-186v372zM372 931h559v-186h-559v186zM931 186v-186h-559v186h559zM372 186h-186v186h186v-186zM931 745h186v-559h-186v559zM372 1489h559v-186h-559v186zM931 1303h186v-186h-186v186zM559 -186h186v-186h-186v186z" />
    <glyph glyph-name="uni1E63" unicode="&#x1e63;" 
d="M931 186v-186h-559v186h559zM372 186h-186v186h186v-186zM931 1117v-186h-559v186h559zM186 931h186v-186h-186v186zM372 745h559v-186h-559v186zM931 559h186v-373h-186v373zM931 931h186v-186h-186v186zM559 -186h186v-186h-186v186z" />
    <glyph glyph-name="uni1E6A" unicode="&#x1e6a;" 
d="M186 1489h931v-186h-372v-1303h-186v1303h-373v186zM559 1862h186v-186h-186v186z" />
    <glyph glyph-name="uni1E6B" unicode="&#x1e6b;" 
d="M372 1489h187v-372h558v-186h-558v-745h-187v745h-186v186h186v372zM559 186h372v-186h-372v186zM931 372h186v-186h-186v186zM372 1862h187v-186h-187v186z" />
    <glyph glyph-name="uni1E6C" unicode="&#x1e6c;" 
d="M186 1489h931v-186h-372v-1303h-186v1303h-373v186zM559 -186h186v-186h-186v186z" />
    <glyph glyph-name="uni1E6D" unicode="&#x1e6d;" 
d="M372 1489h187v-372h558v-186h-558v-745h-187v745h-186v186h186v372zM559 186h372v-186h-372v186zM931 372h186v-186h-186v186zM559 -186h186v-186h-186v186z" />
    <glyph glyph-name="uni1E7C" unicode="&#x1e7c;" 
d="M559 186h-187v373h187v-373zM559 186h186v-186h-186v186zM186 1489h186v-930h-186v930zM931 1489h186v-930h-186v930zM745 559h186v-373h-186v373zM372 1862h187v-186h-187v186zM559 2048h186v-186h-186v186zM745 1862h186v-186h-186v186zM931 2048h186v-186h-186v186z
" />
    <glyph glyph-name="uni1E7D" unicode="&#x1e7d;" 
d="M186 1117h186v-558h-186v558zM931 1117h186v-558h-186v558zM559 186h-187v373h187v-373zM559 186h186v-186h-186v186zM745 559h186v-373h-186v373zM372 1489h187v-186h-187v186zM559 1676h186v-187h-186v187zM745 1489h186v-186h-186v186zM931 1676h186v-187h-186v187z
" />
    <glyph glyph-name="Wgrave" unicode="&#x1e80;" 
d="M186 1489h186v-930h-186v930zM372 559h187v-559h-187v559zM931 1489h186v-930h-186v930zM745 559h186v-559h-186v559zM559 931h186v-372h-186v372zM372 2048h187v-186h-187v186zM559 1862h186v-186h-186v186z" />
    <glyph glyph-name="wgrave" unicode="&#x1e81;" 
d="M186 1117h186v-931h-186v931zM931 1117h186v-1117h-372v186h186v931zM745 186h-186v931h186v-931zM372 186h187v-186h-187v186zM372 1676h187v-187h-187v187zM559 1489h186v-186h-186v186z" />
    <glyph glyph-name="Wacute" unicode="&#x1e82;" 
d="M186 1489h186v-930h-186v930zM372 559h187v-559h-187v559zM931 1489h186v-930h-186v930zM745 559h186v-559h-186v559zM559 931h186v-372h-186v372zM745 2048h186v-186h-186v186zM559 1862h186v-186h-186v186z" />
    <glyph glyph-name="wacute" unicode="&#x1e83;" 
d="M186 1117h186v-931h-186v931zM931 1117h186v-1117h-372v186h186v931zM745 186h-186v931h186v-931zM372 186h187v-186h-187v186zM745 1676h186v-187h-186v187zM559 1489h186v-186h-186v186z" />
    <glyph glyph-name="Wdieresis" unicode="&#x1e84;" 
d="M186 1489h186v-930h-186v930zM372 559h187v-559h-187v559zM931 1489h186v-930h-186v930zM745 559h186v-559h-186v559zM559 931h186v-372h-186v372zM372 1862h187v-186h-187v186zM745 1862h186v-186h-186v186z" />
    <glyph glyph-name="wdieresis" unicode="&#x1e85;" 
d="M186 1117h186v-931h-186v931zM931 1117h186v-1117h-372v186h186v931zM745 186h-186v931h186v-931zM372 186h187v-186h-187v186zM372 1489h187v-186h-187v186zM745 1489h186v-186h-186v186z" />
    <glyph glyph-name="uni1E8E" unicode="&#x1e8e;" 
d="M186 1489h186v-558h-186v558zM931 1489h186v-558h-186v558zM559 745h186v-745h-186v745zM372 931h187v-186h-187v186zM745 931h186v-186h-186v186zM559 1862h186v-186h-186v186z" />
    <glyph glyph-name="uni1E8F" unicode="&#x1e8f;" 
d="M186 1117h186v-558h-186v558zM931 1117h186v-558h-186v558zM559 186h186v-372h-186v372zM559 -186v-186h-373v186h373zM745 559h186v-373h-186v373zM372 559h187v-373h-187v373zM559 1489h186v-186h-186v186z" />
    <glyph glyph-name="uni1E92" unicode="&#x1e92;" 
d="M372 186h745v-186h-931v559h186v-373zM745 1117h186v-186h-186v186zM372 745h187v-186h-187v186zM1117 1489v-372h-186v186h-745v186h931zM559 931h186v-186h-186v186zM559 -186h186v-186h-186v186z" />
    <glyph glyph-name="uni1E93" unicode="&#x1e93;" 
d="M186 1117h931v-186h-186v-186h-186v186h-559v186zM559 745h186v-186h-186v186zM372 559h187v-187h-187v187zM186 372h186v-186h745v-186h-931v372zM559 -186h186v-186h-186v186z" />
    <glyph glyph-name="uni1E9B" unicode="&#x1e9b;" 
d="M559 1489h558v-186h-372v-1117h372v-186h-931v186h373v1303z" />
    <glyph glyph-name="uni1E9E" unicode="&#x1e9e;" 
d="M186 186v1117h186v-1303h-372v186h186zM1117 1489v-186h-186v-558h-186v558h-373v186h745zM931 186v-186h-372v186h372zM931 745h186v-559h-186v559z" />
    <glyph glyph-name="uni1EA0" unicode="&#x1ea0;" 
d="M186 1117h186v-372h559v372h186v-1117h-186v559h-559v-559h-186v1117zM559 1489h186v-186h-186v186zM372 1303h187v-186h-187v186zM745 1303h186v-186h-186v186zM559 -186h186v-186h-186v186z" />
    <glyph glyph-name="uni1EA1" unicode="&#x1ea1;" 
d="M186 559h186v-373h-186v373zM372 186h373v-186h-373v186zM745 372h186v187h-559v186h559v186h186v-931h-186v186h-186v186zM372 1117h559v-186h-559v186zM559 -186h186v-186h-186v186z" />
    <glyph glyph-name="uni1EB8" unicode="&#x1eb8;" 
d="M186 1489h931v-186h-745v-372h559v-186h-559v-559h745v-186h-931v1489zM559 -186h186v-186h-186v186z" />
    <glyph glyph-name="uni1EB9" unicode="&#x1eb9;" 
d="M372 1117h559v-186h-559v186zM186 931h186v-186h559v186h186v-372h-745v-373h-186v745zM372 186h559v-186h-559v186zM931 372h186v-186h-186v186zM559 -186h186v-186h-186v186z" />
    <glyph glyph-name="uni1EBC" unicode="&#x1ebc;" 
d="M186 1489h931v-186h-745v-372h559v-186h-559v-559h745v-186h-931v1489zM372 1862h187v-186h-187v186zM559 2048h186v-186h-186v186zM745 1862h186v-186h-186v186zM931 2048h186v-186h-186v186z" />
    <glyph glyph-name="uni1EBD" unicode="&#x1ebd;" 
d="M372 1117h559v-186h-559v186zM186 931h186v-186h559v186h186v-372h-745v-373h-186v745zM372 186h559v-186h-559v186zM931 372h186v-186h-186v186zM372 1489h187v-186h-187v186zM559 1676h186v-187h-186v187zM745 1489h186v-186h-186v186zM931 1676h186v-187h-186v187z
" />
    <glyph glyph-name="uni1ECA" unicode="&#x1eca;" 
d="M559 186v1117h-373v186h931v-186h-372v-1117h372v-186h-931v186h373zM559 -186h186v-186h-186v186z" />
    <glyph glyph-name="uni1ECB" unicode="&#x1ecb;" 
d="M559 931h-373v186h559v-931h372v-186h-931v186h373v745zM559 1489h186v-186h-186v186zM559 -186h186v-186h-186v186z" />
    <glyph glyph-name="uni1ECC" unicode="&#x1ecc;" 
d="M186 1303h186v-1117h-186v1117zM372 186h559v-186h-559v186zM931 1303h186v-1117h-186v1117zM372 1489h559v-186h-559v186zM559 -186h186v-186h-186v186z" />
    <glyph glyph-name="uni1ECD" unicode="&#x1ecd;" 
d="M372 1117h559v-186h-559v186zM931 931h186v-745h-186v745zM186 931h186v-745h-186v745zM372 186h559v-186h-559v186zM559 -186h186v-186h-186v186z" />
    <glyph glyph-name="uni1EE4" unicode="&#x1ee4;" 
d="M186 1489h186v-1303h-186v1303zM372 186h559v-186h-559v186zM931 1489h186v-1303h-186v1303zM559 -186h186v-186h-186v186z" />
    <glyph glyph-name="uni1EE5" unicode="&#x1ee5;" 
d="M186 1117h186v-931h-186v931zM372 186h373v-186h-373v186zM931 1117h186v-1117h-186v186h-186v186h186v745zM559 -186h186v-186h-186v186z" />
    <glyph glyph-name="Ygrave" unicode="&#x1ef2;" 
d="M186 1489h186v-558h-186v558zM931 1489h186v-558h-186v558zM559 745h186v-745h-186v745zM372 931h187v-186h-187v186zM745 931h186v-186h-186v186zM372 2048h187v-186h-187v186zM559 1862h186v-186h-186v186z" />
    <glyph glyph-name="ygrave" unicode="&#x1ef3;" 
d="M186 1117h186v-558h-186v558zM931 1117h186v-558h-186v558zM559 186h186v-372h-186v372zM559 -186v-186h-373v186h373zM745 559h186v-373h-186v373zM372 559h187v-373h-187v373zM372 1676h187v-187h-187v187zM559 1489h186v-186h-186v186z" />
    <glyph glyph-name="uni1EF8" unicode="&#x1ef8;" 
d="M186 1489h186v-558h-186v558zM931 1489h186v-558h-186v558zM559 745h186v-745h-186v745zM372 931h187v-186h-187v186zM745 931h186v-186h-186v186zM372 1862h187v-186h-187v186zM559 2048h186v-186h-186v186zM745 1862h186v-186h-186v186zM931 2048h186v-186h-186v186z
" />
    <glyph glyph-name="uni1EF9" unicode="&#x1ef9;" 
d="M186 1117h186v-558h-186v558zM931 1117h186v-558h-186v558zM559 186h186v-372h-186v372zM559 -186v-186h-373v186h373zM745 559h186v-373h-186v373zM372 559h187v-373h-187v373zM372 1489h187v-186h-187v186zM559 1676h186v-187h-186v187zM745 1489h186v-186h-186v186z
M931 1676h186v-187h-186v187z" />
    <glyph glyph-name="uni2010" unicode="&#x2010;" 
d="M931 745v-186h-559v186h559z" />
    <glyph glyph-name="endash" unicode="&#x2013;" 
d="M186 745h931v-186h-931v186z" />
    <glyph glyph-name="emdash" unicode="&#x2014;" 
d="M1303 745v-186h-1303v186h1303z" />
    <glyph glyph-name="uni2015" unicode="&#x2015;" 
d="M1303 745v-186h-1303v186h1303z" />
    <glyph glyph-name="quoteleft" unicode="&#x2018;" 
d="M559 1303h186v-372h-186v372zM745 1489h186v-186h-186v186z" />
    <glyph glyph-name="quoteright" unicode="&#x2019;" 
d="M559 1489h186v-372h-186v372zM372 1117h187v-186h-187v186z" />
    <glyph glyph-name="quotesinglbase" unicode="&#x201a;" 
d="M559 372h186v-372h-186v372zM372 0h187v-186h-187v186z" />
    <glyph glyph-name="quotedblleft" unicode="&#x201c;" 
d="M372 1303h187v-372h-187v372zM745 1303h-186v186h186v-186zM745 1303h186v-372h-186v372zM931 1489h186v-186h-186v186z" />
    <glyph glyph-name="quotedblright" unicode="&#x201d;" 
d="M372 1489h187v-372h-187v372zM745 1489h186v-372h-186v372zM186 1117h186v-186h-186v186zM559 1117h186v-186h-186v186z" />
    <glyph glyph-name="quotedblbase" unicode="&#x201e;" 
d="M372 372h187v-372h-187v372zM186 0h186v-186h-186v186zM745 372h186v-372h-186v372zM559 0h186v-186h-186v186z" />
    <glyph glyph-name="dagger" unicode="&#x2020;" 
d="M745 1303h372v-186h-372v-745h-186v745h-373v186h373v373h186v-373z" />
    <glyph glyph-name="daggerdbl" unicode="&#x2021;" 
d="M186 1303h373v373h186v-373h372v-186h-372v-372h372v-186h-372v-373h-186v373h-373v186h373v372h-373v186z" />
    <glyph glyph-name="bullet" unicode="&#x2022;" 
d="M372 931h373v-372h-373v372z" />
    <glyph glyph-name="ellipsis" unicode="&#x2026;" 
d="M186 372h186v-372h-186v372zM931 372h186v-372h-186v372zM559 372h186v-372h-186v372z" />
    <glyph glyph-name="uni2027" unicode="&#x2027;" 
d="M559 1117h186v-372h-186v372z" />
    <glyph glyph-name="perthousand" unicode="&#x2030;" 
d="M186 1489h186v-186h-186v186zM559 1489h-187v187h187v-187zM559 1489h186v-186h-186v186zM559 186h-187v186h187v-186zM559 186h186v-186h-186v186zM559 559h186v-187h-186v187zM745 372h186v-186h-186v186zM931 1117h372v-186h-372v186zM931 931v-186h-559v186h559z
M372 745v-186h-372v186h372zM372 1303h187v-186h-187v186zM931 186h186v-186h-186v186zM931 559h186v-187h-186v187zM1117 372h186v-186h-186v186z" />
    <glyph glyph-name="minute" unicode="&#x2032;" 
d="M559 1489h186v-558h-186v558z" />
    <glyph glyph-name="second" unicode="&#x2033;" 
d="M372 1489h187v-558h-187v558zM745 1489h186v-558h-186v558z" />
    <glyph glyph-name="guilsinglleft" unicode="&#x2039;" 
d="M745 1117h186v-186h-186v186zM559 931h186v-186h-186v186zM372 745h187v-186h-187v186zM559 559h186v-187h-186v187zM745 372h186v-186h-186v186z" />
    <glyph glyph-name="guilsinglright" unicode="&#x203a;" 
d="M372 1117h187v-186h-187v186zM559 931h186v-186h-186v186zM745 745h186v-186h-186v186zM559 559h186v-187h-186v187zM372 372h187v-186h-187v186z" />
    <glyph glyph-name="fraction" unicode="&#x2044;" 
d="M0 559h372v-187h-372v187zM931 745v-186h-559v186h559zM931 931h372v-186h-372v186z" />
    <glyph glyph-name="uni204A" unicode="&#x204a;" 
d="M186 1117h931v-558h-186v372h-745v186zM745 559h186v-559h-186v559zM559 0h186v-372h-186v372z" />
    <glyph glyph-name="uni2052" unicode="&#x2052;" 
d="M186 1489h373v-372h-373v372zM931 372h372v-372h-372v372zM931 1117h186v-186h-186v186zM559 745h186v-186h-186v186zM372 559h187v-187h-187v187zM1117 1489h186v-372h-186v372zM745 931h186v-186h-186v186zM186 372h186v-372h-186v372z" />
    <glyph glyph-name="uni2070" unicode="&#x2070;" 
d="M372 745h-186v744h186v-372h187v-186h-187v-186zM372 745h559v-186h-559v186zM372 1676h559v-187h186v-744h-186v558h-186v186h-373v187zM559 1303h186v-186h-186v186z" />
    <glyph glyph-name="uni2074" unicode="&#x2074;" 
d="M372 1303h187v-186h-187v186zM559 1489h186v-186h-186v186zM931 1489h-186v187h372v-1117h-186v186h-745v372h186v-186h559v558z" />
    <glyph glyph-name="uni2075" unicode="&#x2075;" 
d="M186 1676h931v-187h-745v-186h559v-186h-745v559zM931 1117h186v-372h-186v372zM931 745v-186h-559v186h559zM372 745h-186v186h186v-186z" />
    <glyph glyph-name="uni2076" unicode="&#x2076;" 
d="M186 1489h186v-186h559v-186h-559v-372h-186v744zM931 1676v-187h-559v187h559zM931 745v-186h-559v186h559zM931 1117h186v-372h-186v372z" />
    <glyph glyph-name="uni2077" unicode="&#x2077;" 
d="M186 1676h931v-373h-186v186h-745v187zM745 1303h186v-186h-186v186zM559 1117h186v-186h-186v186zM372 931h187v-372h-187v372z" />
    <glyph glyph-name="uni2078" unicode="&#x2078;" 
d="M372 745h-186v372h186v-372zM372 745h559v-186h-559v186zM931 1117h186v-372h-186v372zM931 1303v-186h-559v186h559zM372 1303h-186v186h186v-186zM931 1489h-559v187h559v-187zM931 1489h186v-186h-186v186z" />
    <glyph glyph-name="uni2079" unicode="&#x2079;" 
d="M186 1489h186v-372h-186v372zM372 1676h559v-187h-559v187zM931 1489h186v-744h-186v186h-559v186h559v372zM931 745v-186h-559v186h559z" />
    <glyph glyph-name="uni2080" unicode="&#x2080;" 
d="M372 -186h-186v745h186v-373h187v-186h-187v-186zM372 -186h559v-186h-559v186zM372 745h559v-186h186v-745h-186v558h-186v187h-373v186zM559 372h186v-186h-186v186z" />
    <glyph glyph-name="uni2081" unicode="&#x2081;" 
d="M559 745h186v-931h186v-186h-559v186h187v558h-187v187h187v186z" />
    <glyph glyph-name="uni2082" unicode="&#x2082;" 
d="M186 -186h186v186h187v-186h558v-186h-931v186zM559 186h186v-186h-186v186zM745 372h186v-186h-186v186zM931 559h-559v186h559v-186zM931 559h186v-187h-186v187zM186 559h186v-187h-186v187z" />
    <glyph glyph-name="uni2083" unicode="&#x2083;" 
d="M186 0h186v-186h-186v186zM186 559h186v-187h-186v187zM372 -186h559v-186h-559v186zM372 745h559v-186h-559v186zM931 372v-186h-372v186h372zM931 559h186v-187h-186v187zM931 186h186v-372h-186v372z" />
    <glyph glyph-name="uni2084" unicode="&#x2084;" 
d="M372 372h187v-186h-187v186zM559 559h186v-187h-186v187zM931 559h-186v186h372v-1117h-186v186h-745v372h186v-186h559v559z" />
    <glyph glyph-name="uni2085" unicode="&#x2085;" 
d="M186 745h931v-186h-745v-187h559v-186h-745v559zM931 186h186v-372h-186v372zM931 -186v-186h-559v186h559zM372 -186h-186v186h186v-186z" />
    <glyph glyph-name="uni2086" unicode="&#x2086;" 
d="M186 559h186v-187h559v-186h-559v-372h-186v745zM931 745v-186h-559v186h559zM931 -186v-186h-559v186h559zM931 186h186v-372h-186v372z" />
    <glyph glyph-name="uni2087" unicode="&#x2087;" 
d="M186 745h931v-373h-186v187h-745v186zM745 372h186v-186h-186v186zM559 186h186v-186h-186v186zM372 0h187v-372h-187v372z" />
    <glyph glyph-name="uni2088" unicode="&#x2088;" 
d="M372 -186h-186v372h186v-372zM372 -186h559v-186h-559v186zM931 186h186v-372h-186v372zM931 372v-186h-559v186h559zM372 372h-186v187h186v-187zM931 559h-559v186h559v-186zM931 559h186v-187h-186v187z" />
    <glyph glyph-name="uni2089" unicode="&#x2089;" 
d="M186 559h186v-373h-186v373zM372 745h559v-186h-559v186zM931 559h186v-745h-186v186h-559v186h559v373zM931 -186v-186h-559v186h559z" />
    <glyph glyph-name="franc" unicode="&#x20a3;" 
d="M186 1489h931v-186h-745v-372h559v-186h-559v-373h373v-186h-373v-186h-186v186h-186v186h186v1117z" />
    <glyph glyph-name="uni20A9" unicode="&#x20a9;" 
d="M186 1117v372h186v-372h559v372h186v-372h186v-186h-186v-372h-186v372h-186v-372h-186v372h-187v-372h-186v372h-186v186h186zM372 559h187v-559h-187v559zM745 559h186v-559h-186v559z" />
    <glyph glyph-name="uni20AA" unicode="&#x20aa;" 
d="M186 1489h373v-186h-187v-1303h-186v1489zM931 1489h186v-1489h-372v186h186v1303zM559 1303h186v-372h-186v372zM745 186h-186v559h186v-559z" />
    <glyph glyph-name="Euro" unicode="&#x20ac;" 
d="M186 1303h186v-372h373v-186h-373v-559h-186v559h-186v186h186v372zM931 186v-186h-559v186h559zM931 1489v-186h-559v186h559zM931 372h186v-186h-186v186zM931 1303h186v-186h-186v186z" />
    <glyph glyph-name="uni20AE" unicode="&#x20ae;" 
d="M186 1489h931v-186h-372v-372h186v-186h-186v-186h186v-187h-186v-372h-186v186h-187v186h187v187h-187v186h187v558h-373v186zM372 372h-186v187h186v-187zM931 1117h186v-186h-186v186zM186 186h186v-186h-186v186zM931 745h186v-186h-186v186z" />
    <glyph glyph-name="uni20B4" unicode="&#x20b4;" 
d="M745 931v186h186v-186h186v-186h-558v-186h-187v186h-186v186h559zM186 559h186v-373h-186v373zM931 186v-186h-559v186h559zM931 1489v-186h-559v186h559zM931 372h186v-186h-186v186zM931 1303h186v-186h-186v186zM186 1303h186v-186h-186v186z" />
    <glyph glyph-name="uni20B8" unicode="&#x20b8;" 
d="M186 1489h931v-186h-372v-186h372v-186h-372v-931h-186v931h-373v186h373v186h-373v186z" />
    <glyph glyph-name="uni20B9" unicode="&#x20b9;" 
d="M186 1489h931v-186h-186v-186h186v-186h-372v-186h-186v186h-373v186h559v186h-559v186zM559 559h-187v186h187v-186zM559 559h186v-187h-186v187zM745 372h186v-186h-186v186zM931 186h186v-186h-186v186z" />
    <glyph glyph-name="uni20BA" unicode="&#x20ba;" 
d="M559 1303h186v-186h-186v-186h186v-186h-186v-559h186v-186h-373v559h-186v186h186v186h-186v186h186v372h187v-186zM745 1489h186v-186h-186v186zM745 1117h186v-186h-186v186zM931 745h186v-373h-186v373zM745 372h186v-186h-186v186z" />
    <glyph glyph-name="uni20BD" unicode="&#x20bd;" 
d="M186 1489h745v-186h-559v-558h559v-186h-559v-187h373v-186h-373v-186h-186v186h-186v186h186v187h-186v186h186v744zM931 1303h186v-558h-186v558z" />
    <glyph glyph-name="uni20BF" unicode="&#x20bf;" 
d="M931 1303h-559v-372h559v-186h-559v-559h559v-372h-186v186h-186v-186h-187v186h-186v1489h186v187h187v-187h186v187h186v-373zM931 1303h186v-372h-186v372zM931 745h186v-559h-186v559z" />
    <glyph glyph-name="uni2113" unicode="&#x2113;" 
d="M186 372h186v559h187v-372h186v-187h-186v-186h-373v186zM745 745h186v-186h-186v186zM931 1303h186v-558h-186v558zM931 1303h-186v186h186v-186zM559 1303h186v-372h-186v372zM559 186h372v-186h-372v186zM931 372h186v-186h-186v186z" />
    <glyph glyph-name="uni2116" unicode="&#x2116;" 
d="M0 1489h186v-372h186v-186h-186v-931h-186v1489zM559 745h-187v186h187v558h186v-372h186v-186h-186v-931h-186v745zM1117 1117h-186v186h186v-186zM1117 1117h186v-186h-186v186zM931 931h186v-186h-186v186zM931 559h186v-187h-186v187z" />
    <glyph glyph-name="trademark" unicode="&#x2122;" 
d="M186 1489h745v-186h186v186h186v-558h-558v372h-186v-372h-187v372h-186v186z" />
    <glyph glyph-name="uni2126" unicode="&#x2126;" 
d="M186 1303h186v-931h-186v931zM931 1303h186v-931h-186v931zM186 186h186v186h187v-372h-373v186zM931 186h186v-186h-372v372h186v-186zM931 1489v-186h-559v186h559z" />
    <glyph glyph-name="estimated" unicode="&#x212e;" 
d="M372 1303h559v-186h-559v186zM186 1117h186v-372h559v372h186v-186h186v-372h-931v-373h-186v186h-186v559h186v186zM372 186h559v-186h-559v186zM931 372h186v-186h-186v186z" />
    <glyph glyph-name="uni2150" unicode="&#x2150;" 
d="M186 1862h186v-745h187v-186h-559v186h186v372h-186v187h186v186zM0 559h372v-187h-372v187zM931 745v-186h-559v186h559zM931 931h372v-186h-372v186zM559 372h744v-372h-186v186h-558v186zM931 0h186v-186h-186v186zM745 -186h186v-373h-186v373z" />
    <glyph glyph-name="uni2151" unicode="&#x2151;" 
d="M186 1862h186v-745h187v-186h-559v186h186v372h-186v187h186v186zM0 559h372v-187h-372v187zM931 745v-186h-559v186h559zM931 931h372v-186h-372v186zM559 186h186v-186h-186v186zM745 372h372v-186h-372v186zM1117 186h186v-558h-186v186h-372v186h372v186zM1117 -372
v-187h-372v187h372z" />
    <glyph glyph-name="uni2153" unicode="&#x2153;" 
d="M186 1862h186v-745h187v-186h-559v186h186v372h-186v187h186v186zM0 559h372v-187h-372v187zM931 745v-186h-559v186h559zM931 931h372v-186h-372v186zM559 -186h186v-186h-186v186zM559 186h186v-186h-186v186zM745 -372h372v-187h-372v187zM745 372h372v-186h-372v186z
M931 0h186v-186h-186v186zM1117 186h186v-186h-186v186zM1117 -186h186v-186h-186v186z" />
    <glyph glyph-name="uni2154" unicode="&#x2154;" 
d="M0 1117h186v186h186v-186h373v-186h-745v186zM372 1489h187v-186h-187v186zM559 1676h-373v186h373v-186zM559 1676h186v-187h-186v187zM0 1676h186v-187h-186v187zM0 559h372v-187h-372v187zM931 745v-186h-559v186h559zM931 931h372v-186h-372v186zM559 -186h186v-186
h-186v186zM559 186h186v-186h-186v186zM745 -372h372v-187h-372v187zM745 372h372v-186h-372v186zM931 0h186v-186h-186v186zM1117 186h186v-186h-186v186zM1117 -186h186v-186h-186v186z" />
    <glyph glyph-name="uni2155" unicode="&#x2155;" 
d="M186 1862h186v-745h187v-186h-559v186h186v372h-186v187h186v186zM0 559h372v-187h-372v187zM931 745v-186h-559v186h559zM931 931h372v-186h-372v186zM559 372h744v-186h-558v-186h372v-186h-558v558zM1117 -186h186v-186h-186v186zM1117 -372v-187h-372v187h372z" />
    <glyph glyph-name="uni2156" unicode="&#x2156;" 
d="M0 1117h186v186h186v-186h373v-186h-745v186zM372 1489h187v-186h-187v186zM559 1676h-373v186h373v-186zM559 1676h186v-187h-186v187zM0 1676h186v-187h-186v187zM0 559h372v-187h-372v187zM931 745v-186h-559v186h559zM931 931h372v-186h-372v186zM559 372h744v-186
h-558v-186h372v-186h-558v558zM1117 -186h186v-186h-186v186zM1117 -372v-187h-372v187h372z" />
    <glyph glyph-name="uni2157" unicode="&#x2157;" 
d="M0 1303h186v-186h-186v186zM0 1676h186v-187h-186v187zM186 1117h373v-186h-373v186zM186 1862h373v-186h-373v186zM372 1489h187v-186h-187v186zM559 1676h186v-187h-186v187zM559 1303h186v-186h-186v186zM0 559h372v-187h-372v187zM931 745v-186h-559v186h559z
M931 931h372v-186h-372v186zM559 372h744v-186h-558v-186h372v-186h-558v558zM1117 -186h186v-186h-186v186zM1117 -372v-187h-372v187h372z" />
    <glyph glyph-name="uni2158" unicode="&#x2158;" 
d="M372 1862h373v-931h-186v186h-559v372h186v-186h373v373h-187v186zM186 1676h186v-187h-186v187zM0 559h372v-187h-372v187zM931 745v-186h-559v186h559zM931 931h372v-186h-372v186zM559 372h744v-186h-558v-186h372v-186h-558v558zM1117 -186h186v-186h-186v186z
M1117 -372v-187h-372v187h372z" />
    <glyph glyph-name="uni2159" unicode="&#x2159;" 
d="M186 1862h186v-745h187v-186h-559v186h186v372h-186v187h186v186zM0 559h372v-187h-372v187zM931 745v-186h-559v186h559zM931 931h372v-186h-372v186zM559 186h186v-186h372v-186h-372v-186h-186v558zM1117 372v-186h-372v186h372zM1117 -372v-187h-372v187h372z
M1117 -186h186v-186h-186v186z" />
    <glyph glyph-name="uni215A" unicode="&#x215a;" 
d="M0 1862h745v-186h-559v-187h373v-186h-559v559zM559 1303h186v-186h-186v186zM559 1117v-186h-373v186h373zM0 559h372v-187h-372v187zM931 745v-186h-559v186h559zM931 931h372v-186h-372v186zM559 186h186v-186h372v-186h-372v-186h-186v558zM1117 372v-186h-372v186
h372zM1117 -372v-187h-372v187h372zM1117 -186h186v-186h-186v186z" />
    <glyph glyph-name="oneeighth" unicode="&#x215b;" 
d="M0 559h372v-187h-372v187zM931 745v-186h-559v186h559zM931 931h372v-186h-372v186zM745 -372h-186v186h186v-186zM745 -372h372v-187h-372v187zM1117 -186h-372v186h372v-186zM1117 -186h186v-186h-186v186zM745 0h-186v186h186v-186zM1117 186h-372v186h372v-186z
M1117 186h186v-186h-186v186zM186 1862h186v-745h187v-186h-559v186h186v372h-186v187h186v186z" />
    <glyph glyph-name="threeeighths" unicode="&#x215c;" 
d="M0 559h372v-187h-372v187zM931 745v-186h-559v186h559zM931 931h372v-186h-372v186zM0 1303h186v-186h-186v186zM0 1676h186v-187h-186v187zM186 1117h373v-186h-373v186zM186 1862h373v-186h-373v186zM372 1489h187v-186h-187v186zM559 1676h186v-187h-186v187z
M559 1303h186v-186h-186v186zM745 -372h-186v186h186v-186zM745 -372h372v-187h-372v187zM1117 -186h-372v186h372v-186zM1117 -186h186v-186h-186v186zM745 0h-186v186h186v-186zM1117 186h-372v186h372v-186zM1117 186h186v-186h-186v186z" />
    <glyph glyph-name="fiveeighths" unicode="&#x215d;" 
d="M0 559h372v-187h-372v187zM931 745v-186h-559v186h559zM931 931h372v-186h-372v186zM745 -372h-186v186h186v-186zM745 -372h372v-187h-372v187zM1117 -186h-372v186h372v-186zM1117 -186h186v-186h-186v186zM745 0h-186v186h186v-186zM1117 186h-372v186h372v-186z
M1117 186h186v-186h-186v186zM0 1862h745v-186h-559v-187h373v-186h-559v559zM559 1303h186v-186h-186v186zM559 1117v-186h-373v186h373z" />
    <glyph glyph-name="seveneighths" unicode="&#x215e;" 
d="M0 559h372v-187h-372v187zM931 745v-186h-559v186h559zM931 931h372v-186h-372v186zM0 1862h745v-373h-186v187h-559v186zM372 1489h187v-186h-187v186zM186 1303h186v-372h-186v372zM745 -372h-186v186h186v-186zM745 -372h372v-187h-372v187zM1117 -186h-372v186h372
v-186zM1117 -186h186v-186h-186v186zM745 0h-186v186h186v-186zM1117 186h-372v186h372v-186zM1117 186h186v-186h-186v186z" />
    <glyph glyph-name="uni2189" unicode="&#x2189;" 
d="M186 1117h-186v559h186v-187h186v-186h-186v-186zM186 1117h373v-186h-373v186zM186 1862h373v-186h186v-559h-186v372h-187v187h-186v186zM0 559h372v-187h-372v187zM931 745v-186h-559v186h559zM931 931h372v-186h-372v186zM559 -186h186v-186h-186v186zM559 186h186
v-186h-186v186zM745 -372h372v-187h-372v187zM745 372h372v-186h-372v186zM931 0h186v-186h-186v186zM1117 186h186v-186h-186v186zM1117 -186h186v-186h-186v186z" />
    <glyph glyph-name="arrowleft" unicode="&#x2190;" 
d="M0 745h186v186h186v-186h931v-186h-931v-187h-186v187h-186v186zM372 1117h187v-186h-187v186zM372 372h187v-186h-187v186z" />
    <glyph glyph-name="arrowup" unicode="&#x2191;" 
d="M559 1117h-187v186h187v186h186v-186h186v-186h-186v-1117h-186v1117zM186 1117h186v-186h-186v186zM931 1117h186v-186h-186v186z" />
    <glyph glyph-name="arrowright" unicode="&#x2192;" 
d="M931 745v186h186v-186h186v-186h-186v-187h-186v187h-931v186h931zM931 931h-186v186h186v-186zM745 372h186v-186h-186v186z" />
    <glyph glyph-name="arrowdown" unicode="&#x2193;" 
d="M559 1489h186v-1117h186v-186h-186v-186h-186v186h-187v186h187v1117zM186 559h186v-187h-186v187zM931 559h186v-187h-186v187z" />
    <glyph glyph-name="arrowupdn" unicode="&#x2195;" 
d="M559 1303h-187v186h187v187h186v-187h186v-186h-186v-1117h186v-186h-186v-186h-186v186h-187v186h187v1117zM186 1303h186v-186h-186v186zM931 1303h186v-186h-186v186zM186 372h186v-186h-186v186zM931 372h186v-186h-186v186z" />
    <glyph glyph-name="uni2196" unicode="&#x2196;" 
d="M186 1303h745v-186h-372v-186h-187v-372h-186v744zM559 931h186v-186h-186v186zM745 745h186v-186h-186v186zM931 559h186v-187h-186v187zM1117 372h186v-186h-186v186z" />
    <glyph glyph-name="uni2197" unicode="&#x2197;" 
d="M1117 1303v-744h-186v372h-186v186h-373v186h745zM559 931h186v-186h-186v186zM372 745h187v-186h-187v186zM186 559h186v-187h-186v187zM0 372h186v-186h-186v186z" />
    <glyph glyph-name="uni2198" unicode="&#x2198;" 
d="M186 1117h-186v186h186v-186zM186 1117h186v-186h-186v186zM372 931h187v-186h-187v186zM559 745h186v-186h-186v186zM745 559h186v372h186v-745h-745v186h373v187z" />
    <glyph glyph-name="uni2199" unicode="&#x2199;" 
d="M931 1117h186v-186h-186v186zM745 931h186v-186h-186v186zM559 745h186v-186h-186v186zM372 559h187v-187h372v-186h-745v745h186v-372zM1117 1303h186v-186h-186v186z" />
    <glyph glyph-name="uni21B0" unicode="&#x21b0;" 
d="M0 1117h186v186h186v-186h745v-1117h-186v931h-559v-186h-186v186h-186v186zM372 1489h187v-186h-187v186zM372 745h187v-186h-187v186z" />
    <glyph glyph-name="uni21B1" unicode="&#x21b1;" 
d="M931 1117v186h186v-186h186v-186h-186v-186h-186v186h-559v-931h-186v1117h745zM931 1303h-186v186h186v-186zM745 745h186v-186h-186v186z" />
    <glyph glyph-name="uni21B2" unicode="&#x21b2;" 
d="M0 559h186v186h186v-186h559v930h186v-1117h-745v-186h-186v186h-186v187zM372 931h187v-186h-187v186zM372 186h187v-186h-187v186z" />
    <glyph glyph-name="uni21B3" unicode="&#x21b3;" 
d="M931 559v186h186v-186h186v-187h-186v-186h-186v186h-745v1117h186v-930h559zM931 745h-186v186h186v-186zM745 186h186v-186h-186v186z" />
    <glyph glyph-name="uni21B4" unicode="&#x21b4;" 
d="M745 1303h-559v186h745v-1117h186v-186h-186v-186h-186v186h-186v186h186v931zM372 559h187v-187h-187v187zM1117 559h186v-187h-186v187z" />
    <glyph glyph-name="carriagereturn" unicode="&#x21b5;" 
d="M0 559h186v186h186v-186h559v930h186v-1117h-745v-186h-186v186h-186v187zM372 931h187v-186h-187v186zM372 186h187v-186h-187v186z" />
    <glyph glyph-name="partialdiff" unicode="&#x2202;" 
d="M931 931v372h186v-931h-186v373h-372v186h372zM186 559h186v-373h-186v373zM372 186h373v-186h-373v186zM931 1303h-372v186h372v-186zM372 745h187v-186h-187v186zM745 372h186v-186h-186v186z" />
    <glyph glyph-name="uni2206" unicode="&#x2206;" 
d="M186 559h186v-373h559v373h186v-559h-931v559zM372 1117h187v-558h-187v558zM559 1489h186v-372h-186v372zM745 1117h186v-558h-186v558z" />
    <glyph glyph-name="product" unicode="&#x220f;" 
d="M1117 1489v-1489h-186v1303h-559v-1303h-186v1489h931z" />
    <glyph glyph-name="summation" unicode="&#x2211;" 
d="M186 1489h931v-372h-186v186h-559v-186h-186v372zM372 745h187v-186h-187v186zM186 559h186v-373h559v186h186v-372h-931v559zM372 1117h187v-186h-187v186zM559 931h186v-186h-186v186z" />
    <glyph glyph-name="minus" unicode="&#x2212;" 
d="M186 745h931v-186h-931v186z" />
    <glyph glyph-name="uni2219" unicode="&#x2219;" 
d="M559 931h186v-372h-186v372z" />
    <glyph glyph-name="radical" unicode="&#x221a;" 
d="M745 1117h186v-372h-186v372zM186 745h186v-373h-186v373zM372 372h187v-372h-187v372zM559 745h186v-373h-186v373zM931 1489h186v-372h-186v372z" />
    <glyph glyph-name="infinity" unicode="&#x221e;" 
d="M931 931h-186v186h186v-186zM931 931h186v-559h-186v559zM186 931h186v-559h-186v559zM372 372h187v-186h-187v186zM559 931h186v-559h-186v559zM559 931h-187v186h187v-186zM745 372h186v-186h-186v186z" />
    <glyph glyph-name="integral" unicode="&#x222b;" 
d="M559 1303h186v-1489h-186v1489zM745 1489h372v-186h-372v186zM186 -186h373v-186h-373v186z" />
    <glyph glyph-name="approxequal" unicode="&#x2248;" 
d="M559 931h-187v186h187v-186zM559 931h372v-186h-372v186zM931 1117h186v-186h-186v186zM559 372h-187v187h187v-187zM559 372h372v-186h-372v186zM931 559h186v-187h-186v187zM186 931h186v-186h-186v186zM186 372h186v-186h-186v186z" />
    <glyph glyph-name="notequal" unicode="&#x2260;" 
d="M186 931h559v186h186v-186h186v-186h-372v-186h372v-187h-558v-186h-187v186h-186v187h373v186h-373v186z" />
    <glyph glyph-name="lessequal" unicode="&#x2264;" 
d="M559 1303h186v-186h-186v186zM372 1117h187v-186h-187v186zM559 559h-187v186h187v-186zM559 559h186v-187h-186v187zM931 0v-186h-745v186h745zM745 1489h186v-186h-186v186zM745 372h186v-186h-186v186zM186 931h186v-186h-186v186z" />
    <glyph glyph-name="greaterequal" unicode="&#x2265;" 
d="M372 1489h187v-186h-187v186zM372 372h187v-186h-187v186zM1117 0v-186h-745v186h745zM745 1117h-186v186h186v-186zM745 1117h186v-186h-186v186zM745 745h186v-186h-186v186zM931 931h186v-186h-186v186zM559 559h186v-187h-186v187z" />
    <glyph glyph-name="uni2318" unicode="&#x2318;" 
d="M745 1303h186v-186h186v-186h-186v-372h186v-187h-186v-186h-186v186h-186v-186h-187v186h-186v187h186v372h-186v186h186v186h187v-186h186v186zM1117 1303h-186v186h186v-186zM1117 1303h186v-186h-186v186zM559 559h186v372h-186v-372zM186 1117h-186v186h186v-186z
M186 1489h186v-186h-186v186zM931 186h186v-186h-186v186zM186 186h-186v186h186v-186zM186 186h186v-186h-186v186zM1117 372h186v-186h-186v186z" />
    <glyph glyph-name="uni2325" unicode="&#x2325;" 
d="M0 1489h372v-186h-372v186zM372 1303h187v-558h-187v558zM559 745h186v-559h-186v559zM745 186h372v-186h-372v186zM745 1489h372v-186h-372v186z" />
    <glyph glyph-name="uni2500" unicode="&#x2500;" 
d="M1303 745v-186h-1303v186h1303z" />
    <glyph glyph-name="uni2502" unicode="&#x2502;" 
d="M559 2048h186v-2607h-186v2607z" />
    <glyph glyph-name="uni250C" unicode="&#x250c;" 
d="M559 745h744v-186h-558v-1118h-186v1304z" />
    <glyph glyph-name="uni2510" unicode="&#x2510;" 
d="M745 745v-1304h-186v1118h-559v186h745z" />
    <glyph glyph-name="uni2514" unicode="&#x2514;" 
d="M559 2048h186v-1303h558v-186h-744v1489z" />
    <glyph glyph-name="uni2518" unicode="&#x2518;" 
d="M559 745v1303h186v-1489h-745v186h559z" />
    <glyph glyph-name="uni251C" unicode="&#x251c;" 
d="M559 2048h186v-1303h558v-186h-558v-1118h-186v2607z" />
    <glyph glyph-name="uni2524" unicode="&#x2524;" 
d="M559 2048h186v-2607h-186v1118h-559v186h559v1303z" />
    <glyph glyph-name="uni252C" unicode="&#x252c;" 
d="M1303 745v-186h-558v-1118h-186v1118h-559v186h1303z" />
    <glyph glyph-name="uni2534" unicode="&#x2534;" 
d="M559 745v1303h186v-1303h558v-186h-1303v186h559z" />
    <glyph glyph-name="uni253C" unicode="&#x253c;" 
d="M559 2048h186v-1303h558v-186h-558v-1118h-186v1118h-559v186h559v1303z" />
    <glyph glyph-name="uni2550" unicode="&#x2550;" 
d="M1303 931v-186h-1303v186h1303zM1303 559v-187h-1303v187h1303z" />
    <glyph glyph-name="uni2551" unicode="&#x2551;" 
d="M372 2048h187v-2607h-187v2607zM745 2048h186v-2607h-186v2607z" />
    <glyph glyph-name="uni2554" unicode="&#x2554;" 
d="M1303 931v-186h-744v-1304h-187v1490h931zM745 559h558v-187h-372v-931h-186v1118z" />
    <glyph glyph-name="uni2557" unicode="&#x2557;" 
d="M931 931v-1490h-186v1304h-745v186h931zM372 372h-372v187h559v-1118h-187v931z" />
    <glyph glyph-name="uni255A" unicode="&#x255a;" 
d="M372 2048h187v-1489h744v-187h-931v1676zM745 2048h186v-1117h372v-186h-558v1303z" />
    <glyph glyph-name="uni255D" unicode="&#x255d;" 
d="M745 2048h186v-1676h-931v187h745v1489zM372 931v1117h187v-1303h-559v186h372z" />
    <glyph glyph-name="uni2560" unicode="&#x2560;" 
d="M372 2048h187v-2607h-187v2607zM745 2048h186v-1117h372v-186h-558v1303zM745 559h558v-187h-372v-931h-186v1118z" />
    <glyph glyph-name="uni2563" unicode="&#x2563;" 
d="M372 2048h187v-1303h-559v186h372v1117zM559 559v-1118h-187v931h-372v187h559zM745 2048h186v-2607h-186v2607z" />
    <glyph glyph-name="uni2566" unicode="&#x2566;" 
d="M1303 931v-186h-1303v186h1303zM372 372h-372v187h559v-1118h-187v931zM745 559h558v-187h-372v-931h-186v1118z" />
    <glyph glyph-name="uni2569" unicode="&#x2569;" 
d="M372 2048h187v-1303h-559v186h372v1117zM1303 559v-187h-1303v187h1303zM745 2048h186v-1117h372v-186h-558v1303z" />
    <glyph glyph-name="uni256C" unicode="&#x256c;" 
d="M372 2048h187v-1303h-559v186h372v1117zM559 559v-1118h-187v931h-372v187h559zM745 2048h186v-1117h372v-186h-558v1303zM745 559h558v-187h-372v-931h-186v1118z" />
    <glyph glyph-name="upblock" unicode="&#x2580;" 
d="M0 2048h1303v-1303h-1303v1303z" />
    <glyph glyph-name="dnblock" unicode="&#x2584;" 
d="M0 745h1303v-1304h-1303v1304z" />
    <glyph glyph-name="block" unicode="&#x2588;" 
d="M0 2048h1303v-2607h-1303v2607z" />
    <glyph glyph-name="ltshade" unicode="&#x2591;" 
d="M186 2048h186v-186h-186v186zM0 1862h186v-186h-186v186zM372 1862h187v-186h-187v186zM931 2048h186v-186h-186v186zM745 1862h186v-186h-186v186zM559 1676h186v-187h-186v187zM1117 1676h186v-187h-186v187zM745 1489h186v-186h-186v186zM186 1489h186v-186h-186v186z
M559 931h-187v186h187v-186zM559 931h186v-186h-186v186zM1117 1303h186v-186h-186v186zM745 1117h-186v186h186v-186zM745 1117h186v-186h-186v186zM0 1117h186v-186h-186v186zM372 745h187v-186h-187v186zM931 931h186v-186h-186v186zM0 745h186v-186h-186v186zM186 372
h186v-186h-186v186zM559 372h186v-186h-186v186zM745 559h186v-187h-186v187zM1117 559h186v-187h-186v187zM931 186h186v-186h-186v186zM0 186h186v-186h-186v186zM186 0h186v-186h-186v186zM559 0h186v-186h-186v186zM372 -186h187v-186h-187v186zM745 -186h186v-186h-186
v186zM559 -372h186v-187h-186v187zM0 -186h186v-186h-186v186zM1117 -372h186v-187h-186v187zM1117 0h186v-186h-186v186z" />
    <glyph glyph-name="shade" unicode="&#x2592;" 
d="M0 2048h186v-186h186v-186h-186v-187h-186v559zM372 2048h187v-186h-187v186zM1117 2048v-186h186v-186h-186v-187h186v-372h-186v186h-186v-186h-186v-186h186v186h186v-186h186v-559h-186v187h-186v186h-186v-186h-186v186h-187v186h187v186h-187v186h-186v186h186v187
h187v186h186v186h372zM931 1676h-186v-187h-186v-186h186v186h186v187zM0 1303h186v-186h186v-186h-186v-186h-186v558zM0 559h186v186h186v-186h187v-187h186v187h186v-187h186v-186h-186v-186h-186v-186h186v186h186v-186h186v-373h-186v187h-186v-187h-186v187h-186v186
h-187v186h187v186h-187v186h-186v-186h186v-186h-186v-186h-186v745zM1117 186h186v-186h-186v186zM186 -186h186v-186h187v-187h-559v187h186v186z" />
    <glyph glyph-name="dkshade" unicode="&#x2593;" 
d="M372 931h187v186h-187v-186zM372 1676v186h-186v-186h186zM745 1489h-186v-186h186v186zM1117 1489h186v-1861h-186v-187h-1117v1118h186v186h-186v1303h1303v-372h-186v-187zM559 372h-187v-186h187v186zM931 931h186v186h-186v-186zM1117 559h-186v-187h186v187zM931 0
h-186v-186h186v186zM372 -186h-186v-186h186v186z" />
    <glyph glyph-name="triagup" unicode="&#x25b2;" 
d="M372 1117h187v186h186v-186h186v-372h186v-373h186v-186h-1303v186h186v373h186v372z" />
    <glyph glyph-name="uni25B3" unicode="&#x25b3;" 
d="M372 1117h187v-372h-187v372zM186 745h186v-373h559v373h186v-373h186v-186h-1303v186h186v373zM559 1303h186v-186h-186v186zM745 1117h186v-372h-186v372z" />
    <glyph glyph-name="uni25B7" unicode="&#x25b7;" 
d="M931 745h-372v186h372v-186zM931 745h186v-186h-186v186zM931 559v-187h-372v187h372zM559 931h-373v-559h373v-186h-373v-186h-186v1303h186v-186h373v-186z" />
    <glyph glyph-name="triagrt" unicode="&#x25ba;" 
d="M931 745h186v-186h-186v-187h-372v-186h-373v-186h-186v1303h186v-186h373v-186h372v-186z" />
    <glyph glyph-name="triagdn" unicode="&#x25bc;" 
d="M559 372h-187v373h-186v372h-186v186h1303v-186h-186v-372h-186v-373h-186v-186h-186v186z" />
    <glyph glyph-name="uni25BD" unicode="&#x25bd;" 
d="M559 372h-187v373h187v-373zM559 372h186v-186h-186v186zM1303 1303v-186h-186v-372h-186v372h-559v-372h-186v372h-186v186h1303zM745 745h186v-373h-186v373z" />
    <glyph glyph-name="uni25C1" unicode="&#x25c1;" 
d="M186 745h186v-186h-186v186zM372 931h373v-186h-373v186zM745 1117h372v186h186v-1303h-186v186h-372v186h372v559h-372v186zM372 559h373v-187h-373v187z" />
    <glyph glyph-name="triaglf" unicode="&#x25c4;" 
d="M186 745h186v186h373v186h372v186h186v-1303h-186v186h-372v186h-373v187h-186v186z" />
    <glyph glyph-name="lozenge" unicode="&#x25ca;" 
d="M372 1303h187v-372h-187v372zM559 1676h186v-373h-186v373zM745 1303h186v-372h-186v372zM372 559h-186v372h186v-372zM372 559h187v-373h-187v373zM559 186h186v-372h-186v372zM745 559h186v-373h-186v373zM931 931h186v-372h-186v372z" />
    <glyph glyph-name="uni25CC" unicode="&#x25cc;" 
d="M186 745h186v-373h-186v373zM931 186v-186h-559v186h559zM931 1117v-186h-559v186h559zM931 745h186v-373h-186v373z" />
    <glyph glyph-name="uni2605" unicode="&#x2605;" 
d="M559 1489h186v-372h558v-186h-186v-186h-186v-373h186v-372h-186v186h-186v186h-186v-186h-187v-186h-186v372h186v373h-186v186h-186v186h559v372z" />
    <glyph glyph-name="uni2606" unicode="&#x2606;" 
d="M559 1489h186v-372h558v-186h-186v-186h-186v186h-559v-186h-186v186h-186v186h559v372zM372 745h187v-186h186v186h186v-373h186v-372h-186v186h-186v186h-186v-186h-187v-186h-186v372h186v373z" />
    <glyph glyph-name="spade" unicode="&#x2660;" 
d="M186 931v186h186v186h187v186h186v-186h186v-186h186v-186h186v-372h-186v-187h-372v-186h186v-186h-559v186h187v186h-373v187h-186v372h186z" />
    <glyph glyph-name="club" unicode="&#x2663;" 
d="M559 745v186h-187v372h187v186h186v-186h186v-372h-186v-186h186v186h186v-186h186v-373h-186v-186h-186v186h-186v-372h-186v372h-187v-186h-186v186h-186v373h186v186h186v-186h187z" />
    <glyph glyph-name="heart" unicode="&#x2665;" 
d="M745 1303h372v-186h186v-558h-186v-187h-186v-186h-186v-186h-186v186h-187v186h-186v187h-186v558h186v186h373v-186h186v186z" />
    <glyph glyph-name="diamond" unicode="&#x2666;" 
d="M559 1303v186h186v-186h186v-186h186v-186h186v-372h-186v-187h-186v-186h-186v-186h-186v186h-187v186h-186v187h-186v372h186v186h186v186h187z" />
    <glyph glyph-name="uni2669" unicode="&#x2669;" 
d="M745 559v930h186v-1489h-186v-186h-373v186h-186v372h186v187h373z" />
    <glyph glyph-name="musicalnote" unicode="&#x266a;" 
d="M745 559v930h186v-186h186v-186h-186v-1117h-186v-186h-373v186h-186v372h186v187h373zM1117 1117h186v-372h-186v372z" />
    <glyph glyph-name="musicalnotedbl" unicode="&#x266b;" 
d="M372 1303h373v-186h-186v-1303h-187v-186h-186v186h-186v372h186v186h186v931zM1117 1303h-372v186h372v187h186v-1490h-186v-186h-186v186h-186v373h186v186h186v558z" />
    <glyph glyph-name="uni266C" unicode="&#x266c;" 
d="M372 1303h373v-186h-186v-186h186v-186h-186v-931h-187v-186h-186v186h-186v372h186v186h186v931zM1117 1303h-372v186h372v187h186v-1490h-186v-186h-186v186h-186v373h186v186h186v186h-372v186h372v186z" />
    <glyph glyph-name="uni2726" unicode="&#x2726;" 
d="M559 1303h186v-372h186v-186h372v-186h-372v-187h-186v-372h-186v372h-187v187h-372v186h372v186h187v372z" />
    <glyph glyph-name="uni2727" unicode="&#x2727;" 
d="M559 1303h186v-372h-186v372zM1303 745v-186h-372v186h372zM931 745h-186v186h186v-186zM372 745v-186h-372v186h372zM559 372h186v-372h-186v372zM372 931h187v-186h-187v186zM372 559h187v-187h-187v187zM745 559h186v-187h-186v187z" />
    <glyph glyph-name="uni27E8" unicode="&#x27e8;" 
d="M745 1303h186v-186h-186v186zM372 931h187v-186h-187v186zM186 745h186v-186h-186v186zM372 559h187v-187h-187v187zM745 186h-186v186h186v-186zM745 186h186v-186h-186v186zM931 1489h186v-186h-186v186zM931 0h186v-186h-186v186zM559 1117h186v-186h-186v186z" />
    <glyph glyph-name="uni27E9" unicode="&#x27e9;" 
d="M559 1117h-187v186h187v-186zM559 1117h186v-186h-186v186zM745 931h186v-186h-186v186zM931 745h186v-186h-186v186zM745 559h186v-187h-186v187zM559 372h186v-186h-186v186zM372 1303h-186v186h186v-186zM372 186h187v-186h-187v186zM186 0h186v-186h-186v186z" />
    <glyph glyph-name="uni2E17" unicode="&#x2e17;" 
d="M931 1117h186v-186h-186v186zM931 745h-559v186h559v-186zM931 745h186v-186h-186v186zM186 745h186v-186h-186v186zM186 372h186v-186h-186v186zM372 559h559v-187h-559v187z" />
    <glyph glyph-name="uniA78B" unicode="&#xa78b;" 
d="M559 1489h186v-558h-186v558z" />
    <glyph glyph-name="uniA78C" unicode="&#xa78c;" 
d="M559 1489h186v-558h-186v558z" />
    <glyph glyph-name="Iacute_J.loclNLD" 
d="M372 186h-186v186h186v-186zM372 186h559v-186h-559v186zM931 1303h-186v186h372v-1303h-186v1117zM186 1489h186v-744h-186v744zM372 2048h187v-186h-187v186zM186 1862h186v-186h-186v186zM1117 2048h186v-186h-186v186zM931 1862h186v-186h-186v186z" />
    <glyph glyph-name="iacute_j.loclNLD" 
d="M186 1117h186v-931h-186v931zM931 1117h186v-1303h-186v372h-186v186h186v745zM372 186h373v-186h-373v186zM559 -186h372v-186h-372v186zM186 1489h186v-186h-186v186zM931 1489h186v-186h-186v186zM372 1676h187v-187h-187v187zM1117 1676h186v-187h-186v187z" />
    <glyph glyph-name="a.sc" 
d="M186 745h186v-186h559v186h186v-745h-186v372h-559v-372h-186v745zM559 1117h186v-186h-186v186zM372 931h187v-186h-187v186zM745 931h186v-186h-186v186z" />
    <glyph glyph-name="b.sc" 
d="M186 1117h745v-186h-559v-186h559v-186h-559v-373h559v-186h-745v1117zM931 559h186v-373h-186v373zM931 931h186v-186h-186v186z" />
    <glyph glyph-name="c.sc" 
d="M186 931h186v-745h-186v745zM372 186h559v-186h-559v186zM931 372h186v-186h-186v186zM372 1117h559v-186h-559v186zM931 931h186v-186h-186v186z" />
    <glyph glyph-name="d.sc" 
d="M186 1117h745v-186h-559v-745h559v-186h-745v1117zM931 931h186v-745h-186v745z" />
    <glyph glyph-name="e.sc" 
d="M186 1117h931v-186h-745v-186h559v-186h-559v-373h745v-186h-931v1117z" />
    <glyph glyph-name="f.sc" 
d="M186 1117h931v-186h-745v-186h559v-186h-559v-559h-186v1117z" />
    <glyph glyph-name="g.sc" 
d="M186 931h186v-745h-186v745zM372 186h559v-186h-559v186zM931 559h-186v186h372v-559h-186v373zM372 1117h559v-186h-559v186z" />
    <glyph glyph-name="h.sc" 
d="M186 1117h186v-372h559v372h186v-1117h-186v559h-559v-559h-186v1117z" />
    <glyph glyph-name="i.sc" 
d="M559 186v745h-373v186h931v-186h-372v-745h372v-186h-931v186h373z" />
    <glyph glyph-name="j.sc" 
d="M372 186h-186v186h186v-186zM372 186h559v-186h-559v186zM931 931h-372v186h558v-931h-186v745z" />
    <glyph glyph-name="k.sc" 
d="M186 1117h186v-558h187v-187h-187v-372h-186v1117zM931 1117h186v-186h-186v186zM745 931h186v-186h-186v186zM559 745h186v-186h-186v186zM931 372h-186v187h186v-187zM931 372h186v-372h-186v372z" />
    <glyph glyph-name="l.sc" 
d="M186 1117h186v-931h745v-186h-931v1117z" />
    <glyph glyph-name="m.sc" 
d="M186 1117h186v-186h187v-186h-187v-745h-186v1117zM931 745h-186v186h186v186h186v-1117h-186v745zM559 745h186v-373h-186v373z" />
    <glyph glyph-name="n.sc" 
d="M186 1117h186v-186h187v-186h-187v-745h-186v1117zM931 372h-186v187h186v558h186v-1117h-186v372zM745 559h-186v186h186v-186z" />
    <glyph glyph-name="o.sc" 
d="M186 931h186v-745h-186v745zM372 186h559v-186h-559v186zM931 931h186v-745h-186v745zM372 1117h559v-186h-559v186z" />
    <glyph glyph-name="p.sc" 
d="M186 1117h745v-186h-559v-372h559v-187h-559v-372h-186v1117zM931 931h186v-372h-186v372z" />
    <glyph glyph-name="q.sc" 
d="M186 931h186v-745h-186v745zM372 186h559v-186h186v-186h-372v186h-373v186zM931 931h186v-745h-186v745zM372 1117h559v-186h-559v186z" />
    <glyph glyph-name="r.sc" 
d="M186 1117h745v-186h-559v-372h559v-373h-186v186h-373v-372h-186v1117zM931 931h186v-372h-186v372zM931 186h186v-186h-186v186z" />
    <glyph glyph-name="s.sc" 
d="M186 931h186v-186h-186v186zM372 745h559v-186h-559v186zM931 186v-186h-559v186h559zM372 186h-186v186h186v-186zM931 559h186v-373h-186v373zM372 1117h559v-186h-559v186zM931 931h186v-186h-186v186z" />
    <glyph glyph-name="t.sc" 
d="M186 1117h931v-186h-372v-931h-186v931h-373v186z" />
    <glyph glyph-name="u.sc" 
d="M186 1117h186v-931h-186v931zM372 186h559v-186h-559v186zM931 1117h186v-931h-186v931z" />
    <glyph glyph-name="v.sc" 
d="M559 186h-187v373h187v-373zM559 186h186v-186h-186v186zM186 1117h186v-558h-186v558zM931 1117h186v-558h-186v558zM745 559h186v-373h-186v373z" />
    <glyph glyph-name="w.sc" 
d="M186 1117h186v-745h-186v745zM372 372h187v-372h-187v372zM931 1117h186v-745h-186v745zM745 372h186v-372h-186v372zM559 745h186v-373h-186v373z" />
    <glyph glyph-name="x.sc" 
d="M559 745h-187v186h187v-186zM559 745h186v-186h-186v186zM745 931h186v-186h-186v186zM372 931h-186v186h186v-186zM372 559h187v-187h-187v187zM931 1117h186v-186h-186v186zM745 559h186v-187h-186v187zM931 372h186v-372h-186v372zM186 372h186v-372h-186v372z" />
    <glyph glyph-name="y.sc" 
d="M186 1117h186v-372h-186v372zM931 1117h186v-372h-186v372zM559 559h186v-559h-186v559zM372 745h187v-186h-187v186zM745 745h186v-186h-186v186z" />
    </font>
</defs>
</svg>
